<?xml version="1.0" encoding="utf-8"?>
<!-- Generator: Adobe Illustrator 17.1.0, SVG Export Plug-In . SVG Version: 6.00 Build 0)  -->
<!DOCTYPE svg PUBLIC "-//W3C//DTD SVG 1.1//EN" "http://www.w3.org/Graphics/SVG/1.1/DTD/svg11.dtd">
<svg version="1.1" id="Ebene_1" xmlns="http://www.w3.org/2000/svg" xmlns:xlink="http://www.w3.org/1999/xlink" x="0px" y="0px"
	 viewBox="0 0 237 235.1" enable-background="new 0 0 237 235.1" xml:space="preserve">
<path fill="#B2D234" d="M82.3,180.6c1.4,0,2.6-1.2,2.6-2.6c0-1.4-1.2-2.6-2.6-2.6c-1.4,0-2.6,1.2-2.6,2.6
	C79.7,179.5,80.9,180.6,82.3,180.6"/>
<path fill="#B2D234" d="M21.5,180.4c1.2,0,2.2-1,2.2-2.2c0-1.2-1-2.2-2.2-2.2c-1.2,0-2.2,1-2.2,2.2
	C19.3,179.4,20.3,180.4,21.5,180.4"/>
<path fill="#B2D234" d="M28.1,180.4c1.2,0,2.2-1,2.2-2.2c0-1.2-1-2.2-2.2-2.2c-1.2,0-2.2,1-2.2,2.2
	C25.9,179.4,26.9,180.4,28.1,180.4"/>
<path fill="#B2D234" d="M229.3,199.9h4.2v-24.4h-4.4v9.6h-0.1c-1.3-1.6-2.8-2.3-5-2.3c-5.1,0-7,4.1-7,8.7c0,4.6,1.9,8.8,7,8.8
	c2.1,0,3.8-0.7,5.1-2.3h0.1V199.9 M221.6,191.4c0-2.2,0.8-5.3,3.6-5.3c2.8,0,3.9,3,3.9,5.3c0,2.4-0.9,5.4-3.8,5.4
	C222.4,196.9,221.6,193.7,221.6,191.4 M198.3,199.9h4.4v-8.2c0-2.1,0.7-5.6,3.8-5.6c2.8,0,2.8,2.8,2.8,4.8v9h4.4v-10.6
	c0-3.8-1.7-6.6-5.7-6.6c-2.3,0-4.1,0.7-5.5,2.7h-0.1v-2.3h-4.1V199.9z M193.9,183.1h-4.4v8.2c0,2.1-0.7,5.6-3.8,5.6
	c-2.8,0-2.8-2.8-2.8-4.8v-9h-4.4v10.6c0,3.8,1.7,6.6,5.7,6.6c2.3,0,4.2-1,5.5-2.7h0.1v2.3h4.1V183.1z M166.2,189.7h-8.6v3.6h8.6
	V189.7z M146.8,199.9h4.4v-6.2c0-2.4,0-6.8,3.6-6.8c0.8,0,1.6,0.1,2,0.4v-4.4c-0.5-0.1-0.9-0.1-1.3-0.1c-2.6,0-4.4,2.6-4.6,4.2h-0.1
	v-3.8h-3.9V199.9z M142.1,195.4c-1.6,0.9-3.5,1.7-5.6,1.7c-2.7,0-4.6-1.5-4.8-4.2h11.6c0-5.9-1.8-10.1-8-10.1c-5.2,0-7.8,4-7.8,8.9
	c0,5.5,3.2,8.7,8.8,8.7c2.3,0,4.2-0.5,5.8-1.3V195.4z M131.8,189.8c0.2-2.2,1.4-3.9,3.9-3.9c2.4,0,3.4,1.8,3.6,3.9H131.8z
	 M120.7,199.9h4.2v-24.4h-4.4v9.6h-0.1c-1.3-1.6-2.8-2.3-5-2.3c-5.1,0-7,4.1-7,8.7c0,4.6,1.9,8.8,7,8.8c2.1,0,3.8-0.7,5.1-2.3h0.1
	V199.9z M113,191.4c0-2.2,0.8-5.3,3.6-5.3c2.8,0,3.9,3,3.9,5.3c0,2.4-0.9,5.4-3.8,5.4C113.8,196.9,113,193.7,113,191.4 M89.7,199.9
	h4.4v-8.2c0-2.1,0.7-5.6,3.8-5.6c2.8,0,2.8,2.8,2.8,4.8v9h4.4v-10.6c0-3.8-1.7-6.6-5.7-6.6c-2.3,0-4.1,0.7-5.5,2.7h-0.1v-2.3h-4.1
	V199.9z M80.2,199.9h4.4v-16.8h-4.4V199.9z M58.8,199.9h4.6v-10.6h0.1l8.2,10.6h6l-9.7-12l9.4-10.7h-5.6l-8.2,9.8v-9.8h-4.6V199.9z
	 M37,199.9h4.4v-6.2c0-2.4,0-6.8,3.6-6.8c0.8,0,1.6,0.1,2,0.4v-4.4c-0.5-0.1-0.9-0.1-1.3-0.1c-2.6,0-4.4,2.6-4.6,4.2h-0.1v-3.8H37
	V199.9z M32.5,183.1h-4.4v8.2c0,2.1-0.7,5.6-3.8,5.6c-2.8,0-2.8-2.8-2.8-4.8v-9h-4.4v10.6c0,3.8,1.7,6.6,5.7,6.6
	c2.3,0,4.2-1,5.5-2.7h0.1v2.3h4.1V183.1z M6.1,199.9h4.4v-13.6h3.8v-3.2h-3.8V181c0-1.3,0.5-2.6,1.9-2.6c0.9,0,1.5,0.4,1.9,0.6
	l0.4-3.6c-0.8-0.2-2.1-0.4-3.2-0.4c-3.5,0-5.3,2.3-5.3,5.7v2.3H2.9v3.2h3.2V199.9z"/>
<path fill="#585EA9" d="M212.6,97.6v10c0,7.9-6.9,14.4-14.7,14.4c-6.2,0-10.2-4.4-10.2-10.6C187.7,100.9,204.5,98,212.6,97.6
	 M234.7,131.7v-6.2c-0.8,0-2.1,0.1-2.8-0.4c-2.1-1.7-1.5-14.4-1.5-16.7V81.8c0-15.9-14.2-21.8-28.1-21.8c-8.8,0-17.3,2.8-24.7,7.3
	V75c6.6-2.2,14.1-3.2,21-3.2c7.5,0,14,4,14,11.9v4.1c-17.6,0.7-42.7,3.3-42.7,26c0,12,9.8,19.6,21.3,19.6c8.4,0,17.7-5.3,22.7-12
	c0.8,5,0.4,11.1,7.3,11.1C225.7,132.5,230.3,131.8,234.7,131.7 M142.5,86.4c0,8.2-4.6,17.1-13.8,17.1c-9.3,0-13.5-9-13.5-17.1
	s4.7-15.5,13.5-15.5C137.7,70.9,142.5,77.9,142.5,86.4 M163.7,72.1V59.4l-23.4,2.1c-3.9-1.1-7.9-1.5-11.9-1.5
	C111,60,98,67.3,98,86.4c0,9,4.3,17.8,12,22.7c-2.8,2.8-9.1,10.5-9.1,14.5c0,7.9,17,8.7,22.5,8.7c6.2,0,23.9-1.2,23.9,8.3
	c0,9.4-17.4,11.6-24.3,11.6c-7.7,0-18.9-1.9-25.4-6.2v10.5c7.2,4.1,16.7,6.9,25,6.9c14.8,0,40.5-4.8,40.5-23.9
	c0-17.8-20.6-18.4-33.6-18.4c-2.9,0-13.1,1.1-13.1-3.6c0-1.5,1.5-3.7,2.3-5c2.8,0.6,5.7,1,8.6,1c15.6,0,32.3-10,32.3-27.2
	c0-5.3-1.5-10.6-4.8-14.9C157.7,71.4,160.8,71.4,163.7,72.1 M56.8,131.7v-13.1H21.2V47.7H2.8v84.1H56.8z"/>
<path fill="#BCCF00" d="M85.2,131.8v-28.5c0-9.5,0.6-21.2-9.4-21.2h-0.7c-10.2,0-9.3,11.4-9.3,21.2v28.5H85.2"/>
<path fill="#BCCF00" d="M85.9,66.6c0-5.7-4.7-10.2-10.3-10.2c-5.7,0-10.3,4.5-10.3,10.2c0,5.7,4.7,10.2,10.3,10.2
	C81.2,76.8,85.9,72.3,85.9,66.6"/>
<g>
	<defs>
		<rect id="SVGID_1_" x="0.1" y="0.1" width="236.9" height="235.1"/>
	</defs>
	<clipPath id="SVGID_2_">
		<use xlink:href="#SVGID_1_"  overflow="visible"/>
	</clipPath>
	<path clip-path="url(#SVGID_2_)" fill="#585EA9" d="M235.7,24.7c-1.7,0.9-3.6,1.7-5.7,1.7c-2.8,0-4.7-1.5-4.9-4.2H237
		c0-5.9-1.8-10.1-8.2-10.1c-5.4,0-8,4-8,8.8c0,5.5,3.3,8.7,9,8.7c2.4,0,4.3-0.5,5.9-1.3V24.7 M225,19.1c0.2-2.2,1.5-3.9,4-3.9
		c2.5,0,3.5,1.8,3.7,3.9H225z M201.4,29.2h4.5V21c0-2.1,0.7-5.6,4-5.6c2.9,0,2.9,2.8,2.9,4.8v8.9h4.5V18.6c0-3.8-1.8-6.6-5.9-6.6
		c-2.3,0-4.3,1-5.4,2.7h-0.1V4.8h-4.5V29.2z M198.1,12.6c-1.2-0.4-2.5-0.6-4.4-0.6c-5.4,0-8.4,3.8-8.4,8.7c0,5.1,2.8,8.8,8.5,8.8
		c1.8,0,3.2-0.2,4.5-0.6l-0.2-3.6c-0.8,0.3-2.2,0.8-3.5,0.8c-3.2,0-4.7-2.4-4.7-5.5c0-3.2,1.8-5.3,4.6-5.3c1.4,0,2.2,0.3,3.1,0.6
		L198.1,12.6z M182.1,12.6c-1.4-0.3-2.8-0.6-4.9-0.6c-3.5,0-6.8,1.6-6.8,5.2c0,6,7.8,3.8,7.8,7.1c0,1.6-1.8,2-3,2
		c-1.5,0-3-0.4-4.4-1.1l-0.3,3.6c1.6,0.4,3.4,0.7,5.1,0.7c3.7,0,7.2-1.6,7.2-5.5c0-6-7.8-4.4-7.8-7c0-1.4,1.4-1.9,2.6-1.9
		c1.6,0,2.7,0.3,4,0.7L182.1,12.6z M162.4,29.2h4.5V12.4h-4.5V29.2z M141.8,29.2h4.5V21c0-2.1,0.7-5.6,4-5.6c2.9,0,2.9,2.8,2.9,4.8
		v8.9h4.5V18.6c0-3.8-1.8-6.6-5.9-6.6c-2.3,0-4.3,1-5.4,2.7h-0.1V4.8h-4.5V29.2z M138.5,12.6c-1.2-0.4-2.5-0.6-4.4-0.6
		c-5.4,0-8.4,3.8-8.4,8.7c0,5.1,2.9,8.8,8.5,8.8c1.8,0,3.2-0.2,4.5-0.6l-0.2-3.6c-0.8,0.3-2.2,0.8-3.5,0.8c-3.2,0-4.7-2.4-4.7-5.5
		c0-3.2,1.8-5.3,4.6-5.3c1.4,0,2.2,0.3,3.1,0.6L138.5,12.6z M117.7,29.2h4.5V12.4h-4.5V29.2z M112.8,24.7c-1.7,0.9-3.6,1.7-5.7,1.7
		c-2.8,0-4.7-1.5-4.9-4.2H114c0-5.9-1.8-10.1-8.2-10.1c-5.4,0-8,4-8,8.8c0,5.5,3.3,8.7,9,8.7c2.4,0,4.3-0.5,5.9-1.3V24.7z
		 M102.1,19.1c0.2-2.2,1.5-3.9,4-3.9c2.5,0,3.5,1.8,3.7,3.9H102.1z M86.6,29.2h4.5V23c0-2.4,0-6.8,3.7-6.8c0.8,0,1.6,0.1,2,0.4v-4.4
		C96.3,12,95.8,12,95.3,12c-2.7,0-4.5,2.6-4.7,4.2h-0.1v-3.8h-4V29.2z M73.5,29.2H78V23c0-2.4,0-6.8,3.7-6.8c0.8,0,1.6,0.1,2,0.4
		v-4.4C83.2,12,82.7,12,82.3,12c-2.7,0-4.5,2.6-4.7,4.2h-0.1v-3.8h-4V29.2z M68.6,24.7c-1.7,0.9-3.6,1.7-5.7,1.7
		c-2.8,0-4.7-1.5-4.9-4.2h11.9c0-5.9-1.8-10.1-8.2-10.1c-5.4,0-8,4-8,8.8c0,5.5,3.3,8.7,9,8.7c2.4,0,4.3-0.5,5.9-1.3V24.7z M58,19.1
		c0.2-2.2,1.5-3.9,4-3.9c2.5,0,3.5,1.8,3.7,3.9H58z M43.2,24.1c0,3.3,1.9,5.4,5.5,5.4c1.3,0,2.4-0.1,3.3-0.4l-0.1-3.4
		c-0.5,0.3-1.2,0.5-2,0.5c-1.7,0-2.1-1.3-2.1-2.8v-7.8h4v-3.2h-4V7.7l-4.5,1.4v3.3h-3.3v3.2h3.3V24.1z M37.4,12.6
		C36,12.4,34.6,12,32.5,12c-3.5,0-6.8,1.6-6.8,5.2c0,6,7.8,3.8,7.8,7.1c0,1.6-1.8,2-3,2c-1.5,0-3-0.4-4.4-1.1l-0.3,3.6
		c1.6,0.4,3.4,0.7,5.1,0.7c3.7,0,7.2-1.6,7.2-5.5c0-6-7.8-4.4-7.8-7c0-1.4,1.4-1.9,2.6-1.9c1.6,0,2.6,0.3,4,0.7L37.4,12.6z
		 M4.9,17.7c0-4,1.9-8.1,6.6-8.1c4.7,0,6.6,4.1,6.6,8.1c0,4.1-1.8,8.2-6.6,8.2C6.7,26,4.9,21.8,4.9,17.7 M0,17.7
		c0,7,4,11.8,11.5,11.8c7.4,0,11.5-4.9,11.5-11.8c0-6.9-4.1-11.7-11.5-11.7C4,6.1,0,10.8,0,17.7"/>
	<path clip-path="url(#SVGID_2_)" fill="#585EA9" d="M8,4.6c1.3,0,2.3-1,2.3-2.3C10.3,1,9.3,0,8,0C6.8,0,5.7,1,5.7,2.3
		C5.7,3.6,6.8,4.6,8,4.6"/>
	<path clip-path="url(#SVGID_2_)" fill="#585EA9" d="M15,4.6c1.3,0,2.3-1,2.3-2.3C17.3,1,16.2,0,15,0s-2.3,1-2.3,2.3
		C12.7,3.6,13.7,4.6,15,4.6"/>
</g>
<path fill="#585EA9" d="M119.9,10c1.4,0,2.6-1.2,2.6-2.6s-1.2-2.6-2.6-2.6c-1.4,0-2.6,1.2-2.6,2.6S118.5,10,119.9,10"/>
<path fill="#585EA9" d="M164.6,10c1.4,0,2.6-1.2,2.6-2.6s-1.2-2.6-2.6-2.6c-1.4,0-2.6,1.2-2.6,2.6S163.2,10,164.6,10"/>
<path fill="#B2D234" d="M227,225c0,2.7,1.6,4.5,4.4,4.5c1.1,0,1.9-0.1,2.7-0.3l-0.1-2.9c-0.4,0.2-1,0.4-1.6,0.4
	c-1.4,0-1.7-1.1-1.7-2.3v-6.5h3.2v-2.6h-3.2v-3.9l-3.6,1.2v2.8h-2.7v2.6h2.7V225 M218.4,229.2h3.6v-13.9h-3.6V229.2z M214.5,225.4
	c-1.3,0.8-2.9,1.4-4.6,1.4c-2.2,0-3.8-1.3-4-3.5h9.6c0-4.8-1.5-8.4-6.6-8.4c-4.3,0-6.4,3.3-6.4,7.3c0,4.6,2.7,7.2,7.2,7.2
	c1.9,0,3.4-0.4,4.8-1.1V225.4z M205.9,220.9c0.2-1.9,1.2-3.3,3.2-3.3c2,0,2.8,1.5,2.9,3.3H205.9z M186.9,229.2h3.6v-6.8
	c0-1.8,0.6-4.6,3.2-4.6c2.3,0,2.3,2.3,2.3,4v7.4h3.6v-8.8c0-3.1-1.4-5.4-4.7-5.4c-1.9,0-3.5,0.9-4.4,2.2h-0.1v-8.2h-3.6V229.2z
	 M179.7,229.2h3.5v-20.2h-3.6v7.9h-0.1c-1.1-1.3-2.3-1.9-4.2-1.9c-4.3,0-5.8,3.4-5.8,7.2c0,3.8,1.6,7.3,5.8,7.3
	c1.7,0,3.2-0.5,4.3-1.9h0.1V229.2z M173.3,222.2c0-1.9,0.6-4.4,3-4.4c2.3,0,3.2,2.5,3.2,4.4c0,2-0.8,4.5-3.2,4.5
	C174,226.7,173.3,224.1,173.3,222.2 M154,229.2h3.6v-6.8c0-1.8,0.6-4.6,3.2-4.6c2.3,0,2.3,2.3,2.3,4v7.4h3.6v-8.8
	c0-3.1-1.4-5.4-4.7-5.4c-1.9,0-3.4,0.6-4.6,2.2h-0.1v-1.9H154V229.2z M150.2,215.3h-3.6v6.8c0,1.8-0.6,4.6-3.2,4.6
	c-2.3,0-2.3-2.3-2.3-4v-7.4h-3.6v8.8c0,3.1,1.4,5.4,4.7,5.4c1.9,0,3.5-0.9,4.6-2.2h0.1v1.9h3.4V215.3z M134,215.5
	c-1.1-0.2-2.2-0.5-3.9-0.5c-2.8,0-5.4,1.3-5.4,4.3c0,5,6.3,3.2,6.3,5.9c0,1.3-1.5,1.7-2.4,1.7c-1.2,0-2.4-0.4-3.6-0.9l-0.2,3
	c1.3,0.3,2.7,0.6,4.1,0.6c2.9,0,5.8-1.3,5.8-4.5c0-5-6.3-3.6-6.3-5.8c0-1.2,1.2-1.5,2.1-1.5c1.3,0,2.1,0.2,3.2,0.6L134,215.5z
	 M121.7,225.4c-1.3,0.8-2.9,1.4-4.6,1.4c-2.2,0-3.8-1.3-4-3.5h9.6c0-4.8-1.5-8.4-6.6-8.4c-4.3,0-6.4,3.3-6.4,7.3
	c0,4.6,2.7,7.2,7.2,7.2c1.9,0,3.4-0.4,4.8-1.1V225.4z M113.1,220.9c0.2-1.9,1.2-3.3,3.2-3.3c2,0,2.8,1.5,2.9,3.3H113.1z
	 M103.4,215.3v1.9h-0.1c-1-1.6-2.4-2.2-4.3-2.2c-4.1,0-5.9,3.9-5.9,7.2c0,3.7,1.6,7,5.7,7c2,0,3.6-1,4.3-2.2h0.1
	c0,2.4-0.2,5.4-4.2,5.4c-1.1,0-2.9-0.6-4-1.2l-0.3,3.1c1.7,0.7,3.4,0.9,4.8,0.9c5.8,0,7.3-3.6,7.3-7.3v-12.5H103.4z M100.1,226.4
	c-2.1,0-3.1-2.3-3.1-4.2c0-2.1,0.8-4.4,3.2-4.4c2.1,0,3,1.9,3,4.3C103.2,224.4,102.3,226.4,100.1,226.4 M86.9,229.2h3.5v-20.2h-3.6
	v7.9h-0.1c-1.1-1.3-2.3-1.9-4.2-1.9c-4.3,0-5.8,3.4-5.8,7.2c0,3.8,1.6,7.3,5.8,7.3c1.7,0,3.2-0.5,4.3-1.9h0.1V229.2z M80.5,222.2
	c0-1.9,0.6-4.4,3-4.4c2.3,0,3.2,2.5,3.2,4.4c0,2-0.8,4.5-3.2,4.5C81.2,226.7,80.5,224.1,80.5,222.2 M61.2,229.2h3.6v-6.8
	c0-1.8,0.6-4.6,3.2-4.6c2.3,0,2.3,2.3,2.3,4v7.4h3.6v-8.8c0-3.1-1.4-5.4-4.7-5.4c-1.9,0-3.4,0.6-4.6,2.2h-0.1v-1.9h-3.4V229.2z
	 M57.3,225.4c-1.3,0.8-2.9,1.4-4.6,1.4c-2.2,0-3.8-1.3-4-3.5h9.6c0-4.8-1.5-8.4-6.6-8.4c-4.3,0-6.4,3.3-6.4,7.3
	c0,4.6,2.7,7.2,7.2,7.2c1.9,0,3.4-0.4,4.8-1.1V225.4z M48.8,220.9c0.2-1.9,1.2-3.3,3.2-3.3c2,0,2.8,1.5,2.9,3.3H48.8z M39,215.3v1.9
	H39c-1-1.6-2.4-2.2-4.3-2.2c-4.1,0-5.9,3.9-5.9,7.2c0,3.7,1.6,7,5.7,7c2,0,3.6-1,4.3-2.2h0.1c0,2.4-0.2,5.4-4.2,5.4
	c-1.1,0-2.9-0.6-4-1.2l-0.3,3.1c1.7,0.7,3.4,0.9,4.8,0.9c5.8,0,7.3-3.6,7.3-7.3v-12.5H39z M35.7,226.4c-2.1,0-3.1-2.3-3.1-4.2
	c0-2.1,0.8-4.4,3.2-4.4c2.1,0,3,1.9,3,4.3C38.9,224.4,38,226.4,35.7,226.4 M26,215.3h-3.6v6.8c0,1.8-0.6,4.6-3.2,4.6
	c-2.3,0-2.3-2.3-2.3-4v-7.4h-3.6v8.8c0,3.1,1.4,5.4,4.7,5.4c1.9,0,3.5-0.9,4.6-2.2h0.1v1.9H26V215.3z M1.5,229.1
	c1.1,0.3,1.9,0.4,2.9,0.4c3.9,0,5.1-2.8,5.1-4.8v-14.3H5.8v12.5c0,1.3,0,3.3-2.5,3.3c-0.8,0-1.3-0.1-1.8-0.3V229.1z"/>
<path fill="#B2D234" d="M220.2,213.4c1.2,0,2.2-1,2.2-2.2c0-1.2-1-2.2-2.2-2.2c-1.2,0-2.2,1-2.2,2.2
	C218,212.4,219,213.4,220.2,213.4"/>
</svg>
