<?xml version="1.0" encoding="utf-8"?>
<!-- Generator: Adobe Illustrator 17.1.0, SVG Export Plug-In . SVG Version: 6.00 Build 0)  -->
<!DOCTYPE svg PUBLIC "-//W3C//DTD SVG 1.1//EN" "http://www.w3.org/Graphics/SVG/1.1/DTD/svg11.dtd">
<svg version="1.1" xmlns="http://www.w3.org/2000/svg" xmlns:xlink="http://www.w3.org/1999/xlink" x="0px" y="0px"
	 viewBox="0 0 374.2 130" enable-background="new 0 0 374.2 130" xml:space="preserve">
<g id="Hintergrund">
</g>
<g id="Hilfslinien_anzeigen">
</g>
<g id="Vordergrund">
</g>
<g id="Premier_plan">
	<g>
		<g>
			<path fill="#4A96D2" d="M155.9,42.3c7.6,2.9,12.7,7.8,12.7,7.8c0.1-2.3,0.7-4.8,1.5-6.8c0,0-2.4-4.6-9.6-9.5
				c-7.7-5.3-16.6-6.8-16.6-6.8c-1.8,3.9-3.1,8.1-3.7,12.5C140.2,39.5,146.7,38.8,155.9,42.3z"/>
			<path fill="#4A96D2" d="M161.4,26.9c7.3,7,9.9,14.1,9.9,14.1c1.3-2.2,3.1-4,5.2-5.5c0,0-2.7-8.5-7.1-14.8
				C165.1,14.5,158,9.3,158,9.3c-3.5,2.7-6.5,5.8-9.1,9.3C148.9,18.6,156.1,21.7,161.4,26.9z"/>
			<path fill="#4A96D2" d="M174.2,18.1c3.3,8.4,4.1,16.4,4.1,16.4c2.2-1.1,5-2,7.5-2.2c0,0,0.1-8.1-1.7-16.5
				C182.1,6,179.8,0,179.8,0c-4.3,0.7-8.4,1.9-12.3,3.6C167.5,3.6,172,12.3,174.2,18.1z"/>
			<path fill="#4A96D2" d="M217.7,42.3C210.1,45.2,205,50,205,50c-0.1-2.3-0.7-4.8-1.5-6.8c0,0,2.4-4.6,9.6-9.5
				c7.7-5.3,16.6-6.8,16.6-6.8c1.8,3.9,3.1,8.1,3.7,12.5C233.5,39.5,227,38.8,217.7,42.3z"/>
			<path fill="#4A96D2" d="M212.2,26.9c-7.3,7-9.9,14.1-9.9,14.1c-1.3-2.2-3.1-4-5.2-5.5c0,0,2.7-8.5,7.1-14.8
				c4.4-6.3,11.5-11.5,11.5-11.5c3.5,2.7,6.5,5.8,9.1,9.3C224.8,18.6,217.5,21.7,212.2,26.9z"/>
			<path fill="#4A96D2" d="M199.4,18.1c-3.3,8.4-4.1,16.4-4.1,16.4c-2.2-1.1-5-2-7.5-2.2c0,0-0.1-8.1,1.7-16.5
				C191.5,6,193.9,0,193.9,0c4.3,0.7,8.4,1.9,12.3,3.6C206.2,3.6,201.7,12.3,199.4,18.1z"/>
		</g>
		<g>
			<path fill="#164194" d="M162.3,70.9c9.1-4.3,18.3-3.4,18.3-3.4c-3.3-1.2-6.1-3.3-8.1-6c0,0-8.1-1-14.4,0.3
				c-9.4,1.9-13.6,5.2-13.6,5.2c1.9,3.9,4.4,7.6,7.3,10.8C151.7,77.8,155.6,74.1,162.3,70.9z"/>
			<path fill="#164194" d="M155.2,57.2c9.3-0.4,15.7,2,15.7,2c-1.1-2.1-1.9-4.4-2.2-6.9c0,0-7.4-4.2-14.2-5.1
				c-9.4-1.3-14.9,0.5-14.9,0.5c0.1,4.5,0.9,8.7,2.1,12.8C141.8,60.6,147.9,57.6,155.2,57.2z"/>
			<path fill="#164194" d="M186.8,78c13.3,0,19.1,11.5,19.1,11.5c4.1-1.8,8-4.2,11.4-7.1c0,0-11.2-14.1-30.4-14.1
				c-19.2,0-30.4,14.1-30.4,14.1c3.4,2.9,7.2,5.3,11.4,7.1C167.8,89.5,173.6,78,186.8,78z"/>
			<path fill="#164194" d="M211.4,70.9c-9.1-4.3-18.3-3.4-18.3-3.4c3.3-1.2,6.1-3.3,8.1-6c0,0,8.1-1,14.4,0.3
				c9.4,1.9,13.6,5.2,13.6,5.2c-1.9,3.9-4.4,7.6-7.3,10.8C222,77.8,218.1,74.1,211.4,70.9z"/>
			<path fill="#164194" d="M218.5,57.2c-9.3-0.4-15.7,2-15.7,2c1.1-2.1,1.9-4.4,2.2-6.9c0,0,7.4-4.2,14.2-5.1
				c9.4-1.3,14.9,0.5,14.9,0.5c-0.1,4.5-0.9,8.7-2.1,12.8C231.8,60.6,225.8,57.6,218.5,57.2z"/>
		</g>
		<g>
			<path fill-rule="evenodd" clip-rule="evenodd" fill="#164194" d="M5.7,119.7h4.8c2.3,0,4.2-0.3,6-2c1.6-1.5,2.4-3.5,2.4-5.6
				c0-2.3-1-4.5-2.9-5.9c-1.7-1.3-3.7-1.6-5.8-1.6H0v2.3h3.2v20.4H0v2.3h8.9v-2.3H5.7V119.7z M5.7,117.4v-10.5h4.5
				c1.6,0,2.9,0.2,4.2,1.2c1.2,1,2,2.5,2,4.1c0,1.6-0.7,3-1.9,4.1c-1.3,1-2.7,1.2-4.2,1.2H5.7z"/>
			<path fill-rule="evenodd" clip-rule="evenodd" fill="#164194" d="M35.8,124.4c-1.3,2.3-3.7,3.6-6.4,3.6c-3.8,0-7-3-7.2-6.8H39
				v-0.7c0-5.4-4.2-9.7-9.7-9.7c-5.3,0-9.4,4.5-9.4,9.7c0,5.2,4.3,9.5,9.6,9.5c3.8,0,7.2-2.2,8.7-5.6H35.8z M22.2,119.3
				c0.4-3.5,3.6-6.4,7.1-6.4c3.7,0,7,2.6,7.5,6.4H22.2z"/>
			<path fill-rule="evenodd" clip-rule="evenodd" fill="#164194" d="M45.7,111.2h-5.4v2.2h3.1v14h-3.1v2.2h8.5v-2.2h-3.1V120
				c0-3.9,1.8-6.3,5.9-6.6v-2.2c-2.6,0.1-5,1.2-5.9,3.7V111.2z"/>
			<path fill-rule="evenodd" clip-rule="evenodd" fill="#164194" d="M60.3,111.2h-5.4v2.2H58v14h-3.1v2.2h8.5v-2.2h-3.1v-7.6
				c0-1.7,0-3.3,1.2-4.7c1-1.2,2.7-1.9,4.3-1.9c1.7,0,3.8,0.5,4.8,2.2c0.8,1.4,0.9,3,0.9,4.7v7.3h-3.1v2.2h8.5v-2.2h-3.1v-8.2
				c0-2.2-0.6-3.9-1-4.8c-1.2-2.4-4.3-3.5-6.3-3.5c-2.5,0-5,1.3-6.2,3.5V111.2z"/>
			<path fill-rule="evenodd" clip-rule="evenodd" fill="#164194" d="M87.6,130c5.4,0,9.6-4.4,9.6-9.7c0-5.2-4.3-9.4-9.5-9.4
				c-5.4,0-9.7,4.3-9.7,9.6C77.9,125.7,82.2,130,87.6,130z M87.6,127.8c-4.1,0-7.3-3.4-7.3-7.3c0-4,3.3-7.3,7.3-7.3
				c4.1,0,7.3,3.3,7.3,7.3C94.9,124.5,91.6,127.8,87.6,127.8z"/>
			<path fill-rule="evenodd" clip-rule="evenodd" fill="#164194" d="M115.3,129.6h5.4v-2.2h-3.1v-22.8h-5.4v2.2h3.1v8.7
				c-1.5-2.9-4.4-4.5-7.6-4.5c-5.1,0-9.4,4.4-9.4,9.5c0,1.8,0.7,3.8,1.6,5.3c1.6,2.6,5,4.4,7.9,4.4c3.2,0,5.9-1.6,7.5-4.4V129.6z
				 M108,127.9c-4,0-7.4-3.3-7.4-7.3c0-4.1,3.3-7.5,7.4-7.5c4,0,7.3,3.3,7.3,7.3C115.3,124.5,112.1,127.9,108,127.9z"/>
			<path fill-rule="evenodd" clip-rule="evenodd" fill="#164194" d="M153.2,127.2h-3.3l-5.2-6.8c4.3,0,7.6-3.5,7.6-7.7
				c0-2.4-0.9-4.7-2.8-6.3c-1.9-1.6-4-1.9-6.4-1.9h-10.8v2.3h3.2v20.4h-3.2v2.3h8.7v-2.3h-3v-20.4h4.9c1.9,0,3.5,0.1,5,1.4
				c1.3,1.2,1.9,2.8,1.9,4.5c0,2-1,3.9-2.8,5c-1.6,1-3.5,0.9-5.4,0.9h-0.9l7.7,10.8h4.9V127.2z"/>
			<path fill-rule="evenodd" clip-rule="evenodd" fill="#164194" d="M159.7,111.2h-5.4v2.2h3.1v14h-3.1v2.2h8.5v-2.2h-3.1V111.2z
				 M159.7,104.6h-2.3v3.6h2.3V104.6z"/>
			<path fill-rule="evenodd" clip-rule="evenodd" fill="#164194" d="M181.4,111.2h-2.2v2.6c-1.7-1.9-3.8-2.9-6.4-2.9
				c-2.7,0-5,1.2-6.7,2.9c-1.7,1.7-2.7,4.1-2.7,6.8c0,5.1,4.3,9.5,9.5,9.5c4,0,7.7-2.4,9.1-6.2h-2.6c-1.1,2.4-3.7,3.9-6.3,3.9
				c-4.1,0-7.4-3.1-7.4-7.2c0-4.1,3.2-7.3,7.2-7.3c2.6,0,5,1.4,6.3,3.5h2.2V111.2z"/>
			<path fill-rule="evenodd" clip-rule="evenodd" fill="#164194" d="M199.9,129.6h5.4v-2.2h-3v-14h3v-2.2h-5.4v4
				c-1.7-2.8-4.2-4.3-7.5-4.3c-3.3,0-6.4,1.7-7.9,4.3c-0.8,1.4-1.5,2.6-1.5,5.2c-0.1,2,0.6,3.8,1.5,5.3c1.6,2.7,4.7,4.3,8,4.3
				c3.2,0,5.9-1.5,7.5-4.3V129.6z M192.7,113.1c4,0,7.3,3.3,7.3,7.3c0,4.1-3.3,7.4-7.4,7.4c-4,0-7.3-3.4-7.3-7.3
				C185.2,116.4,188.6,113.1,192.7,113.1z"/>
			<path fill-rule="evenodd" clip-rule="evenodd" fill="#164194" d="M211.4,111.2h-5.4v2.2h3.1v14h-3.1v2.2h8.5v-2.2h-3.1V120
				c0-3.9,1.8-6.3,5.9-6.6v-2.2c-2.6,0.1-5,1.2-5.9,3.7V111.2z"/>
			<path fill-rule="evenodd" clip-rule="evenodd" fill="#164194" d="M236.7,129.6h5.4v-2.2H239v-22.8h-5.4v2.2h3.1v8.7
				c-1.5-2.9-4.4-4.5-7.6-4.5c-5.1,0-9.4,4.4-9.4,9.5c0,1.8,0.7,3.8,1.6,5.3c1.6,2.6,5,4.4,7.9,4.4c3.2,0,5.9-1.6,7.5-4.4V129.6z
				 M229.4,127.9c-4,0-7.4-3.3-7.4-7.3c0-4.1,3.3-7.5,7.4-7.5c4,0,7.3,3.3,7.3,7.3C236.7,124.5,233.5,127.9,229.4,127.9z"/>
			<path fill-rule="evenodd" clip-rule="evenodd" fill="#164194" d="M281.3,129.6v-2.3h-3.1l-9.8-22.7h-6.5v2.3h3.3l-9.1,20.4H253
				v2.3h8.9v-2.3h-3.1l2.6-5.7h11.6l2.5,5.7h-3.3v2.3H281.3z M272.2,119.4h-10.1l5.1-12L272.2,119.4z"/>
			<path fill-rule="evenodd" clip-rule="evenodd" fill="#164194" d="M298.2,129.6h5.4v-2.2h-3.1v-16.2h-5.4v2.2h3.1v7.8
				c0,1.9-0.1,3.2-1.3,4.7c-0.9,1.1-2.3,1.9-4.1,2c-1.8,0.1-3.3-0.5-4.4-2c-1.1-1.5-1.2-3.1-1.2-4.8v-9.9h-5.4v2.2h3.1v8.6
				c0,2.2,0.4,3.5,0.9,4.5c1.1,1.9,3.6,3.6,6.3,3.6c2.6,0,4.9-1.3,6.1-3.6V129.6z"/>
			<path fill-rule="evenodd" clip-rule="evenodd" fill="#164194" d="M316.7,115.8v-4.7h-1.9v1.7c-0.9-1.4-2.4-2-4.2-2
				c-1.7,0-3.8,0.6-4.9,2c-0.7,0.9-0.9,1.9-0.9,3.1c0,1.6,0.8,3,2.2,3.9c1.3,0.8,2.7,1,4.1,1.4c2,0.4,4.2,0.9,4.2,3.4
				c0,2.1-2,3.5-4,3.5c-2.5,0-4.5-1.6-4.7-3.9h-1.9v5.2h1.9v-2.2c1.1,1.9,2.9,2.7,5.1,2.7c2.1,0,4.5-1,5.4-2.7
				c0.4-0.8,0.8-1.6,0.8-2.8c0-1.7-0.8-3.2-2.3-4c-1.3-0.8-2.7-1.1-4.2-1.4c-1.9-0.4-4.1-0.9-4.1-3.3c0-2,1.7-3.1,3.6-3.1
				c1.9,0,3.7,1.2,3.8,3.1H316.7z"/>
			<polygon fill-rule="evenodd" clip-rule="evenodd" fill="#164194" points="324.8,113.4 328.9,113.4 328.9,111.2 324.8,111.2 
				324.8,104.6 322.5,104.6 322.5,111.2 319,111.2 319,113.4 322.5,113.4 322.5,129.6 329.2,129.6 329.2,127.4 324.8,127.4 			"/>
			<path fill-rule="evenodd" clip-rule="evenodd" fill="#164194" d="M335.6,111.2h-5.4v2.2h3.1v14h-3.1v2.2h8.5v-2.2h-3.1V120
				c0-3.9,1.8-6.3,5.9-6.6v-2.2c-2.6,0.1-5,1.2-5.9,3.7V111.2z"/>
			<path fill-rule="evenodd" clip-rule="evenodd" fill="#164194" d="M348.3,111.2h-5.4v2.2h3.1v14h-3.1v2.2h8.5v-2.2h-3.1V111.2z
				 M348.3,104.6H346v3.6h2.3V104.6z"/>
			<path fill-rule="evenodd" clip-rule="evenodd" fill="#164194" d="M368.9,129.6h5.4v-2.2h-3v-14h3v-2.2h-5.4v4
				c-1.7-2.8-4.2-4.3-7.5-4.3c-3.3,0-6.4,1.7-7.9,4.3c-0.8,1.4-1.5,2.6-1.5,5.2c-0.1,2,0.6,3.8,1.5,5.3c1.6,2.7,4.7,4.3,8,4.3
				c3.2,0,5.9-1.5,7.5-4.3V129.6z M361.6,113.1c4,0,7.3,3.3,7.3,7.3c0,4.1-3.3,7.4-7.4,7.4c-4,0-7.3-3.4-7.3-7.3
				C354.2,116.4,357.6,113.1,361.6,113.1z"/>
		</g>
	</g>
</g>
</svg>
