<?xml version="1.0" encoding="utf-8"?>
<!-- Generator: Adobe Illustrator 18.1.1, SVG Export Plug-In . SVG Version: 6.00 Build 0)  -->
<svg version="1.1" id="Ebene_1" xmlns="http://www.w3.org/2000/svg" xmlns:xlink="http://www.w3.org/1999/xlink" x="0px" y="0px"
	 viewBox="0 0 1170 800" enable-background="new 0 0 1170 800" xml:space="preserve">
<path fill="#FFFFFF" stroke="#000000" stroke-width="0.2835" stroke-miterlimit="22.9256" d="M1052.4,262c-0.9,0.5-1.5,0.7-2.5,0.7
	c-0.6,0-1-0.2-1.5-0.4h-0.7v2.2c0,3.2-1.9,5.7-4.9,6.7c-2.1,0.6-3.5,0.4-5.5,1.3c-3,1.3-4.6,2.3-7.1,4.5c-1.4,1.2-1.3,3.6-3.1,3.6
	c-1,0-1.4-0.9-1.9-1.8c-0.6-1-1.6-0.9-2.5-1.6c-0.8-0.6-1-1.2-1.9-1.6h-0.7c0,2.4-1.8,3.5-1.8,5.9c0,0.6,0.5,1,0.5,1.6
	c0.2,0.6,0,0.9,0,1.5c0,1.9,2,2.6,2,4.6c0,2.9-3.5,3.7-3.5,6.6c0,0.8,1.1,0.7,1.6,1.4c0.9,1.2,1.2,2.7,2.7,2.7
	c0,0.2,0.1,0.3,0.1,0.5c0,0.6-0.6,0.9-0.6,1.5c0,1.4,2.5,1.2,2.5,2.6c0,1-0.8,1.5-0.9,2.5c0.9-0.3,1.1-1.4,2.1-1.4l0.8-0.2
	c0.5,0.2,0.6,0.8,1.2,0.8c1,0,1.5-0.7,2.5-0.7c1.8,0,2.9-0.1,4.6,0.5c1.4,0.5,1.7,1.7,3,2.4c0.6-1.2,0.2-2.8,1.5-3l7.5,1.4h2.1
	l0.8-0.2c1,0,1.7,0.1,2.7,0.1c1.8,0,2.4-1.6,4-2.4c4-2,6.1-4.5,10.6-4.5c2.4,0,2.9,2.6,5.1,3.5c2.1,0.8,3.6,0.3,5.7,1.4
	c0-1.2-0.7-1.8-1.2-2.8c-0.3-0.8,0-1.4-0.4-2.1c-0.8-1.3-2.6-1-3.4-2.3c-0.4-0.7,0.1-1.3-0.1-2.1c-0.3-0.9-1.5-1.1-1.5-2.1
	c0-3.6,1.3-5.5,1.3-9v-2c0-1.7,0.4-2.6,0.4-4.4v-1.6c-0.6-0.1-0.9,0-1.4,0c-1.2,0-1.9-0.4-3-0.9c-0.6-0.3-1.5-0.5-1.5-1.3
	c0-1,1.5-1,1.5-2c0-2.1-2.5-2.1-3.8-3.8c-0.8,1.3-0.9,2.3-1.8,3.5c-1.9-1.4-3.6-1.2-5.3-2.8c-1-0.9,0.1-2.2-0.2-3.6
	C1056.2,263.3,1054.2,262.8,1052.4,262L1052.4,262z M1015.5,466.6L1015.5,466.6c-1.3-2.5-3-3.1-4.7-5.3c-1.4-1.8-0.8-3.6-1.9-5.6
	c-1.1-1.9-2.4-3-2.4-5.2v-2.9c0-1.4-0.1-3.2-1.5-3.2c-0.8,0-0.9,0.9-1.5,1.5c-0.9,0.8-1.6,1.2-2.3,2.1c-0.3,0.5-0.3,1.3-0.9,1.3
	c-0.8,0-1.1-0.8-1.9-0.8c-0.2,0-0.4,0.1-0.6,0.1v4.1l-0.4,0.4c-1.4-1.3-1.8-2.4-2.9-3.9c-1.5-2.6-3.7-4-6.7-4h-4.6
	c-3.4,0-5.8-1-7.8-3.7c-0.7-0.9-1.7-1.3-1.7-2.5v-2.4c0-2.1-1.5-4.1-3.7-4.1c-1.4,0-2.1,1-3.5,1c-1,0-1.4-1.2-1.4-2.3
	c0-3.2,1.7-4.8,2.5-7.9c-1.4-0.6-3.5-0.6-3.5-2.2c0-0.5,0.1-0.8,0.1-1.3c0-1.8-2.7-0.9-4.5-1.2c-2.1-0.3-3.2-1.4-5.3-1.4
	c-1.7,0-1.9,2.3-3.6,2.3c-1.7,0-1.6-2.1-2.1-3.7c-0.6,0.1-1,0.3-1.6,0.4c0-0.6,0.1-1,0.1-1.6c0-3.1-1.6-4.7-1.6-7.8
	c0-1.8,0.4-2.8,0.4-4.6c0-1.7-2.1-2.1-3.8-2.1c-1.5,0-1,2.8-2.5,2.8c-2.2,0-2-3.8-4.2-3.8c-0.8,0-1.2,0.7-2,0.7
	c-0.7,0-0.8-0.8-1-1.5c-0.6-1.6-1-2.6-1.4-4.3c-0.2-1-0.3-2.3-1.4-2.3c-2.4,0-3.7,0.7-6.1,0.7c-2.3,0-3.6-0.4-5.9-0.4
	c-0.7,0-1,0.2-1.7,0.2h-1.8c0-0.4-0.1-0.7-0.1-1.1c0-0.3,0.2-0.5,0.2-0.8c0-2.6-3.5-2.6-6.1-3c-3-0.5-3.5-3.4-4.8-6.1
	c-1.3,0.9-1.5,2.6-3,2.6c-1.4,0-1.6-1.8-1.8-3.1c-0.2-1.8-0.4-2.8-1-4.4c-0.5,0.1-0.8,0.3-1.3,0.6c-1.6-1.4-2.8-2-4.7-2.9
	c-0.8-0.4-1.2-1-2.1-1c-1.5,0-1.8,1.8-3.2,2.3c-0.8,0.8-1.8,0.7-2.9,0.7c-0.6,0-0.9-0.1-1.5-0.3c-0.7,1.8-1.7,2.7-1.7,4.6
	c0,0.4,0.3,0.6,0.3,1c0,0.7-0.8,0.8-1.5,0.9l-1.9-0.3h-2c-2,0-3-1.3-5-1.3c-0.9,0-0.7,1.2-0.9,2c-0.4,1.5-1.7,2.1-1.7,3.7
	c0,1.3,0.7,2,0.7,3.4c0,0.7-0.8,1.2-1.5,1.2c-1.5,0-2.4-0.7-3.9-0.7c-1,0-1.5,0.6-2.5,0.6c-0.8,0-1.3-0.3-2.1-0.3
	c-0.5,0-0.8,0.1-1.2,0.1c0.3,2.3-3.1,2.3-5.5,2.6c-2,0.2-3.1,0.9-5.1,0.9c-2.5,0-3.3-2.5-5.8-2.5c-2.4,0-3.3,2.4-5.8,2.4
	c-1,0-1.5-0.8-2.5-0.8c-1.6,0-2,1.6-3.1,2.7c-0.9,0.9-1.6,1.1-2.5,2c-1.2,1.2-1.7,2.7-3.4,2.7c-4,0-6.5-3.1-7.8-6.9
	c-1.7,0.3-2.3,1.7-4,1.7c-1.3,0-1.3-2.1-2.5-2.1c-1.7,0-2.2,1.4-3.5,2.5c-1.6,1.4-3,1.8-5,1.8c-1.3,0-1.3-1.7-2.1-2.7
	c-0.7-1-2.2-1.1-2.2-2.3c0-0.3,0.1-0.4,0.2-0.6l0,0c0.2-0.4,0.4-1.1,0.4-1.6c0-3.1-4.1-3.6-4.1-6.7c0-1.7,2-2.1,2-3.8
	c0-2.1-3.1-2.4-3.1-4.5c0-1.9,2.5-2.4,2.5-4.3c0-1.1-2-1-2-2.1c0-1.3,1.7-1,2.7-1.8c2.4-1.9,6.1-2,6.1-5.1c0-1.4-0.9-2-1.2-3.4
	c-0.4-2-0.7-3.3-2.1-4.8c-0.8-0.8-2-0.6-2.6-1.6c-0.7-1-0.4-1.9-0.9-3c-0.9,0.7-1.8,0.8-2.7,1.5c-0.5,0.3-0.4,1.2-1,1.2
	c-2.4,0-3.5-1.4-5.2-3.1c-3.3-1.6-5.9-0.8-8.9-2.7c-1.9-1.2-2.4-2.5-4.2-3.9c-2.1-1.6-3.7-1.9-6.1-3c-2.6-1.3-4-2.3-6.6-3.6
	c-0.9-0.4-0.7-1.4-1.4-2.1c-1.8-2.1-1.9-3.9-2.5-6.6c-0.4-1.7-2.2-2.2-2.2-4c0-1.6-0.5-2.5-0.5-4.1c0-1.2,1.5-1.5,1.5-2.7
	c0-0.4-0.3-0.6-0.3-1c0-1.9,0.7-3,1.9-4.4c0.9-1,2.6-0.9,2.6-2.2c0-1.5-2.8-1.3-2.8-2.8c0-1,1.2-1.3,1.2-2.3c0-0.8-1.3-0.9-1.3-1.8
	c0-3,1.6-4.6,1.6-7.6v-2.7c0-2.5-0.4-4.2,0.9-6.3c1.5-2.5,3.6-3.8,6.5-3.8c3.1,0,4.7,1.4,7.3,2.9c1.2,0.7,2.1,0.8,2.9,1.9
	c2.9,3.9,4.3,6.5,8.2,9.3c1.8,1.3,2.6,3.1,4.8,3.1c2.4,0,4.4-1.5,4.7-3.9h2.2c0.8,0,1.3,0.2,2.1,0.2c3.3,0,4.8-1.8,8.1-2.3
	c1.7-0.3,2.6-0.7,4.3-0.9c1.3-0.2,2.5,0.4,3.5-0.4c0.7-0.6,0.5-1.4,0.8-2.2c0.5-1.3,0.9-2,0.9-3.4c0-0.4-0.2-0.6-0.2-1
	c0-0.9,0.9-1.2,1.8-1.4c1,0,1.7-0.7,2.7-0.7c1,0,1.3,1,2.3,1c1.3,0,2-0.7,3.3-0.7c2.1,0,3.9,1,4.5,3c0.3,1.2,0,3,1.3,3
	c0.2,0,0.2-0.3,0.4-0.3c-0.1-1.3-0.7-1.9-0.7-3.1v-2.1c0.9-0.6,1.2-1.3,1.6-2.3l0.8-0.2c0-1.2-0.5-2.3,0.3-3.1
	c0.4-0.5,1.2-0.2,1.7-0.6c0.6-0.5,0.4-1.2,0.4-1.9c0-1-0.4-1.6-0.4-2.6v-7.8c0-1.3,0.2-2.4-0.6-3.4c-1.4-1.8-3.5-1.1-5.9-1.3l1.8-6
	v-3.1c0-2,1.2-2.9,1.6-4.9c-1.5,0.5-2.6,0-4.2,0c-1.1,0-1.7,0.5-2.8,0.5c-0.2,0-0.3-0.1-0.5-0.1c0.9-2.8,4.2-3.3,4.2-6.2
	c0-2.1-2.5-2.1-3.9-3.7c-1.5-1.8-1.5-3.8-3.5-5c-1.2-0.7-2.6-0.9-2.6-2.3c0-1.7-0.8-2.6-0.8-4.3c0-1.7,1.7-2,3-3
	c0.7-0.5,0.5-1.5,1.3-1.8c1-0.4,2.5-0.3,2.5-1.5c0-2.1-0.9-3.8-2.8-4.5c-2.6-1-4.6-0.1-7.1-1.2c-1.2-0.5-0.6-2.2-1.7-3
	c-1-0.8-2.4,0.1-3.5-0.7c-1.7-1.3-2.8-2.7-4.9-2.7c-0.8,0-1.1,0.7-1.9,0.7c-0.2,0-0.3-0.2-0.5-0.2v-1.1c-1.2,0.2-1.8-0.1-2.9-0.1
	c-1,0-0.9,1.9-1.9,1.9c-0.8,0-0.8-1-1.4-1.5c-1.8-1.6-1.9-3.8-4.1-4.9v0c0.1-0.5,0-0.8,0-1.3c0-2,2-2.6,2-4.6c0-1.2-0.5-1.8-0.5-2.9
	c0-1.5,0.8-2.3,0.8-3.8c0-1-0.3-1.6-0.3-2.7c0-1.9,0.5-2.9,1-4.8c0.7-2.4,0.2-4,1.4-6.2c0.7-1.4,2.1-1.4,3.6-1.9
	c0.8-0.3,0.7-1.2,1.3-1.9c0.7-0.8,1.6-0.6,2.6-1c0.9-0.4,0.9-1.3,1.4-2.1c1.2-0.6,2.4-1,2.4-2.3c0-0.4-0.5-0.5-0.5-0.9v-2
	c0-1.6,1.5-2.3,1.5-3.9c0-1.2,0.1-1.8,0.1-3l0.1-0.9c0.8,0.1,1.3-0.1,2.1-0.1c2.1,0,3,1.7,5.1,1.7c0.9,0,1.3-1,2.2-1
	c1.2,0,1.2,2.1,2.4,2.1c0.6,0,0.9-0.2,1.5-0.2c1,0,1.6,0.7,2.6,0.7c0.4,0,0.6-0.2,1-0.2c1.5,0,2,1.5,3.5,1.5c2.4,0,4.8-1.4,4.8-3.8
	c0-2.1-4.1-1.4-4.1-3.5c0-2.8,1.3-4.1,2.1-6.8c0.5-1.7-0.3-3.1,0.9-4.3c0.7-0.7,1.7-0.3,2.3-1c-1.4-0.7-2.4-1.6-2.4-3.1
	c0-0.5,0.4-0.7,0.4-1.3c0-1.1-0.2-1.7-0.3-2.7c1,0,2-0.8,2-1.8c0-1.7,1-2.6,1-4.3c0-2.4-1.6-3.6-1.6-6.1c0-1,1.2-1.2,1.2-2.2
	c0-0.7-0.9-0.9-1-1.6c-0.6-2.1-0.5-3.4-0.5-5.6c0-1.3-0.1-2.2,0.4-3.5c0.6-1.7,2.8-1.8,2.8-3.6c0-1.2-0.5-1.8-0.5-2.9v-1.2
	c0.2,0,0.4-0.1,0.6-0.1c0.8,0,1.2,0.4,1.9,0.4c0.5,0,0.6-0.6,1.2-0.6c1.8,0,2.6,1.5,4.4,1.5c0.7,0,1.1-0.2,1.9-0.1
	c0.4,1,0,1.9,0.5,2.9c0.4,0.9,1.5,0.6,2.5,0.7c1,0.1,1.6,0.6,2.6,0.6c1,0,1.4-0.9,2.4-0.9c1.9,0,3.2-0.2,4.8,0.7
	c1.1,0.7,0.6,2.1,1.3,3.2c1,1.7,2.1,2.6,2.1,4.5c0,1.6-1.4,2.2-1.4,3.8c0,0.4,0.2,0.8,0.6,0.8c0.7,0,0.8-0.7,1.5-0.8
	c0.8-0.1,1.3,0.3,2.1,0c1.3-0.5,1.1-1.9,2.3-2.5c2-1,3.5-0.7,5.8-0.7c1.2,0,1.8,0.4,2.9,0.4c0.9,0,0.7-1.2,1.2-2
	c0.8-1.4,1.7-2.2,1.7-3.8v-2.1c0-0.4,0.3-0.5,0.5-0.8c1.6,1.2,2,3.4,4,3.4c1.5,0,2.3-0.6,3.8-0.6c2.2,0,3.4,1.1,5.1,2.3
	c2.3,1.5,3.5,2.6,6.1,3.7c1.2,0.5,1.2,1.7,2.3,2.4c1.5,0.9,2.8,0.6,4.5,1.2c0.2,0,0.3,0.1,0.4,0.1c0.7,0,0.7-1.2,1.4-1.2
	c0.7,0,0.8,0.9,1.5,1.3c1.2,0.7,2.3,0.5,3.4,1.5c1.3,1.2,1.1,2.6,2,4.2c1.3,2.4,3.6,2.6,6.2,3.5c1.7,0.6,2.4,2,4.2,2
	c1.1,0,1.7-0.5,2.8-0.5h2.1c1.9,0,2,2.3,3.7,3.1c2.1,1.1,4,0.9,5.6,2.7c0.9,1.1,1.8,1.4,2.5,2.6c0.4,0.6,0.3,1.7,1,1.7
	c0.8,0,1-1,1.9-1c1.7,0,2.3,1.6,4,1.6h2.1c1.9,0,3-1,4.2-2.5c0.7-1,0.7-2.5,1.9-2.5c1.1,0,1.7,0.5,2.8,0.5l4.5-0.2
	c1.7,4.3,7.9,6.3,12,7.8c2.2,0.8-0.1,3.1,2.6,2.4c0.5,0.7,0.2,2,1.1,2c0.6,0,0.5-0.9,1-0.9c1.3,0,1.8,0.9,3,1.3
	c-0.6,1.7-1,2.6-1,4.3c0,1.4,1.8,1.3,2.8,2.3c3.1,3.1,5.4,4.1,9.3,6c2,0.9,3.3,1.2,5.3,2.2c2.6,1.3,3.9,2.9,6.7,2.9
	c0.4,0,0.6-0.2,1-0.2c1.4,0,2,0.9,3.4,0.9c1.3,0,1.7-1.8,3-1.8c1.6,0,2.6,0.6,4.2,0.6c3.9,1.3,6.2,2.1,10.3,2.1
	c1.1,0,1.4-1.3,2.5-1.3c2,0,3.2,0,5.3-0.3c2,1.1,3.9,2.6,6.6,2.7c6.2,0.3,10.3-7.8,12.5-12.6c0.9-2.1,2.5-4,3.7-5.9
	c1.3,0.9,3.7,2.1,5.3,2.1c1.2,0,1.8-0.3,3-0.3c0.8,0,1.3,0.3,1.9,0.7c1.3-1,1.2-2.5,2.6-3.4c1.4,1.4,1.5,2.7,2.9,4
	c1.2,1.1,2.6,0.4,4,1.3c0.9,0.6,0.5,2,1.5,2.4c1.5,0.7,2.6,0.6,4.3,0.6c1.2,0,2.1-0.4,2.6-1.5c3.3,1.6,6.3,3.2,6.3,6.8
	c0,1.4-0.9,2-0.9,3.4c0,0.7,0.6,0.8,0.9,1.4c0.4,0.7,0.5,1.4,1.2,1.8c1.2-1.2,1.9-2.2,3.6-2.2c1.4,0,2.2,0.7,3.3,1.6l0.8-0.2
	c0.9,0.7,1.1,1.5,1.8,2.4c0.7,1,1.9,0.6,3,1.2c1.9,1.1,3,2.1,5.2,2.1c0.9,0,1.3-0.6,2.1-0.6h2.1v-1c0.6,0.6,1.2,0.8,2,0.8
	c1.9,0,4.2,0.2,4.6-1.7l0.3-0.4c0.8,1,2.2,0.3,3.1,1.2c0.8,0.7,0.5,1.6,0.9,2.5c0.7,1.4,1.8,2.1,1.8,3.7c0,0.7-0.5,1-0.5,1.7
	c0,1.2,1,1.6,1.4,2.7l-0.5,2.5l0.8,4.4c-0.1,1.4-0.3,2.4-0.5,3.8c0.7,0.7,1.6,1,2.6,1l0,0l0.5,2.3c-0.5,0.5-0.8,0.8-0.8,1.5
	c0,1.2,0.7,1.8,0.7,2.9c0,1.4-0.8,2.1-0.8,3.6c0,3,2.6,4.2,2.6,7.2c0,1.9-1.3,2.6-1.8,4.4c-0.6-0.1-0.9-0.3-1.5-0.3
	c-0.9,0-0.4,1.4-1,2.1c-0.4,0.4-0.9,0.2-1.5,0.2c0.1,1.3,0.1,2,0,3.4c-0.2,0.1-0.3,0.2-0.5,0.2c-0.4,0-0.6-0.4-1-0.4
	c-0.8,0-1.8,0.4-1.8,1.3c0,0.8,0.3,1.2,0.7,1.9c-1,0.6-0.6,2.4-1.8,2.4c-0.3,0-0.5-0.3-0.8-0.3c-0.8,0-0.6,1.1-1,1.7
	c-0.5,0.7-1.4,0.7-1.7,1.5l0.3,1.4l-0.1,0.7c-0.7,0.1-1.2,0-1.9,0c-0.1,0.7,0,1.1,0,1.8c0,1.8-0.3,2.9,0.4,4.5
	c0.3,0.8,1.3,1,1.3,1.9c0,1-2,0.6-2,1.6c0,1.4,0.8,2.1,0.8,3.6c0,1.3-0.2,3-1.5,3c-0.3,0-0.5-0.2-0.8-0.3l-0.4,0.1
	c0,0.3-0.1,0.4-0.1,0.7c0,1.4,0.5,2.2,0.5,3.5c0,1.9,0.9,4,2.8,4h2.2c0.1,0.2,0.2,0.3,0.2,0.5c0,0.4-0.4,0.5-0.4,0.8
	c0,2.7,5.5,1.5,5.5,4.2c0,1.6-1.8,2.1-1.8,3.8s1.4,2.3,1.9,3.8c0.6,1.9,0.6,3.6,2.3,4.5c1.5,0.8,3,0,4.3,1.2v2.5l-0.6,3.8
	c0.2,1.2,1,1.6,1.7,2.6c1.1,1.6,1,2.9,1.5,4.8c0.5,2,1.1,3.1,1.3,5.1c0.1,1.2-0.2,2.1,0.4,2.8c4.2,0,4.2,6.7,8.4,6.7
	c1.1,0,1.8-0.1,2.7,0.1c0.6,0.2,0.8,0.9,1.1,1.5c0.8,1.3,0.9,2.3,1.5,3.5v0c-1,1-1.1,2-2.1,3.1c-0.6,0.6-1.7,0.7-1.7,1.6
	c0,1.6,0,2.6-0.7,4.1c-2.1-0.9-3.4-1.4-5.6-2.1c1-1,2.8-1,2.8-2.4c0-0.3-0.1-0.4-0.2-0.6c-0.9,0.1-1.5,0.4-2.4,0.4
	c-1.6,0-2.4-0.9-4-1.3c0.5,3,0.4,6.8,3.4,6.8c0.7,0,1-0.4,1.7-0.4c0.2,0,0.2,0.1,0.4,0.1c-0.8,3.2-2.2,4.6-3.7,7.5
	c-0.8,1.6-0.6,2.8-1.6,4.2c-1.2-0.9-1.2-2-2.1-3c-1.5-1.8-3-2.1-5.2-2.7c-1.8-0.5-1.8-2.3-3-3.7c-0.6-0.7-1.4-0.3-2.2-0.5
	c-0.5-0.2-0.7-0.7-1.3-0.7c-0.8,0-1,1-1.8,1.3c-3.9,1.6-4.4,5.1-8,7.4c-2.3,1.5-3.7,2.1-6.2,3.4c-2.5,1.3-3.9,2.5-6.7,2.5
	c-1.3,0-2-0.5-3.3-0.5c-1.5,0-1.7,1.7-2.1,3.1c-0.5,1.9-0.6,3.1-1.4,4.9c0.8,0.8,0.8,1.4,0.8,2.5c-1.9,0.5-2.6,2.3-4.6,2.3
	c-0.9,0-1.3-0.7-2.2-0.7c-1.3,0-0.8,2.1-1.9,2.8c-0.7,0.5-1.6,0.3-2.1,0.9c-1,1.3-0.2,2.8-1.3,4c-1.5,1.7-1.9,3-3.4,4.6
	c-0.9,1.1-2.1,1.3-2.6,2.6c-0.3,0.8-0.2,1.5-0.8,2.1c-1.5-3-2.8-4.4-5.1-6.6c-1.4-1.3-2.8-1.8-3.5-3.7c-0.3-1,0.1-2.6-0.9-2.6
	c-2,0-3,1.2-4.9,1.2c-0.7,0-1-0.4-1.7-0.4c-3.8,0-5.9,3-7.2,6.6c-0.6,1.5-0.7,2.4-1.5,3.8c-0.8,1.5-1.2,3.4-2.9,3.4
	c-0.3,0-0.4-0.3-0.6-0.3c-1.4,0-1.5,1.7-2.7,2.5c-1,0.7-2.9-0.3-2.9,0.9c0,2.4,2.5,3,4.6,4.2c-1,1.3-0.4,2.8-1.6,4
	c-1,1-2.3,0.4-3.3,1.4c-2.1,2.1-1.2,6.5-4.2,6.5c-3.2,0-3.4-4.7-6.6-4.7c-0.2,0-0.3,0.2-0.4,0.2v1.7c0,2.1,1.5,3,3,4.4
	c0.7,0.6,1.7,0.8,1.7,1.7c0,1-0.6,1.5-0.9,2.5c-1.1,3.3-1.5,5.3-1.5,8.8c0,4.9,1.4,10.5,6.3,10.9c1,0.1,1.9-0.1,2.6,0.5
	c0.9,0.8,0.1,1.8,0.4,2.9c0.8,2.8,1.6,4.2,2.1,7.1v0.8c0,1.6-1.1,3.1-2.6,3.1c-0.4,0-0.6-0.1-1-0.1c0.1,0.8,0.4,1.3,0.4,2.1
	c0,1.3-1.4,1.9-2.7,1.9c0,0.4-0.1,0.7-0.1,1.1c0,2.7-0.4,4.3-1.3,6.8c-0.4,1.3-1.3,1.9-1.3,3.3c0,0.9,0.8,1.3,1.4,2
	c1.4,1.6,2.2,2.8,2.2,4.8c0,4.2-2.8,6.1-5.2,9.5c-0.4,0.7,0.1,1.3-0.2,2.1c-0.5,1.2-1.6,1.2-2.6,2c-1.7,1.3-3.1,1.3-4.6,2.7
	c-3.1,3.1-5.1,6-9.5,6C1017,466.6,1016.5,466.6,1015.5,466.6z"/>
<path fill="#FFFFFF" stroke="#000000" stroke-width="0.2835" stroke-miterlimit="22.9256" d="M791.3,201.6c2.2,1.1,2.3,3.3,4.1,4.9
	c0.6,0.5,0.6,1.5,1.4,1.5c1,0,0.9-1.9,1.9-1.9c1.2,0,1.8,0.3,2.9,0.1v1.1c0.2,0.1,0.3,0.2,0.5,0.2c0.8,0,1.1-0.7,1.9-0.7
	c2.2,0,3.2,1.4,4.9,2.7c1.1,0.8,2.4-0.1,3.5,0.7c1,0.8,0.4,2.5,1.7,3c2.6,1,4.5,0.2,7.1,1.2c1.9,0.7,2.8,2.4,2.8,4.5
	c0,1.1-1.5,1.1-2.5,1.5c-0.8,0.3-0.6,1.3-1.3,1.8c-1.3,1-3,1.4-3,3c0,1.7,0.8,2.6,0.8,4.3c0,1.4,1.5,1.6,2.6,2.3
	c2,1.2,1.9,3.3,3.5,5c1.4,1.6,3.9,1.6,3.9,3.7c0,2.9-3.3,3.4-4.2,6.2c0.2,0,0.3,0.1,0.5,0.1c1.1,0,1.7-0.5,2.8-0.5
	c1.6,0,2.7,0.6,4.2,0c-0.3,2-1.6,2.9-1.6,4.9v3.1l-1.8,6c2.3,0.2,4.4-0.6,5.9,1.3c0.8,1,0.6,2.1,0.6,3.4v7.8c0,1,0.4,1.6,0.4,2.6
	c0,0.7,0.1,1.4-0.4,1.9c-0.5,0.4-1.2,0.1-1.7,0.6c-0.8,0.9-0.3,1.9-0.3,3.1l-0.8,0.2c-0.3,1-0.7,1.7-1.6,2.3v2.1
	c0,1.3,0.6,1.9,0.7,3.1c-0.2,0.1-0.2,0.3-0.4,0.3c-1.3,0-0.9-1.8-1.3-3c-0.6-2-2.4-3-4.5-3c-1.3,0-2,0.7-3.3,0.7c-1,0-1.3-1-2.3-1
	c-1,0-1.7,0.7-2.7,0.7c-0.9,0.2-1.8,0.5-1.8,1.4c0,0.4,0.2,0.6,0.2,1c0,1.3-0.5,2.1-0.9,3.4c-0.3,0.8-0.2,1.6-0.8,2.2
	c-1,0.9-2.1,0.3-3.5,0.4c-1.7,0.2-2.6,0.7-4.3,0.9c-3.2,0.5-4.8,2.3-8.1,2.3c-0.8,0-1.3-0.2-2.1-0.2h-2.2c-0.3,2.4-2.3,3.9-4.7,3.9
	c-2.2,0-3-1.8-4.8-3.1c-3.9-2.9-5.3-5.4-8.2-9.3c-0.8-1.1-1.8-1.2-2.9-1.9c-2.7-1.5-4.3-2.9-7.3-2.9c-2.9,0-5,1.3-6.5,3.8
	c-1.3,2.1-0.9,3.8-0.9,6.3v2.7c0,3-1.6,4.6-1.6,7.6c0,0.8,1.3,0.9,1.3,1.8c0,1-1.2,1.3-1.2,2.3c0,1.5,2.8,1.3,2.8,2.8
	c0,1.3-1.7,1.2-2.6,2.2c-1.2,1.4-1.9,2.5-1.9,4.4c0,0.4,0.3,0.6,0.3,1c0,1.2-1.5,1.5-1.5,2.7c0,1.6,0.5,2.5,0.5,4.1
	c0,1.8,1.8,2.3,2.2,4c0.7,2.7,0.7,4.5,2.5,6.6c0.6,0.7,0.5,1.7,1.4,2.1c2.6,1.2,4,2.3,6.6,3.6c2.4,1.2,4,1.5,6.1,3
	c1.8,1.3,2.3,2.7,4.2,3.9c3,1.9,5.7,1.1,8.9,2.7c1.7,1.7,2.9,3.1,5.2,3.1c0.6,0,0.6-0.8,1-1.2c1-0.7,1.8-0.8,2.7-1.5
	c0.6,1.1,0.3,2,0.9,3c0.6,1,1.8,0.7,2.6,1.6c1.4,1.5,1.7,2.8,2.1,4.8c0.3,1.4,1.2,2,1.2,3.4c0,3.1-3.6,3.3-6.1,5.1
	c-1,0.8-2.7,0.5-2.7,1.8c0,1.1,2,1,2,2.1c0,1.9-2.5,2.4-2.5,4.3c0,2.1,3.1,2.4,3.1,4.5c0,1.7-2,2.1-2,3.8c0,3.1,4.1,3.6,4.1,6.7
	c0,0.5-0.2,1.1-0.4,1.6l0,0c-2.5-1-3.6-3.1-6.3-3.1c-1.3,0-1.6,1.4-2.2,2.5c-0.8,1.4-1.7,2.5-3.4,2.5c-0.2,2.3-3,2.8-5.3,2.8
	c-1.2,0-1.9-0.2-3.1-0.2c-0.6,0-0.5,0.8-0.8,1.4c-0.4,0.7-1.1,0.8-1.9,0.8c-1.4,0-2.2-0.3-3.6-0.3c-1.3,0-1.8,0.9-2.9,1.4
	c-1.8,0.7-3.4,1.7-3.4,3.6c0,1.9,1.9,2.7,1.9,4.6c0,1-1.3,1-2.2,1.4c-2,0.8-3.2,1.2-5.3,1.2c-3.2,0-4.3,3.4-7.4,3.4
	c-1,0-1.5-0.4-2.4-0.4h-1.3c-0.2,0-0.3-0.1-0.5-0.1c-1.4,0.3-2,1.7-2.5,3c-0.4,1-1.3,1.2-2.2,1.8c-2.3,1.7-4.4,1.5-6.6,3.4
	c-1.1,1-1,2.8-2.5,2.8h-2.5c-1.8,0-2.3-2-4.1-2c-1.2,0-1.7,0.9-2.9,0.9c-1.3,0-1.7-1.2-2.4-2.2c-1.2-1.7-2.7-2.5-2.7-4.5
	c0-0.8,0.5-1.3,0.5-2.1c0-0.5-0.6-0.5-1.1-0.5c-3.1,0-4.2,2.8-7.3,2.8c-0.8,0-1.3-0.1-2.1-0.1c-1.9,0-2.8,1-4.5,1.8
	c-2.7,1.3-4.4,1.6-7.2,2.4c-0.9,0.2-1.2,0.8-2.1,0.8c-2,0-3.1-2-3.1-3.9c0-2.3,0.6-3.5,0.6-5.8c0-2.1-1.8-2.9-3.3-4.4
	c-0.9-1-1.4-1.7-2.1-2.9c-0.4-0.7-0.6-1.5-1.4-1.5h-2.3c-0.7,0-1,0.4-1.7,0.4c-2.6,0-3.6-2.5-6.2-2.5c-1.3,0-2.1,0.5-3.4,0.5
	c-1.6,0-1.8-1.8-3.1-2.7c-1.7-1.1-2.8-1.8-4.8-1.8c-1.4,0-1.5,2.1-2.9,2.1c-1,0-1.4-0.5-2.4-0.5c-2.7,0-4.1,1.4-6.8,1.4
	c-0.4,0-0.6-0.3-1-0.3c-2.5,0-2.5,2.9-4.1,4.9c-0.9,1.2-2.2,1.2-3,2.4c-0.6,0.9-0.1,2.1-1,2.7c-1.1,0.7-1.8,0.7-3,1.3
	c0,1.6,0.1,2.4,0.1,4c0,2.7-2,4-2,6.7c0,1.7,0.4,2.6,0.4,4.4c0,1.6-0.1,2.6-0.6,4.1c1.9,0.8,3.3,0.6,5.1,1.5c2,1,2.5,2.6,3.5,4.7
	c0.3,0.7,0.8,1.1,0.8,1.9c0,0.7-0.9,0.8-0.9,1.4c0,1.9,1.6,2.8,1.6,4.7c0,4.6-5.4,5.9-5.4,10.5c0,0.7,0.1,1.1,0,1.8h-1.5
	c-0.5,0-0.8-0.2-1.3-0.2c-1.9,0-2.9,0.6-4.8,0.6c-3.2,0-5-0.6-8-1.7c-0.9-0.3-1-1.5-2-1.5c-0.7,0-1.1,0.4-1.8,0.4
	c-0.2,0-0.7-0.1-0.9-0.1l0,0c-2.8-1.4-4.1-3.2-7.1-4c-3.3-0.9-5.3-1.9-7.3-4.6c-1.5-2-3.2-3.1-3.2-5.7c0-1.7,0.8-2.5,1.2-4.1
	c0.5-2,0.4-3.5,1.7-5.1c0.4-0.6,1.1-0.6,1.6-1.2c1.2-1.6,0.3-3.2,1-5.1c0.4-1.1,1.4-1.5,1.4-2.7c0-1.1-0.2-1.7-0.3-2.8
	c-0.6,0-0.9-0.1-1.4-0.1c-1.3,0-3.3,0.3-3.3-1c0-2.5,1.3-3.8,2.2-6.1c0.4-1,0.1-2,0.9-2.6c1.4-1.1,3.5,0,4.2-1.6
	c1-2.3,1.3-3.8,2.9-5.7c0.3-1.7-1.9-2-3.5-2.6c-3.8-1.5-6.2-1.2-10.2-2.4c-2-0.6-4.3-1.2-4.3-3.3c0-4.1,3-5.9,3.4-10h1.4
	c2.1,0,2.8,1.9,4.8,2.4c1.4,0.4,2.2,0.2,3.7,0.2c0.6,0,1-0.6,1-1.2c0-1.5-0.6-2.3-0.9-3.8c-1.7,0.1-2.4,1.5-4.1,1.5
	c-1.4,0-1.4-1.7-2.4-2.6c-1-0.9-2.1-0.6-3.5-0.6c-2.4,0-3.8,0.1-6.1,0.7c-1.8,0.5-2.6,1.7-4.4,1.7c-4.2,0-5.4-4.5-9.6-5
	c-2.3-0.3-3.9-0.7-5.5-2.4c-1-1.2-0.6-2.5-0.6-4.1c0-1.4,0.7-2.1,0.7-3.6c0-1.9-0.7-3-1.9-4.4c-0.5-0.6-1.2-0.8-1.2-1.6
	c0-1.6,1.2-2.3,1.2-3.9c0-2.7,0.9-4.1,0.9-6.8v-2.4c0-1-0.5-1.5-1-2.3c1-1,1.7-1.9,3.1-1.9c1.6,0,2.3,1,3.9,1.5
	c0.8,0.2,1.5-0.3,2.1,0.2c1,0.9,0.6,2.1,0.7,3.6c0.9,0.1,1.3,0.4,2.2,0.4c1.4,0,0.9-2.1,1.2-3.6c0.3-1.8,1.4-2.7,1.4-4.5
	c0-1.2-1.7-0.8-2.7-1.2c-1.5-0.5-2.4-0.8-3.8-1.6c-2.7-1.4-5.1-2-6.1-4.9c-1.9,0.5-2.3,2.1-4.1,2.9c-3.1,1.5-5.3,1.2-8.5,2.5
	c-1.7,0.7-2.4,2.1-4.2,2.1c-1,0-1.5-0.5-2.5-0.5c-1,0-1.1,1.2-2,1.5c-0.4-0.7-0.1-1.5-0.6-2.1c-0.2-0.3-0.8-0.2-0.8-0.5
	c0-1.3,1.3-1.7,1.5-3c-1.9,0.5-2.8,1.6-4.7,1.6c-0.2,0-0.2-0.1-0.4-0.1c0.2-0.5,0.7-0.7,0.7-1.3c0-0.2-0.1-0.3-0.1-0.5
	c-1.5,0-2.3-0.7-3.8-0.7c-0.3,0-0.5,0.3-0.8,0.3c-0.7,0-0.7-1-1.3-1.4c-1.5-1.1-2.6-1.5-3.9-2.8c-1.1-1.2-0.8-3.2-2.4-3.3v-1.8
	c-0.4-0.1-0.7-0.1-1.1-0.1c-1.1,0-1.5,1.3-2.6,1.3c-0.7,0-1-0.4-1.5-0.8l-0.4,0.1c-0.8,1.9-2.7,2.5-4.8,2.5c-2.1,0-2.6-2.8-4.7-2.8
	c-1.9,0-2.2,2-3.8,3c-2.8,1.9-2.4,4.7-4.3,7.5c-1.1-0.5-2.6-0.8-3.8-0.8v0c-1.3-7-7.1-8.9-11.8-14c-1.7-1.8-4-3.5-5-5.7
	c-0.4-1.1-0.9-2.7-0.9-3.9c-0.1-1.5-0.1-2.4,0.7-3.1c1.5-1.1-0.3-5.1,2.6-3.7c0.9,0.4,2.5,2,3,0.2c0.6-1.9,1.6-6.1,4.6-5.3
	c2,0.5,1.6-1.4,2.3-2.6c0.8-1.4,2-0.4,2.7-1.7c1-1.7,2-6.4,3.9-7.3c2.5-1.2,7.7,0.3,10.5-0.9c0.9-0.4,1.7-1.1,2.3-1.9
	c0.7-0.9,1.5-1.6,2.4-2.3c0.5-0.4,1.3-1.3,1.9-1.6c0.4-0.2,0.5-0.7,0.8-1c0.2-0.2,1-1.4,1-1.5c0.2-0.6,0.5-1.5,0.9-2.2
	c1.3-0.4,2.3-0.8,3.5-1.3c3.3-1.3,4.4-4.6,8-4.6c1.6,0,2.6,0.4,4.2,0.4c5.1,0,7.1-4.8,12.2-4.8c2.6,0,4.1,0.8,6.7,0.8
	c3.8,0,5.4-2.5,8.8-4c2.4-1,4.5-0.9,5.9-3.1c1.9-3.2,2.2-5.9,5.2-7.8c2.9-1.8,5.8-1.5,7.5-4.4c1.5-2.6,0.9-4.7,1.5-7.5
	c0.5-2.6,2.1-4,2.1-6.7c0-1.7-1.3-2.5-1.3-4.2c0-5.9,3.8-8.8,3.8-14.7c0-1-1.5-1.1-1.5-2.1c0-0.5,0.6-0.7,0.6-1.3
	c0-1.6-1.7-2.2-1.7-3.8c0-1.2,1.4-1.7,2.5-1.7c0.8,0,1.3,0.6,2.1,0.6c2.3,0,2.9-2.6,4.2-4.6c0.2-0.1,0.3-0.2,0.4-0.4
	c0.7-0.8,0-1.8,0.7-2.5c1.1-1,2.4-0.8,3.8-0.3c3.5,1.3,3.5,6.4,7.2,6.4c1.6,0,2-3.2,3.4-2.4c3,1.7,4.4,3.2,7.5,4.7
	c1,0.5,0.7,1.8,1.3,2.7c1,1.6,2.8,1.1,4.2,2.3c1.6,1.3,2.8,1.7,5.1,3c1.9,0.2,2.7-0.4,3.1-1.4c0.4-1,1.7-1,1.7-2.1
	c0-1.1-0.7-1.6-0.7-2.7c0-1.8,0.2-3,1.3-4.4c1.2,0.5,1.3,2,2.5,2c1.5,0,1.4-1.9,2.4-3c1.3-1.4,2.9-2.1,2.9-4c0-0.4-0.2-0.6-0.2-1v-2
	c0-1,1.1-1.2,1.6-2.1c1.1-2,1.7-3.4,1.7-5.8c0-2.8-0.9-4.3-0.9-7.1v-6.2c0-0.3,0.1-0.8,0.5-0.8c0.6,0,0.9,0.4,1.5,0.5
	c0.3-0.6,0.5-1,0.5-1.7v-0.6c-0.5-0.1-0.8,0-1.4,0c-1.2,0-0.9-1.8-1.9-2.5c-0.6-0.4-1.1-0.1-1.8,0c0-1.3,0.7-1.9,1.3-3
	c3.6-2.8,1.2-8.3,5.2-10.5l0,0c0.5-0.4,0.9-0.6,1.6-0.6c5.1,0,7.6,3.5,10.7,7.5c1.9,2.5,2.9,4.5,5.9,5.8c2.5,1.1,4.4,0.2,6.7,1.7
	c0.9,0.6,0.6,1.7,1.3,2.5c1.2,1.5,1.7,2.7,3.4,3.7c1.5,0.9,3.6,1,3.6,2.7c0,1.2,0.2,2.6-0.9,3c-1.3,0.5-2.4-0.3-3.5,0.5
	c-1.2,0.9-1.3,1.9-2.4,3c0.9,0.7,1.3,1.5,1.6,2.7h2.8c0.4,2.2,0.9,5.3,3.1,4.8c0,1,0.3,1.6,0.6,2.5c0.5-0.3,0.7-0.9,1.3-0.9
	c1.1,0,1.7,0.2,2.8,0.4c1.1,0.3,1,2,2.2,2c0.6,0,0.9,0.4,1.5,0.4c0.9,0,0.8-1.6,1.7-1.6c2.5,0,3.8,1.5,6.3,1.5
	c0.9,0,1.4-0.6,2.3-0.6c3,0,4.7,0.9,7.5,2.1c0.7,0.3,0.7,1.4,1.5,1.4s1.1-0.8,1.9-0.8c2.5,0,3.4,2,5.7,3.3c2,1.1,4.2,0.5,5.3,2.5
	c0.2,0.5,0.2,0.8,0.3,1.3l0.4,0.1c1.8-1.8,1.2-5.3,3.8-5.3c1.2,0,1.6,1.2,2.7,1.2c0.8,0,1.7-0.4,1.7-1.3c0-0.9-0.3-1.5-0.3-2.4v-2.1
	c0.2,0,0.2-0.2,0.4-0.2c1.9,0,2.9,0.6,4.7,0.6c1.7,0,1.6-2.1,2.2-3.7c0.6-1.7,2.2-2.4,2.2-4.2c0-1.5-0.8-2.3-0.9-3.8
	c1.9-0.4,2.9-1,4.8-1c1,0,1.1,1.2,1.6,2.1c0.4,0.9,1.2,1.2,1.5,2.1c0.3,0.9,0.3,2,1.3,2c0.3,0,0.5-0.3,0.8-0.3c1,0,1.5,0.6,2.3,1.3
	h2.2c1.6,0,2.2,1.4,3.5,2.3c1.1-1.7,2.3-2.1,4.1-3c1-0.5,1.1-2,2.3-2c2.5,0,1,5.3,3.6,5.3c1.5,0,2-1.6,3.6-1.6c0.6,0,0.8,0.7,1,1.3
	c0.6,1.1,0.9,1.8,1.4,2.9c0.4,0.9,0.4,2.2,1.5,2.2c0.7,0,1.1-0.3,1.8-0.3C789.7,200.9,790.3,201.3,791.3,201.6L791.3,201.6z"/>
<path fill="#FFFFFF" stroke="#000000" stroke-width="0.2835" stroke-miterlimit="22.9256" d="M990.9,598.8c0.7-0.4,1.2-1,2.2-1
	c0.7,0,0.9,0.7,1.5,0.7c0.6,0,0.7-0.8,1.2-0.8c0.7,0,1,0.1,1.7,0.1c2.5,0,1.9-3.6,3.9-5c1.7-1.2,3.2-0.6,5-1.5l0,0
	c2.2-1.7,4.1-2.6,4.9-5.2c1.8-2.4,4-2.7,5.6-5.3c0.7-1.3,1.3-2,1.7-3.5c0.3-1.1,0.5-2.4,1.7-2.4c0.8,0,1.1,0.7,1.9,0.7
	c1.1,0,1.4-1.1,2.3-1.7c0.7-0.4,1.3-0.6,1.6-1.3c0.4-1,0.3-2.1,1.4-2.4l2.2,0.4h0.8v-2.1c0-1.7,1.6-2.4,1.6-4v-2.6
	c0-1.3,1-1.8,1.5-3c1.1,0.7,1.6,1.4,2,2.6l1.9-0.5c1,0.1,1.7-0.1,2.5,0.4c0.3,0.2,0.3,0.7,0.7,0.7c1.2,0,1.1-2.1,2.3-2.1
	c1.8,0,2.5,1.6,4.3,1.6c1.6,0,2.4-1,4-1c2.3,0,2.1,3.8,4.4,3.8c1.6,0,1.1-3.1,2.7-3.1c1.8,0,2.6,1.4,4.4,1.4c0.3,0,0.3-0.6,0.5-0.7
	c1-0.7,1.9-0.4,3-0.7c-1.2-1.6-2.6-1.8-3.8-3.4c-1-1.3-1-3.4-2.6-3.4c-1,0-1.3,1-2.1,1.6c-0.6-0.7-1.4-1-1.4-2c0-0.9,1.2-0.9,2-1.4
	c2.1-1.4,3.6-1.8,6.2-2.1c1.5-0.2,3.4-0.4,3.4-1.9c0-1.8-1.6-3-3.4-3c-0.6,0-0.9,0.4-1.5,0.4c-1.2,0-1.3-1.4-2.4-1.7
	c0.1-1.3-0.6-1.9-0.6-3.1c0-1,0.7-1.5,0.8-2.5c0.5,0,0.8-0.1,1.3-0.1c0.9,0,0.9-1.2,1.5-1.8c0.7-0.7,2.1-0.4,2.1-1.4
	c0-0.5-0.2-0.9-0.4-1.3l0.1-0.4c1.5-0.4,2.4-0.4,3.9-0.5v-0.8c0-2.2-1.5-4.3-3.7-4.3c-2.5,0-3.7,1.6-6.2,1.6c-1.3,0-1.3-1.8-1.3-3.1
	c0-1.4,1.2-2.1,1.2-3.6c0-1.5-1-2.2-1.6-3.7c-1,0.6-1.7,0.9-2.9,0.9c-0.6,0-0.9-0.1-1.4-0.1c-0.3-2.1-0.1-3.3-0.6-5.3
	c0.8-0.2,1.3-0.1,2.1-0.3c0.8-0.3,0.6-1.3,0.7-2.2c0.2-1.4,0.3-2.1,0.6-3.5c0.1-0.2,0.5-0.6,0.5-0.8c0-1.1-0.6-1.9-1.5-2.5V505
	c2.1,0.2,3.4-0.4,5.5-1c2.1-0.7,0.3-4.6,2.4-5.1c-0.2-2.4-1.2-3.6-1.8-6c-0.6-2.7-0.8-4.2-1.8-6.8c-0.4-1-1.8-0.3-2.5-1
	c-0.9-0.9-1.2-1.7-1.6-2.9c1.8-0.6,3.1-1.8,3.1-3.7c0-1.1-0.7-1.6-0.7-2.7c0-0.5,0.8-0.4,0.8-0.9c0-1.9-1.6-2.7-1.6-4.6
	c0-0.4,0.1-0.7,0.1-1.1c2.4-0.3,3.7-0.5,6.1,0v0.8l-0.5,2.2c0.2,0.8,0.5,1.8,1.4,1.8c1.8,0,2.5-1.5,3.7-2.8c1.4-1.6,2.9-2,5-2
	c1.2,0,1.8,0.6,2.9,0.6c1.4,0,1.8-1.3,2.8-2.2c1.4-1.2,2.4-1.5,3.9-2.5c1.1-0.7,1.2-1.7,2.2-2.5c0.9-0.7,2.2-0.1,2.9-1
	c1.7-2,2.6-3.6,2.6-6.3c0-2.2-1.6-3.3-1.6-5.5c0-1,0.5-2,1.5-2c0.6,0,0.8,0.7,1.4,0.7c1.7,0,2-1.6,3.1-2.8c0.4-0.5,1.1-0.3,1.4-0.8
	c0.8-1.7,0.2-3,1-4.7l-0.1-0.4c-0.5-0.1-0.8-0.2-1.3-0.4c-0.5-0.9-1.1-1.3-1.6-2.2c-0.4-0.7-0.5-1.8-1.4-1.8c-0.5,0-0.7,0.4-1.3,0.4
	c-0.7,0-0.8-0.8-1.5-1.2c0.3-0.7,1-0.9,1-1.7v-2.3c0-1.3-0.8-2-0.8-3.4c0-0.8,0.4-1.2,0.4-1.9c0-0.3-0.1-0.5-0.1-0.8h-1.5
	c0-2.2-1.9-3.8-4.1-4l-8.1,1.8c-4.5-0.3-5.4-5.9-9.9-5.9c-0.8,0-0.7,1.1-0.9,1.8c-1.7-0.3-3.1-0.1-4.2-1.5c-0.5-0.6-0.2-1.5-0.8-1.9
	c-2.6-1.7-4.8-1.1-7.7-2.5c1.3-2.3,3.8-3.1,3.8-5.8c0-0.7-0.2-1.1,0-1.8c1.8,0.3,0.7,3.9,2.5,3.9c1.2,0,1.6-1.3,2.1-2.4
	c0.9-2,2.2-3,4.3-3.6c0.6-0.2,1.1,0.2,1.7-0.1c0.8-0.4,0.8-1.4,1.7-1.6c1.6-0.3,3-1.2,3-2.8c0-1.3-1.5-1.7-1.5-2.9
	c0-0.8,0.9-0.8,1.6-1.2c0-0.3-0.1-0.6-0.1-0.9c0-0.2,0.1-0.3,0.1-0.4c2.9,0,4.3-1.9,7.2-1.9c0.4,0,0.6,0.4,1,0.4
	c0.4,0,0.4-0.7,0.8-0.7c0.9,0,1.4,0.7,2.3,0.7c0.7,0,1.2-0.2,1.9-0.4c1.1,2.6,3.3,4.1,6.2,4.1c0.3,0,0.7-0.1,1-0.1
	c1.8-0.1,5.5-0.7,6.4,1c0.4,0.8,0.6,3.3,0.7,4.3c0.2,1.5,1.3,5,2.7,5.7c1.8,0.9,6.1,2.7,8.1,1.6l2.9-0.2c0.6-1,1.8-0.6,2.6-1.5
	c0.7-0.9-0.4-2.3,0.5-2.9c1.5-0.9,3-1,3.7-2.6c0.9,1.8,0.8,3,1.5,4.8c0.2,0.7,0.3,1.5,1,1.5c1,0,1.5-0.4,2.4-0.4h4.2
	c5.2,0,8.2-0.9,13.3-1.8c4.6-0.8,7.2-0.9,11.6-2.4c-0.6-1-0.9-1.7-1.9-2.4c-0.4-0.6-0.8-0.9-0.8-1.7V395c0-3.8-0.3-6-1.4-9.6
	c-0.4-1.3-2-1.6-2-3c0-2,3.4-1.8,3.4-3.8c0-0.6-0.7-0.6-1-0.9c-1.3-1.3-2.5-2.1-2.5-4v-1.7c0-1.3-1.3-1.9-2.4-2.5
	c-1.3-0.7-2-1.1-3.4-1.7c1.4-1.9,3.4-1.6,5.7-2.3c2.3-0.7,3.3-1.8,5.6-2.5l0.8,0.4c0.9-1.9,2-2.9,2-5c0-0.9-1.3-1.2-1.3-2.1
	c0-2.2,2.4-2.9,2.4-5c0-1-1.2-1-2-1.6l2.9-5.7c-0.4-0.9-1.3-1-2.1-1.7l0.1-0.4c2.6-1,3.1-3.1,5.2-4.9c1.7-1.4,3-1.8,4.5-3.4l0.2,0.2
	c-1.5-1.1-1.9-2.5-3.6-3.3c-1.9-0.9-3.6-0.7-4.8-2.5c-1.6,1.2-2.3,2.8-4.3,2.8c-0.5,0-0.5-0.7-0.8-1c-0.5-0.5-1.6-0.2-1.6-0.9
	c0-0.8,0.6-1.1,1.2-1.7l1-2.2l-2.1-2c0.3-1.1,1.5-1.4,1.5-2.5c0-1-0.9-1.5-0.9-2.5c0-1.3,0.6-2.1,1.6-2.8c0.6-0.4,1.4-0.6,1.4-1.3
	c0-0.8-0.7-1-1.2-1.7c-0.9-1.2-1.3-2-2.1-3.4c-0.2-0.3-0.3-0.5-0.4-0.8v0c-1,1-1.1,2-2.1,3.1c-0.6,0.6-1.7,0.7-1.7,1.6
	c0,1.6,0,2.6-0.7,4.1c-2.1-0.9-3.4-1.4-5.6-2.1c1-1,2.8-1,2.8-2.4c0-0.3-0.1-0.4-0.2-0.6c-0.9,0.1-1.5,0.4-2.4,0.4
	c-1.6,0-2.4-0.9-4-1.3c0.5,3,0.4,6.8,3.4,6.8c0.7,0,1-0.4,1.7-0.4c0.2,0,0.2,0.1,0.4,0.1c-0.8,3.2-2.2,4.6-3.7,7.5
	c-0.8,1.6-0.6,2.8-1.6,4.2c-1.2-0.9-1.2-2-2.1-3c-1.5-1.8-3-2.1-5.2-2.7c-1.8-0.5-1.8-2.3-3-3.7c-0.6-0.7-1.4-0.3-2.2-0.5
	c-0.5-0.2-0.7-0.7-1.3-0.7c-0.8,0-1,1-1.8,1.3c-3.9,1.6-4.4,5.1-8,7.4c-2.3,1.5-3.7,2.1-6.2,3.4c-2.5,1.3-3.9,2.5-6.7,2.5
	c-1.3,0-2-0.5-3.3-0.5c-1.5,0-1.7,1.7-2.1,3.1c-0.5,1.9-0.6,3.1-1.4,4.9c0.8,0.8,0.8,1.4,0.8,2.5c-1.9,0.5-2.6,2.3-4.6,2.3
	c-0.9,0-1.3-0.7-2.2-0.7c-1.3,0-0.8,2.1-1.9,2.8c-0.7,0.5-1.6,0.3-2.1,0.9c-1,1.3-0.2,2.8-1.3,4c-1.5,1.7-1.9,3-3.4,4.6
	c-0.9,1.1-2.1,1.3-2.6,2.6c-0.3,0.8-0.2,1.5-0.8,2.1c-1.5-3-2.8-4.4-5.1-6.6c-1.4-1.3-2.8-1.8-3.5-3.7c-0.3-1,0.1-2.6-0.9-2.6
	c-2,0-3,1.2-4.9,1.2c-0.7,0-1-0.4-1.7-0.4c-3.8,0-5.9,3-7.2,6.6c-0.6,1.5-0.7,2.4-1.5,3.8c-0.8,1.5-1.2,3.4-2.9,3.4
	c-0.3,0-0.4-0.3-0.6-0.3c-1.4,0-1.5,1.7-2.7,2.5c-1,0.7-2.9-0.3-2.9,0.9c0,2.4,2.5,3,4.6,4.2c-1,1.3-0.4,2.8-1.6,4
	c-1,1-2.3,0.4-3.3,1.4c-2.1,2.1-1.2,6.5-4.2,6.5c-3.2,0-3.4-4.7-6.6-4.7c-0.2,0-0.3,0.2-0.4,0.2v1.7c0,2.1,1.5,3,3,4.4
	c0.7,0.6,1.7,0.8,1.7,1.7c0,1-0.6,1.5-0.9,2.5c-1.1,3.3-1.5,5.3-1.5,8.8c0,4.9,1.4,10.5,6.3,10.9c1,0.1,1.9-0.1,2.6,0.5
	c0.9,0.8,0.1,1.8,0.4,2.9c0.8,2.8,1.6,4.2,2.1,7.1v0.8c0,1.6-1.1,3.1-2.6,3.1c-0.4,0-0.6-0.1-1-0.1c0.1,0.8,0.4,1.3,0.4,2.1
	c0,1.3-1.4,1.9-2.7,1.9c0,0.4-0.1,0.7-0.1,1.1c0,2.7-0.4,4.3-1.3,6.8c-0.4,1.3-1.3,1.9-1.3,3.3c0,0.9,0.8,1.3,1.4,2
	c1.4,1.6,2.2,2.8,2.2,4.8c0,4.2-2.8,6.1-5.2,9.5c-0.4,0.7,0.1,1.3-0.2,2.1c-0.5,1.2-1.6,1.2-2.6,2c-1.7,1.3-3.1,1.3-4.6,2.7
	c-3.1,3.1-5.1,6-9.5,6c-1,0-1.5,0-2.5,0l0,0c-2.1,0.7-3.5,0.8-5.6,1.6c-1.2,0.4-1.9,0.6-3.1,0.7c-0.8,0.1-2.1-0.4-2.1,0.4
	c0,0.9,0.4,1.4,0.4,2.3c0,1.1-0.6,2.3-1.7,2.3c-0.3,0-0.4-0.2-0.6-0.2c-0.3,0-0.4,0.1-0.6,0.2c0.1-0.4,0.2-0.7,0.2-1.2
	c0-1-0.8-1.5-0.8-2.5c-2.4,1.3-2,4.4-4.6,5.2c-1.3,0.5-2.4,0.4-3.4,1.5c-0.6,0.7-2,0.6-2,1.6c0,1.8,1.8,2.2,2.5,3.9
	c2.3,5,3.9,8.2,4.3,13.7c0.9,2.7,1,4.3,2.3,6.8c0.8,1.7,1.6,2.6,1.6,4.5c0,1.2-0.6,1.8-0.6,2.9c0,2.5,1.4,3.7,2.3,6
	c1.7,4.3,2.6,7,2.6,11.7c0,5.8-4.3,8.5-4.3,14.4v2.3c0,3.2,4.3,3.7,4.3,6.9c0,0.9-0.4,1.4-0.4,2.3c0,1.4,1.1,1.9,1.7,3.1
	c1.3,2.6,2.9,3.6,4,6.2c-1.4,0.2-2.6-0.5-3.6,0.5c-1.8,1.9-0.9,4.5-2.9,6.1c-0.4,1.3-1,2-1.3,3.3c-0.2,1,0.2,1.9-0.5,2.6
	c-1,1.1-2.4,0.7-3.8,1.5c-1.1,0.7-1,1.8-1.3,3c-0.3,1.4-1.9,1.4-2.9,2.4c-0.8,0.7-0.3,1.8-0.9,2.5c-1.8,2-4.6,2.4-4.6,5.1
	c0,0.5,0.1,0.8,0.1,1.3c0,1.7-1.6,2.4-1.6,4.1C988.5,597.2,989.7,597.7,990.9,598.8L990.9,598.8z"/>
<path fill="#FFFFFF" stroke="#000000" stroke-width="0.2835" stroke-miterlimit="22.9256" d="M621.4,454.3c0.2,0,0.7,0.1,0.9,0.1
	c0.7,0,1.1-0.4,1.8-0.4c1,0,1.1,1.2,2,1.5c3,1.1,4.8,1.7,8,1.7c1.9,0,2.9-0.6,4.8-0.6c0.5,0,0.8,0.2,1.3,0.2h1.5
	c0.1-0.7,0-1.1,0-1.8c0-4.6,5.4-5.9,5.4-10.5c0-1.9-1.6-2.8-1.6-4.7c0-0.7,0.9-0.8,0.9-1.4c0-0.8-0.5-1.2-0.8-1.9
	c-0.9-2.1-1.4-3.7-3.5-4.7c-1.8-0.9-3.3-0.7-5.1-1.5c0.5-1.5,0.6-2.5,0.6-4.1c0-1.7-0.4-2.6-0.4-4.4c0-2.7,2-4,2-6.7
	c0-1.6-0.1-2.4-0.1-4c1.2-0.6,1.9-0.6,3-1.3c1-0.6,0.4-1.8,1-2.7c0.9-1.2,2.1-1.2,3-2.4c1.5-2,1.6-4.9,4.1-4.9c0.4,0,0.6,0.3,1,0.3
	c2.7,0,4.1-1.4,6.8-1.4c1,0,1.4,0.5,2.4,0.5c1.4,0,1.5-2.1,2.9-2.1c2,0,3.2,0.7,4.8,1.8c1.3,0.9,1.5,2.7,3.1,2.7
	c1.3,0,2.1-0.5,3.4-0.5c2.6,0,3.6,2.5,6.2,2.5c0.7,0,1-0.4,1.7-0.4h2.3c0.8,0,1,0.8,1.4,1.5c0.7,1.2,1.2,1.9,2.1,2.9
	c1.4,1.5,3.3,2.3,3.3,4.4c0,2.3-0.6,3.5-0.6,5.8c0,2,1.2,3.9,3.1,3.9c0.9,0,1.2-0.6,2.1-0.8c2.9-0.8,4.6-1.2,7.2-2.4
	c1.7-0.8,2.6-1.8,4.5-1.8c0.8,0,1.3,0.1,2.1,0.1c3.1,0,4.2-2.8,7.3-2.8c0.5,0,1.1,0.1,1.1,0.5c0,0.8-0.5,1.3-0.5,2.1
	c0,2,1.6,2.8,2.7,4.5c0.7,1,1.2,2.2,2.4,2.2c1.2,0,1.7-0.9,2.9-0.9c1.8,0,2.3,2,4.1,2h2.5c1.5,0,1.4-1.9,2.5-2.8
	c2.2-1.9,4.3-1.6,6.6-3.4c0.9-0.6,1.8-0.8,2.2-1.8c0.5-1.4,1.1-2.7,2.5-3c0.2,0,0.3,0.1,0.5,0.1h1.3c1,0,1.5,0.4,2.4,0.4
	c3.2,0,4.3-3.4,7.4-3.4c2.1,0,3.4-0.4,5.3-1.2c0.9-0.4,2.2-0.4,2.2-1.4c0-1.9-1.9-2.7-1.9-4.6c0-1.9,1.6-2.9,3.4-3.6
	c1.2-0.4,1.7-1.4,2.9-1.4c1.4,0,2.2,0.3,3.6,0.3c0.8,0,1.5-0.2,1.9-0.8c0.3-0.5,0.2-1.4,0.8-1.4c1.2,0,1.9,0.2,3.1,0.2
	c2.3,0,5.1-0.5,5.3-2.8c1.6,0,2.6-1.1,3.4-2.5c0.6-1.2,0.9-2.5,2.2-2.5c2.7,0,3.8,2.1,6.3,3.1l0,0c-0.1,0.2-0.2,0.4-0.2,0.6
	c0,1.2,1.5,1.3,2.2,2.3c0.8,1,0.8,2.7,2.1,2.7c2.1,0,3.5-0.4,5-1.8c1.3-1.1,1.8-2.5,3.5-2.5c1.3,0,1.3,2.1,2.5,2.1
	c1.7,0,2.3-1.4,4-1.7c1.3,3.9,3.7,6.9,7.8,6.9c1.7,0,2.2-1.5,3.4-2.7c0.9-0.9,1.6-1.1,2.5-2c1.2-1.2,1.5-2.7,3.1-2.7
	c1,0,1.5,0.8,2.5,0.8c2.4,0,3.3-2.4,5.8-2.4c2.5,0,3.3,2.5,5.8,2.5c2,0,3.1-0.7,5.1-0.9c2.3-0.3,5.7-0.2,5.5-2.6
	c0.5,0,0.8-0.1,1.2-0.1c0.8,0,1.3,0.3,2.1,0.3c1,0,1.5-0.6,2.5-0.6c1.5,0,2.4,0.7,3.9,0.7c0.7,0,1.5-0.4,1.5-1.2
	c0-1.3-0.7-2-0.7-3.4c0-1.6,1.3-2.1,1.7-3.7c0.2-0.8,0.1-2,0.9-2c2,0,3,1.3,5,1.3h2l1.9,0.3c0.7-0.1,1.5-0.3,1.5-0.9
	c0-0.4-0.3-0.6-0.3-1c0-1.9,1-2.9,1.7-4.6c0.5,0.2,0.9,0.3,1.5,0.3c1.1,0,2.1,0.1,2.9-0.7c1.5-0.5,1.7-2.3,3.2-2.3
	c0.9,0,1.3,0.7,2.1,1c2,0.9,3.1,1.5,4.7,2.9c0.4-0.3,0.7-0.5,1.3-0.6c0.6,1.7,0.9,2.6,1,4.4c0.2,1.4,0.4,3.1,1.8,3.1
	c1.6,0,1.8-1.7,3-2.6c1.4,2.7,1.9,5.6,4.8,6.1c2.6,0.4,6.1,0.4,6.1,3c0,0.3-0.2,0.5-0.2,0.8c0,0.4,0.1,0.7,0.1,1.1h1.8
	c0.7,0,1-0.2,1.7-0.2c2.3,0,3.6,0.4,5.9,0.4c2.4,0,3.7-0.7,6.1-0.7c1,0,1.1,1.3,1.4,2.3c0.4,1.7,0.7,2.7,1.4,4.3
	c0.2,0.6,0.3,1.5,1,1.5c0.8,0,1.2-0.7,2-0.7c2.2,0,2,3.8,4.2,3.8c1.5,0,1-2.8,2.5-2.8c1.7,0,3.8,0.4,3.8,2.1c0,1.8-0.4,2.8-0.4,4.6
	c0,3.1,1.6,4.7,1.6,7.8c0,0.6-0.1,1-0.1,1.6c0.6-0.2,0.9-0.3,1.6-0.4c0.5,1.6,0.4,3.7,2.1,3.7c1.7,0,1.9-2.3,3.6-2.3
	c2.1,0,3.2,1,5.3,1.4c1.8,0.3,4.5-0.6,4.5,1.2c0,0.5-0.1,0.8-0.1,1.3c0,1.6,2,1.6,3.5,2.2c-0.8,3.1-2.5,4.7-2.5,7.9
	c0,1,0.4,2.3,1.4,2.3c1.4,0,2.1-1,3.5-1c2.1,0,3.7,1.9,3.7,4.1v2.4c0,1.2,1,1.6,1.7,2.5c2,2.7,4.4,3.7,7.8,3.7h4.6
	c3,0,5.2,1.4,6.7,4c1.1,1.5,1.5,2.6,2.9,3.9l0.4-0.4v-4.1c0.2,0,0.4-0.1,0.6-0.1c0.8,0,1.1,0.8,1.9,0.8c0.6,0,0.6-0.8,0.9-1.3
	c0.7-0.9,1.4-1.3,2.3-2.1c0.6-0.5,0.7-1.5,1.5-1.5c1.4,0,1.5,1.8,1.5,3.2v2.9c0,2.2,1.3,3.3,2.4,5.2c1.1,2,0.5,3.7,1.9,5.6
	c1.7,2.2,3.5,2.8,4.7,5.3l0,0c-2.1,0.7-3.5,0.8-5.6,1.6c-1.2,0.4-1.9,0.6-3.1,0.7c-0.8,0.1-2.1-0.4-2.1,0.4c0,0.9,0.4,1.4,0.4,2.3
	c0,1.1-0.6,2.3-1.7,2.3c-0.3,0-0.4-0.2-0.6-0.2c-0.3,0-0.4,0.1-0.6,0.2c0.1-0.4,0.2-0.7,0.2-1.2c0-1-0.8-1.5-0.8-2.5
	c-2.4,1.3-2,4.4-4.6,5.2c-1.3,0.5-2.4,0.4-3.4,1.5c-0.6,0.7-2,0.6-2,1.6c0,1.8,1.8,2.2,2.5,3.9c2.3,5,3.9,8.2,4.3,13.7
	c0.9,2.7,1,4.3,2.3,6.8c0.8,1.7,1.6,2.6,1.6,4.5c0,1.2-0.6,1.8-0.6,2.9c0,2.5,1.4,3.7,2.3,6c1.7,4.3,2.6,7,2.6,11.7
	c0,5.8-4.3,8.5-4.3,14.4v2.3c0,3.2,4.3,3.7,4.3,6.9c0,0.9-0.4,1.4-0.4,2.3c0,1.4,1.1,1.9,1.7,3.1c1.3,2.6,2.9,3.6,4,6.2
	c-1.4,0.2-2.6-0.5-3.6,0.5c-1.8,1.9-0.9,4.5-2.9,6.1c-0.4,1.3-1,2-1.3,3.3c-0.2,1,0.2,1.9-0.5,2.6c-1,1.1-2.4,0.7-3.8,1.5
	c-1.1,0.7-1,1.8-1.3,3c-0.3,1.4-1.9,1.4-2.9,2.4c-0.8,0.7-0.3,1.8-0.9,2.5c-1.8,2-4.6,2.4-4.6,5.1c0,0.5,0.1,0.8,0.1,1.3
	c0,1.7-1.6,2.4-1.6,4.1c0,1.5,1.2,2.1,2.3,3.1l0,0c-0.4,0.3-0.8,0.5-1.4,0.5c-0.6,0-0.9-0.3-1.5-0.3c-0.8,0-0.8,1-0.8,1.8
	c0,1.5,1.8,2,1.8,3.6c0,5.2-2.2,8.1-2.2,13.3c0,4.2,2.5,8.2,6.7,8.6c0.2,2,1.9,2.8,1.9,4.7c0,1-0.3,1.6-0.3,2.6l-0.1,3.9
	c-0.4-0.3-0.9-0.6-1.5-0.8c-1.5-0.6-2.9,0.2-4.2-0.6c-1.9-1.2-1.4-3.7-3.4-4.8c-3.5-2.1-6.3-1.1-10.1-2.7c-3.4-1.5-4.7-4.6-8.4-4.6
	c-1.4,0-2.7,0-4.1,0c-5.7,0-8,5.2-13.7,5.2c-3.9,0-5.7-3.1-9.6-3.1c-2,0-3.4,0.8-4.9,1.4l0.1,0.8l0.4,1.6c-0.6,1.2-2.1,0.5-2.9,1.5
	c-0.5,0.6-0.2,1.3-0.4,2.1c-0.8-0.3-1.3-0.4-2.1-0.5c-0.8-0.3-1.4-0.8-1.8-1.6c-2.3,0.7-3.6,1.3-5.5,2.7c-0.9,0.7-2.5,0.3-2.5,1.5
	c0,1.1,0.5,1.7,0.5,2.7c0,1.1-0.9,1.5-1,2.6c-0.2,1.1,0.3,2.1-0.5,2.9c-1.1,1.2-2.5,0.8-3.8,1.7c-1,0.7-1.2,2.1-2.4,2.1
	c-1,0-1.4-0.9-2.4-0.9c-1,0-1,1.8-2,1.8c-1.4,0-1.3-1.8-2-3c-0.3-0.6-1.2-0.6-1.2-1.2v-2.1c-1.9,0-3.2,0.1-4.6-1.2
	c-0.7-0.6-0.9-1.7-1.9-1.7c-2.6,0-4,0.8-6.6,0.8c-0.8,0-1.1-0.8-1.9-0.8c-1.7,0-2.9-0.5-4.4,0.2c-0.5,0.2-0.6,1-1.2,1
	c-1.6,0-2.1-1.7-3.7-1.7c-1.2,0-1.2,1.8-2.3,2.2c-1.2,0.4-2.1-0.2-3.4,0.1c-1.2,0.2-1.7,1-2.9,1c-2.9,0-4.8-0.1-7.2-1.6
	c-0.7-0.4-0.5-1.2-1.2-1.7c-0.5-0.4-1.1,0.1-1.7-0.1c-1.9-0.7-3-0.8-5-0.8c-0.9,0-1.1,0.9-2,0.9c-1.1,0-1.2-1.5-2.3-1.5
	c-0.8,0-1,0.9-1.8,1.2c-0.7,0.2-1.2,0.2-1.7,0.6c-0.6,0.5-0.7,1.5-1.5,1.5c-1.2,0-1.9-0.6-2.9-0.9l0,0c-0.5-2.2-1.8-4.2-4-4.2
	c-0.3,0-0.4,0.2-0.6,0.2c-0.3,0-0.4-0.1-0.6-0.2c0.7-4.5,2-6.9,2-11.4c0-2.7-1.8-4.1-1.8-6.8v-3.1c0-1.9-2.5-1.8-4.4-2.4
	c-1.6-0.5-2.2-1.7-3.9-1.8l-0.1-0.4c0.7-2.8,1.7-4.1,2.7-6.8c0.6-1.5,0.8-2.9,2.2-3.6c1.1-0.6,2.5-0.8,2.5-2.1
	c0-1.3-1.2-1.7-1.8-2.9c-0.7-1.6-0.6-2.8-0.6-4.5c0-1.8,2.6-1.9,2.6-3.6v-2.1c0-0.9,0.4-1.4,0.4-2.3c0-2.5-2.4-3.1-4.1-5
	c-1-1.2-0.7-2.5-1.6-3.8c-1.8-2.6-3-4-3.5-7.1c-2.4-3.7-6.3-3.1-10.2-5c-2.4-1.2-2.9-3.3-5-4.8c-1.7-1.2-3.7-1.9-3.7-4
	c0-1,0.3-1.6,0.4-2.7c-3.3,0.3-4.8,1.9-7.9,3.3c-3.6,1.5-5.8,1.6-9.4,3c-0.7,0.3-0.6,1.5-1.4,1.5c-1.1,0-1.7-0.7-2.8-0.7l-7,1H782
	c-2.4,0-1.5,4.6-3.9,4.6c-3.7,0-5.2-3.1-8.9-3.1c-1.4,0-2.3,0.3-3.7,0.3c-2.4,0-4.6-1.1-5-3.5c-2.1,0.7-4.1,1.8-4.1,4.1h-0.7
	c-0.7-0.4-0.8-1.4-1.6-1.4c-0.2,0-0.3,0.2-0.5,0.2v1.4l0.3,1.3v0.8h-1.1c-1.1,0-1.7-0.7-2.4-1.5c-2.2,1.3-3.1,2.4-5.2,3.9
	c-0.7,0.4-0.8,1.4-1.7,1.4c-0.6,0-0.5-0.8-0.7-1.4c-0.4-0.9-1-1.3-1-2.3c0-1.5,0.4-2.3,0.4-3.8c0-2.1-2.2-3.3-4.3-3.3
	c-0.5,0-0.8,0.3-1.3,0.3c-1.3,0-1.8-1-3-1c-2.7,0-4.2,0.6-7,0.6c-2.1,0-3.5-0.3-5.1-1.7c-0.6,0.6-0.8,0.9-1.4,1.5
	c-3.7-3.3-2.5-7.5-5.5-11.4c-1.5,1.5-1.9,2.6-3.5,4c-0.8,0.4-1,1.5-1.8,1.5c-1.4,0-2.4,0.1-3.6-0.7c-0.6-0.4-0.7-1.4-1.5-1.4
	c-2.1,0-0.9,3.5-2.3,5c-0.6,0.6-1.7-0.1-2.2,0.6c-1,1.3-1.8,2-3.3,2.8c-2.4,1.3-2.5,4.3-5.2,4.6c-1.6,0.2-2.6,0.3-4.1,0.8
	c-0.9,0.3-2.1,0.2-2.1,1.2c0,1,0.4,1.5,0.4,2.5c0,2.3-2,4.2-4.3,4.2c-0.4,0-0.6-0.2-1-0.2c-1.1,0-1.2,1.3-2.1,1.9
	c-1.4,1-2.1,2.1-2.3,3.9h-1.2c-1.2,0-2-0.1-3,0.5c-0.5,0.3-0.4,1.1-0.9,1.3c-0.7,0.2-1.2-0.2-1.8,0.2c-1.4,1.1-1.6,2.5-3,3.6
	c-1.2,0.9-2.4,0-3.8,0.3c-0.7,0.2-0.7,1.2-1.5,1.2c-1.4,0-2-0.9-3.4-1.4c-3-1.1-4.2-3.2-5.7-6.1l0,0c2.2-1.5,3.9-1.8,5.7-3.8
	c0.7-0.8,1.5-1.2,1.5-2.3c0-0.3-0.3-0.4-0.3-0.6c0-0.5,0.8-0.3,1.2-0.6c0.8-0.7,0.4-1.8,1.2-2.5c0.8-0.8,2.2-0.9,2.2-2.1
	c0-0.7-0.5-1-0.6-1.7c0.6-3.6,1.6-5.6,3.5-8.6c1.3-2.1,3.5-2.8,3.5-5.2c0-1-0.8-1.4-1.3-2.3c-1.1-2-1.6-3.2-2.9-5
	c1.9-1.9,3.4-2.4,5.5-4.2c1.3-1.1,2.3-1.3,3.4-2.6c0.3-0.4,0.4-1.2,0.9-1.2c1.8,0,1.8,2.8,3.6,2.8c0.4,0,0.7-0.2,1.1-0.2h2
	c0.8,0,1.3-0.8,1.3-1.6c0-3.1-2.9-4.1-5.5-6c-1.4-1-2-2.1-3.7-2.7c-0.9-0.3-1.8-0.1-2.5-0.7c-0.7-0.6-0.4-1.4-0.9-2.1
	c-0.6-0.8-2.2-0.4-2.2-1.5c0-0.7,0.5-0.9,0.5-1.6c0-0.9-1.2-1-1.9-1.6c-1.6-1.2-1.9-2.6-3.1-4.1c-0.9-1-2.3-1.1-2.3-2.4
	c0-1.4,1.9-1.7,1.9-3c0-3.1-4.1-2.8-5.9-5.2v-6.1c-0.5,0-0.8-0.1-1.2-0.1c-1.3,0-1.9,0.7-3.1,1.2c-0.7,0.3-1.2,0.1-1.7,0.6
	c-0.4,0.5-0.1,1.1-0.4,1.7c-0.5,1-1.4,1.3-2.4,1.9c-0.5,0.3-0.7,0.8-1.3,0.8c-1.5,0-1.7-2.3-3.3-2.3c-2.2,0-4.1,1.6-4.1,3.8h-1
	c-1.2,0-2-0.5-2.9-1.4c-0.4-0.5-0.4-1.4-1-1.4c-0.7,0-1.2,0.4-1.9,0.4c-0.9,0-1.4-0.4-2.3-0.5l-2.5,0.5c-1.6-0.2-2.1-1.5-3.4-2.4
	c-0.8-0.6-2-0.9-2-2v-3.4c0-0.7-0.4-1.1-0.4-1.9c0-1.3,1.5-1.7,1.5-2.9c0-4.4-2.8-6.2-3.5-10.6c-0.2-1.9-1.8-2.8-1.8-4.7
	c0-0.9,0.1-1.4,0-2.2c-0.4-0.1-0.6-0.1-0.9-0.1v-1.1c0-4.8,3.8-6.9,3.8-11.7C621.4,455.9,621.4,455.4,621.4,454.3L621.4,454.3z"/>
<path fill="#FFFFFF" stroke="#000000" stroke-width="0.2835" stroke-miterlimit="22.9256" d="M651.6,573.4c1.4,2.9,2.7,5,5.7,6.1
	c1.3,0.5,1.9,1.4,3.4,1.4c0.7,0,0.8-1,1.5-1.2c1.4-0.3,2.6,0.6,3.8-0.3c1.4-1.1,1.6-2.5,3-3.6c0.6-0.4,1.1,0,1.8-0.2
	c0.6-0.2,0.4-0.9,0.9-1.3c1-0.6,1.8-0.5,3-0.5h1.2c0.2-1.8,0.9-2.9,2.3-3.9c0.9-0.6,1-1.9,2.1-1.9c0.4,0,0.6,0.2,1,0.2
	c2.3,0,4.3-1.9,4.3-4.2c0-1-0.4-1.5-0.4-2.5c0-0.9,1.2-0.9,2.1-1.2c1.5-0.5,2.5-0.7,4.1-0.8c2.7-0.3,2.9-3.3,5.2-4.6
	c1.5-0.8,2.2-1.5,3.3-2.8c0.5-0.7,1.6,0,2.2-0.6c1.4-1.5,0.2-5,2.3-5c0.8,0,0.8,0.9,1.5,1.4c1.2,0.8,2.1,0.7,3.6,0.7
	c0.8,0,1-1.1,1.8-1.5c1.5-1.4,2-2.5,3.5-4c2.9,3.9,1.8,8.1,5.5,11.4c0.6-0.5,0.8-0.9,1.4-1.5c1.5,1.4,3,1.7,5.1,1.7
	c2.7,0,4.2-0.6,7-0.6c1.3,0,1.8,1,3,1c0.5,0,0.8-0.3,1.3-0.3c2.1,0,4.3,1.2,4.3,3.3c0,1.5-0.4,2.3-0.4,3.8c0,1,0.7,1.4,1,2.3
	c0.2,0.6,0.1,1.4,0.7,1.4c0.8,0,1-0.9,1.7-1.4c2.1-1.4,3-2.6,5.2-3.9c0.7,0.8,1.3,1.5,2.4,1.5h1.1V561l-0.3-1.3v-1.4
	c0.2-0.1,0.3-0.2,0.5-0.2c0.8,0,0.9,1,1.6,1.4h0.7c0-2.3,1.9-3.4,4.1-4.1c0.4,2.4,2.7,3.5,5,3.5c1.4,0,2.3-0.3,3.7-0.3
	c3.7,0,5.2,3.1,8.9,3.1c2.4,0,1.5-4.6,3.9-4.6h2.2l7-1c1.1,0.1,1.7,0.7,2.8,0.7c0.8,0,0.6-1.2,1.4-1.5c3.6-1.4,5.9-1.5,9.4-3
	c3-1.3,4.6-3,7.9-3.3c-0.2,1-0.4,1.6-0.4,2.7c0,2.1,2,2.8,3.7,4c2.2,1.6,2.6,3.6,5,4.8c3.9,1.9,7.7,1.4,10.2,5
	c0.5,3.1,1.7,4.6,3.5,7.1c0.9,1.3,0.5,2.6,1.6,3.8c1.7,1.9,4.1,2.5,4.1,5c0,0.9-0.4,1.4-0.4,2.3v2.1c0,1.8-2.6,1.9-2.6,3.6
	c0,1.8-0.1,2.9,0.6,4.5c0.6,1.2,1.8,1.6,1.8,2.9c0,1.3-1.4,1.5-2.5,2.1c-1.4,0.7-1.7,2-2.2,3.6c-1,2.7-2,4-2.7,6.8l0.1,0.4
	c1.7,0.1,2.3,1.3,3.9,1.8c1.9,0.6,4.4,0.4,4.4,2.4v3.1c0,2.7,1.8,4.1,1.8,6.8c0,4.5-1.3,6.9-2,11.4c0.2,0.1,0.4,0.2,0.6,0.2
	c0.3,0,0.4-0.2,0.6-0.2c2.2,0,3.5,2,4,4.2l0,0c-0.3-0.1-0.6-0.1-0.9-0.1c-2.9,0-4.4,1.7-6.5,3.8c-0.9,0.9-1.8,1.2-2.4,2.3
	c-0.5,0.8,0,1.6-0.3,2.5c-0.4,1.1-1.3,1.3-2.1,2.1c-0.7-1.6-0.8-2.7-1.5-4.3c-0.3-0.9-0.6-1.9-1.6-1.9c-2,0-3.2,1.2-4.3,2.8
	l-1.7-0.5v3.4c-2.1-0.2-2.9-1.9-5-1.9c-2.6,0-2.5,3.3-4.6,4.8c-0.1,1.8-1.4,2.6-2,4.3c-0.6,1.7-0.2,2.9-1,4.4
	c-0.4,0.8-1.4,1-1.7,1.9c-1,3.3-0.4,6.8-3.7,8.2c-1,0.4-1.2,1.6-2.3,1.6c-1.7,0-2.6-1.3-4.3-1.3c-0.6,0-0.8,0.6-1,1.2
	c-0.6-0.7-0.9-1.7-1.9-1.7c-1.2,0-0.9,1.8-1.5,2.8c-0.9-0.4-1.2-1.1-2-1.7c-1.7,1.3-1.6,2.9-2.3,4.9c-0.9,2.4-2.4,3.1-4.1,5
	c-1,1.1-1.7,1.7-2.9,2.5c-1,0.6-1.4,1.6-2.6,1.6h-2c-2.6,0-5.9,0.6-5.9,3.3c0,1.4,0.7,2.1,0.7,3.5c0,0.9-0.3,1.5-0.3,2.4
	c0,0.6,0.1,0.9,0.1,1.4c0,1.7-1.1,3.3-2.8,3.3c-2.1,0-2.2-2.5-3-4.4c-0.9-2-1.6-3.3-3.1-4.8c-1.1-1.1-1.8-2.3-3.4-2.3
	c-1.7,0-1.6,2.7-3.3,2.7c-1.3,0-1.5-1.7-2.8-1.7h-2.1c-1.2,0-1.7-0.9-2.3-1.8c-0.4-0.6-1.4-0.6-1.4-1.3c0-0.6,0.7-0.8,0.7-1.4
	c0-1.3-1.9-0.9-3.1-0.9c-6,0-9.2,2.1-15,3.8l-0.8-0.2c-1.9-0.9-2.7-2.5-4.8-2.5c-2.6,0-4,1.6-6.6,1.6c-1.2,0-1.4-1.6-2.6-1.6
	c-1,0-1.4,0.9-2.4,0.9c-0.7,0-1-0.3-1.7-0.3c-0.5,0-0.4,0.6-0.8,0.8c-1.1,0.7-1.9,0.8-3.3,0.8c-1.3,0-1.5-1.5-2.4-2.4
	c-0.9-0.9-2.1-1-2.6-2.2c-0.8-1.8-0.1-3.9-1.8-4.8c-3-1.7-5.1-1.9-8.4-2.9c-1.4-0.4-2-1.3-3.5-1.3c-2.2,0-2.5,3.1-4.7,3.1
	c-3.2,0-3.9-3.3-7-4.2c-1.3-0.4-1.7-1.4-2.9-2c-1.8-0.9-3.1-1.3-4.5-2.7h-3.3c-1,0-1.7-0.1-2.4-0.7c-0.3,1.8-2.4,1.8-4.2,1.8
	c-1.5,0-2.5-0.2-3.6-1.3c-1.1,1.9-2.4,3.1-4.6,3.1c-1.6,0-3-0.9-3.1-2.5c-0.8,0.4-1.3,0.5-2.2,0.8l-1.3-0.3
	c-0.8,0.1-1.3,0.2-2.1,0.2c-1,0-1.8-0.5-2.4-1.3c-0.2-0.3-0.2-0.8-0.5-0.8c-0.7,0-1.2,0.5-1.7,0.9l0,0c-3-0.5-4.8-0.5-7.7-1.7
	c-2.3-1-3.3-2.4-5.8-2.9c-0.9-0.2-1.6,0.2-2.5,0c-1.2-0.2-1.7-1-2.8-1c-1.1,0-1.2,1.7-2.3,1.7c-1.2,0-0.5-1.9-1.4-2.6
	c-1.2-1-2.7-0.1-3.8-1.2c-0.9,0.8-1.2,2.2-2.5,2.2c-2.2,0-2.7-2.3-3.7-4.3c-1.7,0.4-2.6,1.2-4.3,1.2h-2.1c-0.7,0-1,0.3-1.8,0.3
	c-1.2,0-1.8-0.4-3-0.4c-1,0-1.9,0.4-2.6-0.3c-0.7-0.7,0.2-1.9-0.5-2.5c-0.5-0.4-1.1-0.2-1.7-0.4c-1.3-0.5-2-1-3.4-1
	c-1,0-0.4,1.4-0.6,2.4c-1,0-1.5-0.1-2.5-0.1c-1.6,0-3.1,0.5-3.7,2c-0.3,0.7,0.1,2-0.7,2c-1,0-1.3-1-2.2-1.3
	c-1.9-0.6-2.9-1.3-4.9-1.3c-0.8,0-1.3,0.5-2.1,0.5c-0.6,0-0.9-0.3-1.5-0.3c-1.1,0-1.2,1.7-2.3,1.7c-1.7,0-1.4-2.6-2.9-3.4
	c-2.3-1.2-4.1-0.4-6.3-1.8c-1-0.7-1.1-2-2.3-2.3c-2.6-0.7-4.2-0.3-6.8-1c-2.4-0.7-3.5-2.4-6-2.4c-2.5,0-3.7,1.8-6.2,1.8
	c-0.2,0-0.4-0.1-0.6-0.1c-1.7-0.4-2.6-1.3-4.3-1.3c-0.7,0-1,0.3-1.7,0.3c-1.8,0-2.6-1.2-4.4-1.2c-0.8,0-1.2,0.2-1.9,0.2
	c-1.9,0-2.8-1.2-4.7-1.2c-1.6,0-2.5,0.4-4.1,0.4h-2.4l-1.9-0.4c-0.7,0.1-1,0.5-1.7,0.5c-1.3,0-2.3-0.2-3-1.3
	c-0.8-1.2-0.3-2.2-0.6-3.7c-0.5,0-0.8,0.1-1.2,0.1c-2.4,0-3.1-2.3-5.4-3.1c-1.5-0.5-2.5-0.6-4-0.6c-1.3,0-2.2,0-3.2,0.7
	c-0.6,0.4-0.3,1.7-1,1.7c-1,0-1.2-1-1.8-1.8c-0.7-0.8-1.4-1.1-2.1-1.9c-0.9-1-1.9-1.3-3-1.4l0,0c-0.1-0.5-0.1-1-0.1-1.5
	c0-1.2-0.1-1.8-0.1-3c0-0.6-0.2-0.9-0.2-1.5c0-1,0.9-1.3,0.9-2.3c0-0.7-0.4-1-0.4-1.7c0-1.1,1.5-1.3,2.6-1.3c0.4,0,0.6,0.4,0.9,0.4
	c0.2,0,0.2-0.3,0.4-0.3c-0.5-2-1.4-3.1-1.4-5.2c0-1.7,1.3-3.3,3-3.3c0.7,0,1,0.6,1.7,0.6c0.8,0,0.9-0.8,1.6-1.2
	c1.2-0.7,2.1-0.2,3.4-0.6c2.4-0.8,3.7-1.6,6.2-1.6c1.3,0,1.5,1.7,2.8,1.7c1.7,0,2.5-1.1,3.8-2.3c1-0.9,2.1-0.5,3.4-1
	c1.3-0.6,1.5-2.1,3-2.1h2c1.2,0,0.9,2.3,2.1,2.3c2.3,0,2.5-2.7,4.3-4.1c0.9-0.7,1.4-1.4,1.6-2.6c0.1-1.8-1.8-2.4-3.5-3.1
	c-1.9-0.8-2.7-1.7-4.4-2.8c-0.8-0.6-1.7-0.6-2.1-1.5c-1.4-2.9-3-4.2-5.7-5.9c-1.5-0.9-3.5-1.3-3.5-3.1c0-0.2,0.2-0.4,0.2-0.6v-4.5
	c0-1.4-0.9-2-1.7-3.1l0.2-0.8c-0.4-2.3-2.5-2.8-4.6-3.9c-2.5-1.3-3-3.3-4.9-5.3c-1.2-1.3-3.6-1.1-3.6-2.8c0-2-0.4-3.2-1.3-5
	c-0.4-0.8-1.2-1.2-1.2-2.1c0-1.2,1.3-1.7,1.3-2.9c0-0.3-0.3-0.5-0.3-0.8c0-3.7,5.3-4.2,5.3-7.9c-2,0.1-3.1,0.3-5,0.3
	c-3.2,0-4-3.3-5.5-6.1c-1.7-3.2-4.1-4.5-7-6.7l0,0c1.5-1.4,1.4-3,2.8-4.5l1.3,0.3c2.8-0.9,4.1-2.2,6.2-4.3c1.1,1.8,1.2,3.1,1.7,5.1
	c0.4,1.6,1,3.4,2.6,3.4c0.8,0,1.3-0.4,2.1-0.4c1.7,0,2.1,1.8,3.8,2.1l3-1c3.6,0.9,5.3,3.3,9,3.3c0.9,0,1.5-0.3,2.4-0.3
	c3.4,0,7.2,0.2,8.1,3.6c0.5,2.1,1.4,3.3,2.9,4.8c1.1,1.1,1.5,2.4,3,2.4c1.9,0,2.3-2.4,4.2-2.4c1.5,0,1.6,1.7,2.5,2.8
	c1.3,1.4,2.1,2.3,3.9,3c1.3,0.6,1.5,2,2.9,2c0.9,0,0.6-1.3,1-2.1c0.6-1,1.7-0.9,2.9-0.9h4c2.1,0,2.6-2.6,4.7-2.6h2.1
	c1.6,0,2.3-0.9,3.8-1.5c2-0.8,3.6,0.2,5.6-0.7c1.4-0.2,3.4-0.1,3.4-1.6c0-1.4-0.3-2.2-0.3-3.6c0-2.4,1.5-3.8,3.6-5
	c1.3-0.7,1.9-1.7,3.4-1.7c1.7,0,1.3,3.3,3,3.3c3.9,0,5.7-2.5,9.5-2.5c1.3,0,1.5,1.4,1.9,2.6c0.7,1.8,1.7,3.3,3.6,3.3
	c1.6,0,2.1-2.1,3.8-1.9c2.5-0.1,3.8-0.2,6.3-0.2c2.3,0,3.1,1.7,5.1,2.6c2.5,1.2,4,1.3,6.7,2.1c1.9,0.6,2.9,1.5,4.9,1.5
	c2.6,0,4-1.3,6.6-1.3c1.8,0,1.8,2.3,3.1,3.5c1.9,1.7,4,0.6,6.6,0.8c-0.3,0.8-0.5,1.3-0.5,2.2v2.1c0,3,1.2,6.5,4.2,6.5
	c1.5,0,2.3-0.7,3.9-0.7c1.6,0,2,1.5,3.1,2.5c1.1,1,2.2,1.7,2.2,3.2v2.6c0,0.8,0.3,1.3,0.3,2.1c0.3,0,0.5,0.1,0.8,0.1l0.8-0.2
	L651.6,573.4L651.6,573.4z"/>
<path fill="#FFFFFF" stroke="#000000" stroke-width="0.2835" stroke-miterlimit="22.9256" d="M415,545.4l1.4,0
	c3.6,0,3.6-5.7,7.2-5.7c0.6,0,0.9,0.5,1.5,0.5c1,0,0.6-1.5,1.2-2.2c0.7-0.9,1.5-1.1,2.6-1.3c1.9-0.2,3.3-1,4-2.7
	c1.4-3.7,3.9-4.8,6.7-7.7c0.8,1,1.1,2.3,2.4,2.3c1.1,0,1.4-1.2,2.5-1.2c1.2,0,1.8,0.6,2.9,0.6c3.1,0,4.4-2.8,7.4-2.8
	c4,0,3.6,6.9,7.5,6.9c1.3,0,1.5-1.7,2.8-1.7c2.5,0,3.6,1.5,5.8,2.6c3.1,1.5,5,2.8,7.4,5.2l0,0c1.5-1.4,1.4-3,2.8-4.5l1.3,0.3
	c2.8-0.9,4.1-2.2,6.2-4.3c1.1,1.8,1.2,3.1,1.7,5.1c0.4,1.6,1,3.4,2.6,3.4c0.8,0,1.3-0.4,2.1-0.4c1.7,0,2.1,1.8,3.8,2.1l3-1
	c3.6,0.9,5.3,3.3,9,3.3c0.9,0,1.5-0.3,2.4-0.3c3.4,0,7.2,0.2,8.1,3.6c0.5,2.1,1.4,3.3,2.9,4.8c1.1,1.1,1.5,2.4,3,2.4
	c1.9,0,2.3-2.4,4.2-2.4c1.5,0,1.6,1.7,2.5,2.8c1.3,1.4,2.1,2.3,3.9,3c1.3,0.6,1.5,2,2.9,2c0.9,0,0.6-1.3,1-2.1
	c0.6-1,1.7-0.9,2.9-0.9h4c2.1,0,2.6-2.6,4.7-2.6h2.1c1.6,0,2.3-0.9,3.8-1.5c2-0.8,3.6,0.2,5.6-0.7c1.4-0.2,3.4-0.1,3.4-1.6
	c0-1.4-0.3-2.2-0.3-3.6c0-2.4,1.5-3.8,3.6-5c1.3-0.7,1.9-1.7,3.4-1.7c1.7,0,1.3,3.3,3,3.3c3.9,0,5.7-2.5,9.5-2.5
	c1.3,0,1.5,1.4,1.9,2.6c0.7,1.8,1.7,3.3,3.6,3.3c1.6,0,2.1-2.1,3.8-1.9c2.5-0.1,3.8-0.2,6.3-0.2c2.3,0,3.1,1.7,5.1,2.6
	c2.5,1.2,4,1.3,6.7,2.1c1.9,0.6,2.9,1.5,4.9,1.5c2.6,0,4-1.3,6.6-1.3c1.8,0,1.8,2.3,3.1,3.5c1.9,1.7,4,0.6,6.6,0.8
	c-0.3,0.8-0.5,1.3-0.5,2.2v2.1c0,3,1.2,6.5,4.2,6.5c1.5,0,2.3-0.7,3.9-0.7c1.6,0,2,1.5,3.1,2.5c1.1,1,2.2,1.7,2.2,3.2v2.6
	c0,0.8,0.3,1.3,0.3,2.1c0.3,0,0.5,0.1,0.8,0.1l0.8-0.2l0.4,0.7l0,0c2.2-1.5,3.9-1.8,5.7-3.8c0.7-0.8,1.5-1.2,1.5-2.3
	c0-0.3-0.3-0.4-0.3-0.6c0-0.5,0.8-0.3,1.2-0.6c0.8-0.7,0.4-1.8,1.2-2.5c0.8-0.8,2.2-0.9,2.2-2.1c0-0.7-0.5-1-0.6-1.7
	c0.6-3.6,1.6-5.6,3.5-8.6c1.3-2.1,3.5-2.8,3.5-5.2c0-1-0.8-1.4-1.3-2.3c-1.1-2-1.6-3.2-2.9-5c1.9-1.9,3.4-2.4,5.5-4.2
	c1.3-1.1,2.3-1.3,3.4-2.6c0.3-0.4,0.4-1.2,0.9-1.2c1.8,0,1.8,2.8,3.6,2.8c0.4,0,0.7-0.2,1.1-0.2h2c0.8,0,1.3-0.8,1.3-1.6
	c0-3.1-2.9-4.1-5.5-6c-1.4-1-2-2.1-3.7-2.7c-0.9-0.3-1.8-0.1-2.5-0.7c-0.7-0.6-0.4-1.4-0.9-2.1c-0.6-0.8-2.2-0.4-2.2-1.5
	c0-0.7,0.5-0.9,0.5-1.6c0-0.9-1.2-1-1.9-1.6c-1.6-1.2-1.9-2.6-3.1-4.1c-0.9-1-2.3-1.1-2.3-2.4c0-1.4,1.9-1.7,1.9-3
	c0-3.1-4.1-2.8-5.9-5.2v-6.1c-0.5,0-0.8-0.1-1.2-0.1c-1.3,0-1.9,0.7-3.1,1.2c-0.7,0.3-1.2,0.1-1.7,0.6c-0.4,0.5-0.1,1.1-0.4,1.7
	c-0.5,1-1.4,1.3-2.4,1.9c-0.5,0.3-0.7,0.8-1.3,0.8c-1.5,0-1.7-2.3-3.3-2.3c-2.2,0-4.1,1.6-4.1,3.8h-1c-1.2,0-2-0.5-2.9-1.4
	c-0.4-0.5-0.4-1.4-1-1.4c-0.7,0-1.2,0.4-1.9,0.4c-0.9,0-1.4-0.4-2.3-0.5l-2.5,0.5c-1.6-0.2-2.1-1.5-3.4-2.4c-0.8-0.6-2-0.9-2-2v-3.4
	c0-0.7-0.4-1.1-0.4-1.9c0-1.3,1.5-1.7,1.5-2.9c0-4.4-2.8-6.2-3.5-10.6c-0.2-1.9-1.8-2.8-1.8-4.7c0-0.9,0.1-1.4,0-2.2
	c-0.4-0.1-0.6-0.1-0.9-0.1v-1.1c0-4.8,3.8-6.9,3.8-11.7c0-1-0.1-1.6-0.1-2.6l0,0c-2.8-1.4-4.1-3.2-7.1-4c-3.3-0.9-5.3-1.9-7.3-4.6
	c-1.5-2-3.2-3.1-3.2-5.7c0-1.7,0.8-2.5,1.2-4.1c0.5-2,0.4-3.5,1.7-5.1c0.4-0.6,1.1-0.6,1.6-1.2c1.2-1.6,0.3-3.2,1-5.1
	c0.4-1.1,1.4-1.5,1.4-2.7c0-1.1-0.2-1.7-0.3-2.8c-0.6,0-0.9-0.1-1.4-0.1c-1.3,0-3.3,0.3-3.3-1c0-2.5,1.3-3.8,2.2-6.1
	c0.4-1,0.1-2,0.9-2.6c1.4-1.1,3.5,0,4.2-1.6c1-2.3,1.3-3.8,2.9-5.7c0.3-1.7-1.9-2-3.5-2.6c-3.8-1.5-6.2-1.2-10.2-2.4
	c-2-0.6-4.3-1.2-4.3-3.3c0-4.1,3-5.9,3.4-10h1.4c2.1,0,2.8,1.9,4.8,2.4c1.4,0.4,2.2,0.2,3.7,0.2c0.6,0,1-0.6,1-1.2
	c0-1.5-0.6-2.3-0.9-3.8c-1.7,0.1-2.4,1.5-4.1,1.5c-1.4,0-1.4-1.7-2.4-2.6c-1-0.9-2.1-0.6-3.5-0.6c-2.4,0-3.8,0.1-6.1,0.7
	c-1.8,0.5-2.6,1.7-4.4,1.7c-4.2,0-5.4-4.5-9.6-5c-2.3-0.3-3.9-0.7-5.5-2.4c-1-1.2-0.6-2.5-0.6-4.1c0-1.4,0.7-2.1,0.7-3.6
	c0-1.9-0.7-3-1.9-4.4c-0.5-0.6-1.2-0.8-1.2-1.6c0-1.6,1.2-2.3,1.2-3.9c0-2.7,0.9-4.1,0.9-6.8v-2.4c0-1-0.5-1.5-1-2.3
	c1-1,1.7-1.9,3.1-1.9c1.6,0,2.3,1,3.9,1.5c0.8,0.2,1.5-0.3,2.1,0.2c1,0.9,0.6,2.1,0.7,3.6c0.9,0.1,1.3,0.4,2.2,0.4
	c1.4,0,0.9-2.1,1.2-3.6c0.3-1.8,1.4-2.7,1.4-4.5c0-1.2-1.7-0.8-2.7-1.2c-1.5-0.5-2.4-0.8-3.8-1.6c-2.7-1.4-5.1-2-6.1-4.9
	c-1.9,0.5-2.3,2.1-4.1,2.9c-3.1,1.5-5.3,1.2-8.5,2.5c-1.7,0.7-2.4,2.1-4.2,2.1c-1,0-1.5-0.5-2.5-0.5c-1,0-1.1,1.2-2,1.5
	c-0.4-0.7-0.1-1.5-0.6-2.1c-0.2-0.3-0.8-0.2-0.8-0.5c0-1.3,1.3-1.7,1.5-3c-1.9,0.5-2.8,1.6-4.7,1.6c-0.2,0-0.2-0.1-0.4-0.1
	c0.2-0.5,0.7-0.7,0.7-1.3c0-0.2-0.1-0.3-0.1-0.5c-1.5,0-2.3-0.7-3.8-0.7c-0.3,0-0.5,0.3-0.8,0.3c-0.7,0-0.7-1-1.3-1.4
	c-1.5-1.1-2.6-1.5-3.9-2.8c-1.1-1.2-0.8-3.2-2.4-3.3v-1.8c-0.4-0.1-0.7-0.1-1.1-0.1c-1.1,0-1.5,1.3-2.6,1.3c-0.7,0-1-0.4-1.5-0.8
	l-0.4,0.1c-0.8,1.9-2.7,2.5-4.8,2.5c-2.1,0-2.6-2.8-4.7-2.8c-1.9,0-2.2,2-3.8,3c-2.8,1.9-2.4,4.7-4.3,7.5c-1.1-0.5-2.6-0.8-3.8-0.8
	v0c0.1,0.7,0.2,1.5,0.3,2.3c0.1,1.3,0.3,4.3,1.4,5.1c1,0.7,5.8,1.3,5.9,1.3c0.1,0,0.2,0,0.3,0.1c0.1,0.1,0.1,0.1,0.2,0.2
	c0.1,0.1,0.1,0.3,0.2,0.5c0.2,0.2,0.8,2.9,0.8,3.3c0,0,0,0,0.1,0.1c0.9,0.2,1.7-1,2.2-0.3c0.8,1,0.5,3.1,1,4.3c1,1.9,1.8,2.7,3,4.4
	c1.2,1.7,2.3,4,3,5.9c0.6,1.5,1.2,4.5,1.8,6.2c-0.1,2.9-2,3.9-3.4,6.1c-1.2,1.9-1.1,3.5-2.7,5.1c-0.8,1.3-1.9,1.6-2.9,2.6
	c-0.7,0.7-0.2,1.6-0.3,2.6c-0.1,0.8-0.6,1.1-0.9,1.8c0.5-0.1,0.8-0.1,1.3,0c-0.1,1,0.1,1.9-0.5,2.6c-0.3,0.3-0.8,0.4-0.8,0.8
	c0,0.7,0.1,1,0,1.7c-2,0.3-3.6,1.6-3.6,3.6c0,2.5,1.8,4.9,4.3,4.9c1.4,0,2.2-0.7,3.7-0.7c1,0,1.4,1,2.4,1c1.7,0,2.3-1.4,3.9-2.1
	c0.4-0.2,0.9,0.2,1.3-0.1c0.7-0.5,1-1.4,1.9-1.4c0.9,0,1.3,0.8,1.9,1.5c0.8,0.9,1.6,1.1,2.5,1.9c2.4,2.1,4.7,3.6,4.7,6.8
	c0,0.7-0.3,1-0.3,1.7c0,3.1,2.7,4.4,2.7,7.5c0,2.7-1.9,3.8-3.1,6.2c-0.3,0.5-0.9,0.7-0.9,1.3c0,0.8,0.1,1.3,0.1,2.1
	c0,1.5-2.1,1.3-3.1,2.4c-0.5,0.6-0.4,1.2-0.4,2c0,1.3,1.3,1.9,1.3,3.2c0,2.9-1.9,4.1-3,6.7c1.1,0.3,2,0.7,2.2,1.8l-0.6,4v3.1
	c0,1.5-2.1,1.1-3.1,2.1c-1.9,1.9-2,3.6-3.9,5.5c-0.3-2.2-0.7-4.8-2.8-4.8c-0.7,0-0.7,1-1.4,1c-2.3,0-3.1-1.8-5.1-2.9
	c-2.4-1.3-4.1-1.7-6-3.7c-0.8-0.9-0.9-1.8-1.7-2.8c-0.8-1.1-1.9-1.2-3.1-1.8c-1.3-0.7-2-1.5-2.3-2.9c-0.2-0.8-0.2-2-1-2
	c-1.1,0-1.7,0.7-2.8,0.7c-2,0-3.3-1.2-4.4-2.8c-1.3-1.9-2.3-3.1-2.3-5.5c0-1.1,1.1-1.4,1.4-2.5c0.3-1.4,0.5-2.5,1.7-3.4
	c0.6-0.4,1-0.8,1.7-0.9c0.5-0.1,1.3,0,1.3-0.5c0-2.3-1.9-3.5-4.1-4.2c-1-0.3-1.8,0.4-2.6-0.2c-0.8-0.7-0.9-1.5-1.3-2.5
	c-0.3-0.8-1.2-1.1-1.2-2c0-0.9,1.3-0.8,1.8-1.6c0.7-1,1.1-1.7,1.2-2.9c-1.4,0.3-2,1.3-3.4,1.3c-2.3,0-2.8-2.9-5.1-2.9
	c-0.5,0-0.8,0.3-1.3,0.3c-0.6,0-0.9-0.5-1.5-0.5h-2.1c-0.5,0-0.8,0.2-1.3,0.2h-2.5c-1.4,0-2,1.4-3.4,1.4c-1,0-1.4-0.5-2.4-0.5
	c-1.2,0-1.7,0.8-2.8,0.9c-0.7,0.1-1.2-0.4-1.7,0c-1.1,0.8-0.9,2-1.6,3.1c-1.1,2-2.3,3-2.4,5.2l-0.4,0.1l0,0c0.1,0.4,0.1,0.9,0.1,1.3
	c0,0.9-0.3,1.4-0.3,2.3v2.1c0,1.5,2,1.4,3.5,1.7c2.7,0.4,4.1,1.2,6.7,2.1c1.8,0.7,4.2,0.7,4.2,2.6c0,0.9-0.9,1-1.6,1.7
	c-1,1-1.5,1.8-2.4,2.9c-0.8,1-2,1.3-2,2.5c0,1.4,2,1.1,2.9,2.2c1.6,1.9,1.5,3.5,2.5,5.8c1.6,3.4,5.3,4.3,5.3,8.1
	c0,0.8-1.1,0.8-1.9,1c-1.3,0.4-1.9,1.6-3.3,1.6c-1,0-1.6-0.3-2.6-0.3c-0.7,0-1,0.1-1.7,0.1c0,0.3-0.1,0.5-0.1,0.8l1,2.8
	c-0.2,1.2-0.7,1.7-1.2,2.7c-0.9,1.9-0.8,3.5-2.5,4.7c-2,1.3-2.6,2.7-4.3,4.4c-0.8,0.8-1.3,1.8-2.4,1.8c-0.9,0-0.9-1.5-1.8-1.5
	c-2.5,0-3.5,2.1-6,2.1c-0.7,0-0.9-0.8-1.7-0.8c-0.5,0-0.5,0.6-0.7,0.9c-0.6,1.1-1.4,1.4-2.6,1.9c-1.2,0.6-1.9,1.4-1.9,2.7
	c0,0.8,1,1,1,1.9v1.3c0,1,1.6,1.1,1.6,2.2c0,0.9-1.2,1-1.8,1.7c-0.9,1-1.3,2.3-2.6,2.3c-1,0-1.4-0.5-2.4-0.5c-1.9,0-3.1,0.3-4.7,1.4
	c-0.7,0.4-0.7,1.3-1.5,1.6c-1.3,0.4-2.2-0.2-3.5,0.1c-0.9,0.2-1.3,0.9-2.2,0.9c-1.2,0-1.5-1-2.5-1.6c-2.2-1.2-3.7-1.1-6-2
	c-0.8-0.3-1.1-0.9-1.9-0.9c-1,0-1.3,0.9-2,1.6c-1.1,1-1.9,1.4-2.8,2.6c-0.7,0.9-0.8,2.3-2,2.3c-0.4,0-0.6-0.4-0.7-0.8
	c-0.6,1-1.5,1.4-2.7,1.4c-1.4,0-0.9-2-1.3-3.4c-2,0.7-2.3,2.6-4.3,3.1c-2.1,0.6-3.7-0.4-5.7,0.6c-1,0.6-1.3,1.8-2.4,1.8
	c-2.4,0-3-3-5.5-3c-1.6,0-1.7,1.9-2.7,3c-1,1.2-2.6,1.7-2.6,3.4c0,1.3,1.3,1.6,2.1,2.5c1.5,1.7,2.1,3,2.1,5.2c0,1.2-0.9,1.7-1.3,2.8
	c-1.1,3-1.9,4.8-1.9,8v2.6c0,2.2,0.9,3.4,1.6,5.4c0.4,1.3,0.2,2.3,1.2,3.4c0.5,0.6,1.2,0.6,1.6,1.3c1.2,1.7,0.8,3.1,1.5,5
	c0.6,1.6,1.2,2.6,1.2,4.3c0.1,1.4,0.5,2.2,1.3,3.4v0c0.1-0.1,0.2-0.1,0.3-0.1c1.6-0.7,2.8,0,4.4-0.6c1.2-0.4,1.5-1.6,2.7-1.6
	c1.8,0,2.7,0.7,4.4,1.3C413.2,542.8,415,543.6,415,545.4L415,545.4z"/>
<path fill="#FFFFFF" stroke="#000000" stroke-width="0.2835" stroke-miterlimit="22.9256" d="M415,545.4c0,0,0,0.1,0,0.1
	c0,1.2-1.6,1.5-2.6,2c-0.3,1-1,1.4-1,2.4c0,3.8-3.8,6.2-7.7,6.2c-0.9,0-1.3-0.5-2.2-0.5c-1,0-1.2,1-2.1,1.6
	c-0.8,0.5-1.9,0.7-1.9,1.7c0,0.9,0.8,1.4,0.8,2.3c0,0.8-0.5,1.3-0.6,2.1l0.9,3.1c0,0.6,0,0.9,0,1.5c0,3.4,5.6,3.3,5.6,6.7
	c0,2.5-3.1,3.1-3.1,5.6c0,1.1,1.3,1.2,2.4,1.5c1.5,0.3,2.5,0.4,3.8,1.3c2.5,1.5,2.6,3.8,4.2,6.3c1-0.4,1.8-0.8,2.3-1.8
	c0.3-0.5,0.4-1.2,0.9-1.2c1.3,0,2,0.6,3.3,0.9c0.8,0.2,1.9-0.1,2.2,0.7c0.2,0.6-0.2,1.2,0.2,1.7c0.9,1.3,2.6,1.5,2.6,3.1
	c0,0.7-0.3,1.1-0.3,1.8c0,1.5,2.2,1.7,2.2,3.1c0,1.1-0.7,1.7-1.3,2.6c-0.8,0.5-1.6,1-1.6,2c0,0.9,0.7,1.2,0.7,2.1
	c0,1.7-0.9,2.4-1.6,4c0.4,0.3,0.7,0.7,1.3,0.7c0.2,0,0.2-0.2,0.4-0.2c3.5,0,5.2,2.2,8.7,2.2c0.4,0,0.7-0.1,1.2-0.2l0.4,0.1
	c0.7,4,1.7,6.1,2.8,10c0.5,1.7,0.2,3,1.4,4.3c1.8,1.9,3.5,2.5,6.1,3c0.8,0.2,0.7,1.1,1.4,1.6c1.9,1.4,3.8,0.2,6,1.2
	c0.7,0.3,0.5,1.2,1,1.7c1,0.8,2-0.1,3.4,0.1c3,0.4,4.1,2.3,6.5,4.1c0.7,0.5,1.4,0.4,2.1,0.9c0.6,0.4,0.7,1.4,1.5,1.4
	c1,0,1.3-0.9,2.3-0.9c0.9,0,1.5,0.2,2.4,0.2c1.9,0,2.6-1.6,4.5-1.6c1.5,0,1.6,2.2,3,2.2c1.3,0,1.8-1.3,3.1-1.3c1.2,0,2.4-0.1,3.4,0
	l0,0c-0.1-0.5-0.1-1-0.1-1.5c0-1.2-0.1-1.8-0.1-3c0-0.6-0.2-0.9-0.2-1.5c0-1,0.9-1.3,0.9-2.3c0-0.7-0.4-1-0.4-1.7
	c0-1.1,1.5-1.3,2.6-1.3c0.4,0,0.6,0.4,0.9,0.4c0.2,0,0.2-0.3,0.4-0.3c-0.5-2-1.4-3.1-1.4-5.2c0-1.7,1.3-3.3,3-3.3
	c0.7,0,1,0.6,1.7,0.6c0.8,0,0.9-0.8,1.6-1.2c1.2-0.7,2.1-0.2,3.4-0.6c2.4-0.8,3.7-1.6,6.2-1.6c1.3,0,1.5,1.7,2.8,1.7
	c1.7,0,2.5-1.1,3.8-2.3c1-0.9,2.1-0.5,3.4-1c1.3-0.6,1.5-2.1,3-2.1h2c1.2,0,0.9,2.3,2.1,2.3c2.3,0,2.5-2.7,4.3-4.1
	c0.9-0.7,1.4-1.4,1.6-2.6c0.1-1.8-1.8-2.4-3.5-3.1c-1.9-0.8-2.7-1.7-4.4-2.8c-0.8-0.6-1.7-0.6-2.1-1.5c-1.4-2.9-3-4.2-5.7-5.9
	c-1.5-0.9-3.5-1.3-3.5-3.1c0-0.2,0.2-0.4,0.2-0.6v-4.5c0-1.4-0.9-2-1.7-3.1l0.2-0.8c-0.4-2.3-2.5-2.8-4.6-3.9
	c-2.5-1.3-3-3.3-4.9-5.3c-1.2-1.3-3.6-1.1-3.6-2.8c0-2-0.4-3.2-1.3-5c-0.4-0.8-1.2-1.2-1.2-2.1c0-1.2,1.3-1.7,1.3-2.9
	c0-0.3-0.3-0.5-0.3-0.8c0-3.7,5.3-4.2,5.3-7.9c-2,0.1-3.1,0.3-5,0.3c-3.2,0-4-3.3-5.5-6.1c-1.7-3.2-4.1-4.5-7-6.7l0,0
	c-2.5-2.5-4.3-3.7-7.4-5.2c-2.2-1.1-3.3-2.6-5.8-2.6c-1.3,0-1.5,1.7-2.8,1.7c-4,0-3.6-6.9-7.5-6.9c-3.1,0-4.4,2.8-7.4,2.8
	c-1.2,0-1.8-0.6-2.9-0.6c-1.1,0-1.4,1.2-2.5,1.2c-1.3,0-1.7-1.3-2.4-2.3c-2.9,2.9-5.3,3.9-6.7,7.7c-0.7,1.8-2.1,2.5-4,2.7
	c-1.1,0.1-1.9,0.4-2.6,1.3c-0.6,0.7-0.2,2.2-1.2,2.2c-0.6,0-0.9-0.5-1.5-0.5c-3.6,0-3.6,5.7-7.2,5.7L415,545.4L415,545.4L415,545.4z
	 M466,418.3c0.1,0.4,0.1,0.9,0.1,1.3c0,0.9-0.3,1.4-0.3,2.3v2.1c0,1.5,2,1.4,3.5,1.7c2.7,0.4,4.1,1.2,6.7,2.1
	c1.8,0.7,4.2,0.7,4.2,2.6c0,0.9-0.9,1-1.6,1.7c-1,1-1.5,1.8-2.4,2.9c-0.8,1-2,1.3-2,2.5c0,1.4,2,1.1,2.9,2.2
	c1.6,1.9,1.5,3.5,2.5,5.8c1.6,3.4,5.3,4.3,5.3,8.1c0,0.8-1.1,0.8-1.9,1c-1.3,0.4-1.9,1.6-3.3,1.6c-1,0-1.6-0.3-2.6-0.3
	c-0.7,0-1,0.1-1.7,0.1c0,0.3-0.1,0.5-0.1,0.8l1,2.8c-0.2,1.2-0.7,1.7-1.2,2.7c-0.9,1.9-0.8,3.5-2.5,4.7c-2,1.3-2.6,2.7-4.3,4.4
	c-0.8,0.8-1.3,1.8-2.4,1.8c-0.9,0-0.9-1.5-1.8-1.5c-2.5,0-3.5,2.1-6,2.1c-0.7,0-0.9-0.8-1.7-0.8c-0.5,0-0.5,0.6-0.7,0.9
	c-0.6,1.1-1.4,1.4-2.6,1.9c-1.2,0.6-1.9,1.4-1.9,2.7c0,0.8,1,1,1,1.9v1.3c0,1,1.6,1.1,1.6,2.2c0,0.9-1.2,1-1.8,1.7
	c-0.9,1-1.3,2.3-2.6,2.3c-1,0-1.4-0.5-2.4-0.5c-1.9,0-3.1,0.3-4.7,1.4c-0.7,0.4-0.7,1.3-1.5,1.6c-1.3,0.4-2.2-0.2-3.5,0.1
	c-0.9,0.2-1.3,0.9-2.2,0.9c-1.2,0-1.5-1-2.5-1.6c-2.2-1.2-3.7-1.1-6-2c-0.8-0.3-1.1-0.9-1.9-0.9c-1,0-1.3,0.9-2,1.6
	c-1.1,1-1.9,1.4-2.8,2.6c-0.7,0.9-0.8,2.3-2,2.3c-0.4,0-0.6-0.4-0.7-0.8c-0.6,1-1.5,1.4-2.7,1.4c-1.4,0-0.9-2-1.3-3.4
	c-2,0.7-2.3,2.6-4.3,3.1c-2.1,0.6-3.7-0.4-5.7,0.6c-1,0.6-1.3,1.8-2.4,1.8c-2.4,0-3-3-5.5-3c-1.6,0-1.7,1.9-2.7,3
	c-1,1.2-2.6,1.7-2.6,3.4c0,1.3,1.3,1.6,2.1,2.5c1.5,1.7,2.1,3,2.1,5.2c0,1.2-0.9,1.7-1.3,2.8c-1.1,3-1.9,4.8-1.9,8v2.6
	c0,2.2,0.9,3.4,1.6,5.4c0.4,1.3,0.2,2.3,1.2,3.4c0.5,0.6,1.2,0.6,1.6,1.3c1.2,1.7,0.8,3.1,1.5,5c0.6,1.6,1.2,2.6,1.2,4.3
	c0.1,1.4,0.5,2.2,1.3,3.4v0c-1,0.5-1.6,1.1-2.7,1.1c-0.8,0-1.1-0.7-1.9-0.7c-1.7,0-3.2,0.5-3.8,2c-0.5,1.3-1.1,2.6-2.5,2.6
	c-1.5,0-2.4-0.5-3.9-0.5c-1.2,0-0.9,1.8-2,2.3c-1.6,0.7-2.9,0.4-4.7,0.4c-0.9,0-1.3-0.5-2.1-0.5c-0.8,0-1,0.9-1.7,1.4
	c-1,0.7-1.9,0.3-2.9,0.7c-0.7,0.3-0.7,1.1-1.2,1.7c-0.4-0.2-0.6-0.4-1-0.4c-2.6,0-3.8,1.9-5.9,3.5c-2.9,2.1-4.8,3-8.3,4.1
	c-1.9,0.6-2.5,2.3-4.4,2.3h-2.7c-0.4,0-0.7-0.2-1.1-0.2c-3.2,0-3.7,4.6-6.9,4.6c-2.3,0-3.8-1.2-4.9-3.1c-0.6-1.1-1-2.3-2.3-2.3
	c-2.3,0-3.5,0.8-5.8,0.8c-0.9,0-1.4-0.7-1.7-1.5c-1.3-1.7-2.8-2.9-4.9-2.9c-1.5,0-2.2,1.2-3.7,1.6l-0.8-0.2
	c-0.7,0.5-0.6,1.3-1.3,1.9c-0.9,0.9-2,0.6-3,1.3c-0.8,0.5-1,1.3-1.9,1.3c-0.9,0-1-1.1-1.6-1.9c-1.6-2.2-3.2-3.7-5.9-3.7
	c-2.2,0-3,1.8-4.4,3.5c-0.6,0.8-1.8,0.1-2.5,0.7c-0.7,0.6-0.5,1.4-0.9,2.2c-1,1.7-2.1,2.8-4.1,2.8c-1.9,0-3.4,0.5-4.7-0.7
	c-1.8-1.7-2-4.6-4.5-4.6c-1.1,0-1.6,0.8-2.6,1.3c-0.6-1-1.5-1.5-2.7-1.5c-1.2,0-1.2,1.8-2.4,1.8c-0.7,0-1.2-0.3-1.9-0.3
	c-1.2,0-1.7,1.3-2.9,1.3c-0.3,0-0.5-0.3-0.8-0.3c-3.5,0-4.7,3.6-8.2,3.6c-1.2,0-1.7-1.2-2.9-1.2c-0.7,0-1,0.6-1.7,0.8
	c-0.9,0.4-2,0.3-2.4,1.3c-0.7,1.5,0.4,2.8-0.3,4.3c-0.9,1.8-2.4,2.6-4.4,2.6c-1.3,0-1.9-0.8-3.1-0.8c-0.2,0-0.3,0.2-0.5,0.2
	c0,1.6,0.6,3.9-0.9,3.9c-0.5,0-0.8,0-1.4,0c0,1.4,0.3,2.2,0.3,3.6c0,5.3-4,7.7-4,12.9c0,1.7,1.3,2.5,1.3,4.1c0,1.1-1.5,0.9-2.3,1.6
	c-0.8,0.6-0.8,1.4-1.6,2c-0.8,0.6-1.8,0.5-2.1,1.5c-1,3-0.9,5.1-2.8,7.7c-0.3-0.2-0.6-0.4-0.8-0.7c-1.2,0-1.8,0.2-2.9,0.2
	c-2.2,0-3.3-1.4-5.6-1.4c-1.1,0-1.7,0.4-2.8,0.4c-1.2,0-1.8-0.5-3-0.5c-2.6,0-3.5,2.5-6.1,2.5c-2.5,0-3.9-1-6-2.4
	c-0.8-0.5-1-1.4-2-1.4c-0.9,0-1,1.4-1.9,1.4c-2.8,0-2.9-4.4-5.8-4.4c-2.9,0-4.2,2.1-7,2.1c-0.6,0-1.2-0.5-1.2-1.2
	c0-2.6,2.2-3.5,3.6-5.7c0.3-0.5,1-0.6,1-1.3c0-0.7-0.8-0.8-1.4-1.4c-1.9-1.9-3.1-2.9-5.6-4.1c-1.3-0.6-1.2-1.9-2.1-3
	c-0.9-1-1.8-1.2-2.9-2c-0.7-0.5-0.8-1.6-1.7-1.6c-1.7,0-2.3,1.5-3.9,2.1c-2.5,0.9-4.3,0.4-6.8,1.5c-0.9,0.4-0.6,1.5-1.4,2.1
	c-1.1,0.9-2.1,0.8-3.4,1.4c-0.7,0.3-1.1,0.8-1.9,0.8c-0.4,0-0.6-0.1-1-0.1v-0.7c0.3-0.7,0.5-1,0.6-1.8c-1.5,0.6-2.3,1.3-3.9,1.3
	h-2.3c-2.1,0-3.9-0.4-4.8-2.3l-1.5,0.7l0,0c-0.3-3.2-0.4-5-0.4-8.2c0-1.2,0.9-1.7,1.4-2.7c0.4-0.9,0.1-1.6,0.3-2.5
	c0.2-0.8,1-1,1-1.8v-3c0-1.2-1-1.7-2-2.2c-1.8-0.9-2.7-1.5-4.6-2.1c-1.5-0.4-3.2-0.4-3.5-2l0.4-3.4c-0.4-1.5-1.4-1.9-2.4-2.9
	c-0.9-0.9-1.1-2.2-2.3-2.2c-0.9,0-1,1.2-1.8,1.5c-0.6,0.4-0.6,0.9-1.3,0.9c-1,0-1.5-0.6-2.5-0.6c-1.4,0-1.4,1.7-1.9,2.9
	c-1.3,3-1.7,6.8-5,6.8c0,1-0.4,1.5-0.4,2.5c0,0.9,0.7,1.2,0.7,2.1c0,0.7-1,0.4-1.6,0.6c-0.7,0.3-1.1,0.7-1.9,0.7
	c-1,0-1.3-0.9-2.3-0.9c-1.7-0.1-3.1,0.2-4.1-1l-0.4,0.1c-0.7,2.9-0.9,4.7-1.8,7.5c-0.2,0.7-1.3,0.7-1.3,1.5c0,1.2,1.2,1.7,1.2,2.9
	c0,2.4-2.7,3.4-5,3.4c-2.9,0-3.5,3.7-6.4,3.7c-1.1,0-1.7-0.4-2.7-0.4c-0.2,0-0.5,0-0.7,0.1l0,0c-0.9-1.7-0.9-3-1.8-4.7
	c-0.6-1-2.1-0.9-2.1-2.1c0-1.3,0.5-2,0.5-3.4c0-2.9-1.7-4.4-1.7-7.3c0-2.8,2.6-3.6,4.1-6c1.4-2.3,1.2-4.1,2.2-6.6
	c0.4-1.2,2.1-1.3,2.1-2.6c0-3.1-3.9-3.8-3.9-6.9c1.2-2.3,4-2.8,4-5.3c0-2.7-3.8-3.1-3.8-5.8c0-2.6,1.8-3.7,3-6.1
	c0.7-1.4,1.4-1.9,2.3-3c0.4-0.6,0.6-1.4,1.3-1.4c0.7,0,0.8,0.9,1.4,1.3c0.6-1.1,0.2-2.1,1.2-2.9c0.8-0.6,2.3-0.2,2.3-1.2
	c0-0.6-0.6-0.9-0.6-1.5c0-0.9,1.3-0.6,1.9-1.2c0.5-0.4,0.5-1,0.5-1.7c0-1.1-1.9-1-1.9-2.2v-3.1c0-1.7-0.9-2.5-1.5-4.2
	c1.4-0.7,2.3-1.6,2.3-3.1v-1c0-1.2-0.1-1.9-0.1-3.1c0-1-0.8-1.9-1.8-2c0.1-1.9,2.9-1.9,2.9-3.8c0-1.3-1.6-1.2-2.8-1.6
	c-1.5-0.4-2.4-0.7-3.8-1.5c0.3-0.4,0.6-0.5,0.8-0.9l0,0c1.3-0.3,1.9-1,3.3-1c1.9,0,3.3-0.1,4.8,1c0.6-1,0.8-2.1,2-2.3
	c0.6-0.1,1.1,0.2,1.7-0.1c1.2-0.6,1.5-2,2.8-1.9c2.8,0.2,3.3-3.3,6.1-3.7l1.9,0.3c0.6-0.4,0.8-0.9,1.4-1.4c0.6-0.5,1.6-0.5,1.6-1.3
	c0-0.5-0.3-0.8-0.3-1.3c0-2.1,1.6-3.1,3.4-4.4c1.3-0.9,1.5-2.1,2.4-3.5c0.8-1.2,0.7-2.2,1.5-3.5c1.3-2,3-2.2,5.2-2.9l0.8,0.1v0.3
	c-0.1-1.2-0.3-1.9-0.3-3.1c0-1.9,1.1-2.8,1.4-4.6c1.6,0,2.3-1.2,3.5-2.2c0.6-0.6,1.8-0.4,1.8-1.3c0-2.4-0.6-3.7-1.2-6.1
	c-0.5-2,0.2-3.8-1.3-5.1c-0.9-0.8-1.9-0.3-3.1-0.5c0-1.8-0.8-2.6-0.8-4.4c0-1.4,0.5-2.3,0.5-3.7c1.1-2.9,1.9-4.6,1.9-7.7
	c0-1.5-2.3-1.7-2.3-3.2v-2.1l-0.2-0.8c0.5-0.3,0.9-0.4,1.5-0.4c0.4,0,0.6,0.2,1,0.2c1.5,0,2.3-0.8,3.8-0.9c0,0.2,0.2,0.2,0.2,0.4
	c0,0.6-0.6,0.7-0.7,1.3c-0.7,2.3-1.5,3.5-1.8,5.9c4.1,0.6,5.7,4.2,9.8,4.2c1.4,0,2.2-0.5,3.6-0.6l3,0.5c2-0.3,1.8-2.8,2-4.8
	c1.3,0,2-0.8,2.8-1.8l2.3,0.4c0.4-0.1,0.6-0.3,1-0.3c1.4,0,2,1.3,3.5,1.3h2.7c1.5,0,2.9-0.4,3.9,0.7c0.4,0.5,0.1,1.2,0.6,1.7
	c0.8,0.8,1.6,0.5,2.5,1c1,0.6,1.3,1.7,2.4,1.8c2.2,0.3,4.5-0.9,5.6,0.9c1,1.8,1.1,4.2,3.1,4.2c0.7,0,0.8-0.7,1.4-0.9
	c1.1-0.4,2,0.3,2.9-0.3c0.7-0.5,0.5-1.3,1.2-1.9h3.4c2.3,0,3.1-2.1,5.4-2.1c1.1,0,1.9-0.3,2.7,0.4c0.9,0.8,0.5,2,1.2,3
	c0.6,0.9,1.7,0.3,2.5,1c-1.9,2.6-6.7,1.6-6.7,4.8c0,1.5,0.3,3.5,1.8,3.5c1.3,0,2-0.5,3.3-0.5c0.8,0,1.3,0.2,2.1,0.2h2.3l0.4,0.2
	c-0.2,0.9-0.9,1.3-0.9,2.3c0,1,1.3,1,2,1.8c2.6,3.1,6.5,4.1,6.5,8.2c0,1.3-1.8,1.6-1.8,2.9c0,0.3-0.1,0.5-0.1,0.8
	c0,2.5,2.8,3.6,5.2,3.6c0.7,0,1-0.4,1.7-0.4c0.9,0,1.4,0.3,2.1,0.8c0.4-0.4,0.5-0.9,1-1.3l2.1,0.4c0.9-0.1,1.4-0.2,2.2-0.2h6.3
	c1.2,0,2.9-0.1,2.9-1.3c0-0.5-0.1-0.8-0.1-1.2c0-0.9,1.2-0.7,1.9-1.2c1.8-1,2.8-1.6,4.6-2.4c1.5-0.7,2.5-0.7,4-1.4
	c1-0.5,1.4-1.6,2.5-1.6c1.3,0,1.8,1.2,3.1,1.2c1.2,0,2.9-0.9,2.9,0.2c0,3-3.1,3.7-4.3,6.5c0.2,0.1,0.4,0.3,0.6,0.3
	c0.7,0,1-0.5,1.7-0.5c0.9,0,1.2,0.8,2.1,0.8c1.6,0,2.4-0.7,3.9-1.2c1.4-0.4,2.8-0.8,2.8-2.3c0-0.8-0.3-1.2-0.3-2v-1.9
	c1.1-0.1,1.7,0.2,2.7,0c0.8-0.1,0.7-1.3,1.5-1.5c0.6-0.2,1,0,1.7-0.1c0.2-1.6,1.5-2.7,3-2.7c1.2,0,1.7,0.9,2.9,0.9
	c0.7,0,0.7-1,1.4-1.2l1.9,0.5l2.3-0.3c0.4,0.1,0.7,0.3,1.1,0.3c0.3,0,0.5-0.1,0.8-0.1c-0.7-1.5,0-4-1.7-4h-2.6
	c-0.9,0-1.6-0.9-1.6-1.8c0-1.2,1.5-1.2,2.3-2c2.5-2.5,4.5-3.8,6.1-7c2,1.5,3.6,2,6.1,2c1.7,0,2.8,0.3,4.4-0.2
	c0.8-0.2,1.1-0.9,1.9-0.9c1.1,0,1.6,0.7,2.7,0.7c1.3,0,1.8-0.9,2.9-1.4c1.2-0.4,2.3-0.2,3-1.2c1-1.2,0.4-2.4,0.5-4
	c0.1-1.9,0.8-2.9,0.8-4.7c0-1,1-1.4,1.4-2.3c0.6-1.3,0.5-3.1,1.9-3.1c0.4,0,0.6,0.2,1,0.2c1.8,0,2.1-2.3,3.9-2.3
	c1.9,0,2.8,1.5,4.7,1.5c2.9,0,4.4-1.4,7.2-1.4c0.8,0,1.3,0.2,2.1,0.2h2.1c0.6,0,0.8-0.2,1.4-0.3c3.5,0.6,5.5,0.8,9,1.4
	c1.1,0.2,1.6,0.8,2.7,0.8c1.1,0,1.7-0.7,2.8-0.7v-4c2.6,0,3.8-1.8,6.3-1.8c0.6,0,0.9,0.3,1.5,0.3c0.8,0,0.9-1,1.7-1h2.5
	c1.9,0,3-0.8,5-0.8c1,0,1.4,0.5,2.3,0.9c0.3-1.8,2.4-2.2,4.2-2.2c1.3,0,1.1,2.4,2.4,2.4c1.2,0,1.7-1,2.8-1c0.6,0,0.9,0.5,1.5,0.5
	c0.7,0,0.8-1,1.5-1c1.9,0,2.5,1.8,4.4,1.8c0.6,0,0.9-0.3,1.5-0.3h2c1.4,0,1.8,1.7,3.2,1.7c2.4,0,3.2-2.4,5.6-2.4
	c1.4,0,1.5,1.8,1.6,3.1c1.8-1.2,4.8-0.7,4.8-2.8c0-4.1-2.6-5.4-4-9.2c-1.4-3.7,0.3-6.5-1.5-10.1c0-0.1-0.1-0.1,0.1-0.8
	c2.1-1.3,3.5-0.8,5.4-1.7c3.3-1.5,2.7-6.6,6.3-6.6c0.9,0,1.4,1,1.4,2c0,3-3,4.1-3,7.2c0,1.7,1,2.4,2,3.7c0.5,0.6,0.8,1.4,1.6,1.4
	c1.2,0,1.2-1.5,2.2-2.3c1.1-0.8,2.2-0.3,3.5-0.6c1.5-0.4,2.3-1.3,3.9-1.3c0.9,0,0.9,1.4,1.8,1.4c0.6,0,0.9-0.4,1.5-0.4
	c1.3,0,1.7,1.3,2.9,1.6l8.6-2.6c2,0.2,1.9,2.6,2.6,4.5c0.4,1.1,1.4,1.3,1.9,2.4c1.4,3.4,3.1,4.7,5.8,7.3c0.3,0.8,0.4,1.9,1.3,1.9
	c2.9,0,3.9-3.1,6.8-3.1C463.5,417.3,464.4,417.7,466,418.3L466,418.3z"/>
<path fill="#FFFFFF" stroke="#000000" stroke-width="0.2835" stroke-miterlimit="22.9256" d="M102,500c-0.2,0.4-0.6,0.5-0.8,0.9
	c1.4,0.8,2.3,1,3.8,1.5c1.2,0.3,2.8,0.3,2.8,1.6c0,1.9-2.8,1.9-2.9,3.8c1,0.1,1.8,0.9,1.8,2c0,1.2,0.1,1.9,0.1,3.1v1
	c0,1.5-0.9,2.4-2.3,3.1c0.6,1.7,1.5,2.4,1.5,4.2v3.1c0,1.1,1.9,1,1.9,2.2c0,0.7,0,1.2-0.5,1.7c-0.6,0.6-1.9,0.3-1.9,1.2
	c0,0.6,0.6,0.9,0.6,1.5c0,1-1.5,0.5-2.3,1.2c-0.9,0.8-0.6,1.9-1.2,2.9c-0.6-0.3-0.7-1.3-1.4-1.3c-0.7,0-0.9,0.8-1.3,1.4
	c-0.9,1.2-1.6,1.7-2.3,3c-1.2,2.4-3,3.4-3,6.1c0,2.7,3.8,3.1,3.8,5.8c0,2.6-2.8,3-4,5.3c0,3.1,3.9,3.8,3.9,6.9
	c0,1.3-1.7,1.4-2.1,2.6c-1,2.5-0.8,4.3-2.2,6.6c-1.5,2.4-4.1,3.1-4.1,6c0,2.9,1.7,4.4,1.7,7.3c0,1.3-0.5,2-0.5,3.4
	c0,1.2,1.5,1.1,2.1,2.1c0.9,1.7,1,3,1.8,4.7l0,0c-1.2,0.3-1.9,1.2-3.3,1.2c-2.8,0-2.8-3.7-5.3-4.7c-1.2-0.5-2.1-0.1-3.4-0.6
	c-1.1-0.5-0.5-1.8-0.9-2.9c-0.5-1.4-2-1.4-3.3-2.3c-0.9-0.7-0.9-1.8-1.9-2.3c-1.5-0.7-2.6-0.4-4.2-0.9c-1-0.4-0.7-1.6-1.4-2.5
	c-0.5,0.2-0.7,0.7-1.3,0.7c-0.7,0-1-0.7-1.7-0.7c-0.9,0-1.3,0.7-2.2,0.7c-2.4,0-3.4-1.6-5.5-2.7c-1.2-0.6-1.6-1.5-2.8-2
	c-0.9-0.3-2.2-0.3-2.2-1.3v-3.9c0-0.6-0.8-0.7-0.8-1.3c0-1.8,0.3-3,1.4-4.4c0.7-0.9,2-1,2-2.2c0-0.9,0-1.9-0.8-2.3
	c-1-0.4-2.5-0.4-2.5-1.6c0-1.1,0.9-1.5,1.4-2.6c-0.9,0.1-1.4-0.1-2.3-0.1c-1.9,0-2.5,1.9-4.4,1.9c-2.8,0-3.8-2.2-6.2-3.8
	c-0.9-0.6-1.1-2-2.2-2h-2.3c-0.9,0-1.4,0.2-2.2,0.2c-0.5,0-0.4-0.6-0.8-0.8c-1.2-0.8-2.3-0.1-3.8-0.4c-1.3-0.3-1.4-1.5-2.5-2.2
	c-0.7-0.4-1.3-0.1-2.1-0.4c-1-0.4-1.2-1.8-2.3-1.8c-1.9,0-2.8,1.4-4.6,1.4c-0.3,0-0.6-0.1-0.8-0.2l-0.4,0.2c0.1,0.7-0.2,1.7-0.9,1.7
	c-1.9,0-2.6-1.5-3.9-2.7l0,0c0.3-1.4,0.3-2.4,0.8-3.8c0.6-1.4,2.6-0.6,3.5-1.9c0.5-0.7,0.2-1.3,0.2-2.1c0-0.9-0.1-1.6-0.7-2.1
	c-0.4-0.4-1.3-0.3-1.3-0.9c0-1.8,0.3-3.1,1.6-4.4l-0.1-0.4c-1.6-0.7-1-2.7-2-4.1c-0.8-1.2-2.1-0.9-3.3-1.8c-1.4-1-1.5-2.9-3.3-2.9
	c-0.4,0-0.7,0.3-1.1,0.3c-0.2,0-0.3-0.1-0.5-0.1c0.6-1.7,0.6-2.7,1.3-4.3c0.4-0.9,1.4-1.1,1.4-2.1c0-3.1-2.1-4.7-4.8-6.3
	c0.6-1.9,1.9-2.8,1.9-4.7c0-1.3-1.6-1.4-2.8-1.9c-1-0.4-1.2-1.5-2.1-2l0,0c0.6-2.4,1.6-3.5,3-5.5c0.8-1,0.5-2,1.3-3
	c1.7-2.2,2.6-3.5,4.3-5.7c2.1-2.8,2.6-4.8,4.5-7.9c1.7-2.7,7-0.9,7-4.1c0-4.8-2.3-7.2-2.3-12c0-1.5,0.6-2.3,0.6-3.8
	c0-0.3-0.1-0.4-0.1-0.7c-3.2,0-4.9-1.4-7.4-3.3c-0.3,0.7-0.6,1.4-1.3,1.4c-1.7,0-1.7-2.2-2.5-3.7c-1.1-2-3.2-2.2-3.8-4.4
	c0.9-0.4,2-0.5,3-0.9c1.5-0.6,3-1,4.3-2.1c0.9-0.7,2.7-2,2.9-3.2l0,0l3.6-0.4c4,0,7.9,2.5,11.6,0c0.3-0.2,1.3-1.4,1.4-1.4
	c-0.1,0-0.1,0-0.2,0.1c1-0.7,0.6-2,1.1-3.2c1.1-2.6,1.7-4.1,2.8-6.7c0.8-1.9,1.5-4,3.6-4c2,0,3.3,0.4,4.8,1.6c0.8,0.6,2.3,0,2.3,0.9
	c0,0.5-0.2,0.8-0.2,1.3v3.8c0,1.3-1.2,1.8-1.5,3.1c2,0.3,3.5,0.1,5,1.4c1.5,1.2,2.2,2.3,4.1,2.7c0.3-0.8,0.4-1.3,0.4-2.2v-1.2
	c0-0.3,0.3-0.6,0.6-0.6c0.6,0,0.8,0.7,1.5,0.7c0.9,0.1,1.7-0.2,2.2,0.4c0.8,0.9,0.3,2.7,1.6,2.7c1.5,0,2.3-1,3.8-1
	c0.5,0,0.8,0.2,1.3,0.2c1.4,0,1.4-2,2.8-2.2c0,0.2,0.1,0.3,0.1,0.4c0,1.3-0.8,2-0.8,3.4c0,2.4,2.6,2.9,3.5,5.1
	c0.7,1.9,0.4,4.5,2.4,4.5h2.1c1.4,0,2.2-0.9,3.6-0.9h0.7c0.2,2.7,1.3,4.6,3.6,6c0.6,0.4,0.8,1,1.6,1c0.7,0,1-0.3,1.7-0.4
	c0.4,1,0.1,1.9,0.5,2.9c0.4,1.2,1.3,1.8,1.3,3.1c0,1.5-0.2,2.9-1.6,3.5c-1,0.4-2,0.2-2.6,1.2l0.1,0.6c1.1,0,1.8,1,1.8,2.1v1.9
	c0,3.4,0.4,5.5,2.3,8.4c1.9-1.3,1.3-4.7,3.6-4.7c1.5,0,2.1,1.4,3.7,1.4c3,0,3-4.8,6-4.8c1.2,0,1.7,1.3,2.9,1.3
	c1.1,0,1.7-0.6,2.7-0.6c1.3,0,1.6,1.6,1.6,2.9c0,1.6-1.2,2.2-1.9,3.6c-1.1,2.2-1,3.8-2.4,5.9c-0.3,0.5-0.9,0.6-0.9,1.2
	c0,0.9,1.2,1.1,1.6,2c0.5,0.5,0.6,1,0.6,1.7c0,0.8-0.9,0.9-1.4,1.6c-0.6,0.8-1,1.8-2,1.8c-0.5,0-0.8-0.2-1.3-0.2c-1.3,0-1,1.9-1,3.1
	C101.2,498.6,101.6,499.1,102,500L102,500z"/>
</svg>
