<?xml version="1.0" encoding="utf-8"?>
<!-- Generator: Adobe Illustrator 17.1.0, SVG Export Plug-In . SVG Version: 6.00 Build 0)  -->
<!DOCTYPE svg PUBLIC "-//W3C//DTD SVG 1.1//EN" "http://www.w3.org/Graphics/SVG/1.1/DTD/svg11.dtd">
<svg version="1.1" id="Ebene_1" xmlns="http://www.w3.org/2000/svg" xmlns:xlink="http://www.w3.org/1999/xlink" x="0px" y="0px"
	 viewBox="0 0 243.1 167.3" enable-background="new 0 0 243.1 167.3" xml:space="preserve">
<g>
	<path fill="#E62285" d="M108,34.6c0,0,7.7-12.6,23.7-13.7c15.9-1.1,28.1,16.6,29,17c0.9,0.4,4.3-0.4,6.1-0.5
		c1.8-0.1,3.4,0.9,4.7,0.7c1.3-0.1,5.2-2.9,6.6-2.9c1.5,0.1,3.5,3.8,7.7,4.8c4.2,1,10.8-0.7,11.8,0.3c1,1,0.2,4.3,0.9,4.6
		c0.3,0.1,3.8-0.7,6.8-1c3-0.3,6.4-3.1,7.1-2.7c1.3,0.9,2.2,1.9,5.5,1.5c3.2-0.4,3.8-1.8,4.7-1.6c0.9,0.2,2.8,3.2,4.1,3.8
		c1.3,0.6,3.4-2.4,4.6-1.5c1.2,0.9,1.7,3.5,2.7,4.7c1,1.2,4.7,2,5.1,3c-0.7,2.4-0.4,3.8,0.2,4.2c0.6,0.4,4,1.5,4,2.2
		c0,0.7-2.5,1.5-3.1,1.8c6.6,20.5-22,23.7-28.5,23.7c-2.4,6.7-11.4,7.6-13.7,7.5c-1.4,2-0.8,6.7-2.4,7.3c-1.6,0.6-6-1.2-7.5-1.2
		c-1.5,0-3.1,2.8-4.9,2.7c-1.8-0.1-4.3-1.7-6.3-1.6c-2,0.1-3.8,4.6-7.2,3.1c-3.3-1.5-2.6-5.6-5-6.3c-2.4-0.7-4.7,1.7-6.3,1.5
		c-1.5-0.2-6.5-7.1-8.8-7.3c-2.4-0.2-11.5,3.3-13.9,6c-2.4,2.7,4.4,7.7,3.8,9.1c-0.7,1.3-4.3,4.3-4.9,6.6c-0.6,2.3-4.4,4.1-3.8,9.1
		c0,1.6-8.2,2.4-9.2,4.6c-1,2.2-1,5.1-2.5,6.3c-1.3,1.1-6-0.7-7.4-0.1c-1.3,0.6-2.8,6.2-3,8.5c-0.2,2.3,0,11.1-0.9,12.4
		c-0.9,1.3-6.4-13.1-8.9-12.8c-2.5,0.2-9,3.8-9.7,4.7c-0.7,0.9-2.9,15.9-3.8,15.3c-0.9-0.7,1.2-14.1-1.5-16.1c-2.7-2.1-6.7,5-8,4.4
		c-1.3-0.6-0.1-3.8-2.4-6c-2.4-2.1-7.4-0.8-8.4,0.2c-1,1-7.2,12.8-8.8,12.6c-1.6-0.2,5.3-11,4.4-13.9c-0.9-2.9-3.1-4.4-5.3-4.2
		c-2.2,0.2-6.3,6.6-7.3,5.5c-1-1,1.7-5.9,0.7-7.3c-1-1.4-4.9-5.7-7.1-6c-2.2-0.3-10,7.2-12.2,5.5c-2.1-1.7,9.2-8.2,8.4-10.8
		c-0.8-2.7-2.7-9.1-5.8-8.8c-3,0.3-11.7,4.7-13.7,5.1c-2,0.4,6.7-9.1,7.1-11.1c0.4-2-0.7-4.4-2.4-4.9C21,102,10,110.4,7.1,110
		c-2.9-0.4,16.7-12.2,18.8-15.3c2.1-3.1-1.8-3.8-2.7-6.9c-0.4-1.3,2.8-3.3,2.7-5.1c-0.2-1.8-3.4-2.8-4-5.1c-0.6-2.3,7.4-3.2,8.2-4.7
		c0.9-1.5-3.4-5.1-2.9-7c0.4-1.9,7.7,0.1,10.8-3.7c3.1-3.8,2.4-13,3.6-14.2c1.3-1.3,8.6,0.2,10.4-1.1c0.4,0.3,9.7-14.2,24.1-18.6
		C90.5,24,108,34.6,108,34.6z"/>
	<path fill="#A5DAF1" d="M106.2,36.4c0,0,7.7-12.6,23.7-13.7c15.9-1.1,28.1,16.6,29,17c0.9,0.4,4.3-0.4,6.1-0.5
		c1.8-0.1,3.4,0.9,4.7,0.7c1.3-0.1,5.2-2.9,6.6-2.9c1.5,0.1,3.5,3.8,7.7,4.8c4.2,1,10.8-0.7,11.8,0.3c1,1,0.2,4.3,0.9,4.6
		c0.3,0.1,3.8-0.7,6.8-1c3-0.3,6.4-3.1,7.1-2.7c1.3,0.9,2.2,1.9,5.5,1.5c3.2-0.4,3.8-1.8,4.7-1.6c0.9,0.2,2.8,3.2,4.1,3.8
		c1.3,0.6,3.4-2.4,4.6-1.5c1.2,0.9,1.7,3.5,2.7,4.7c1,1.2,4.7,2,5.1,3c-0.7,2.4-0.4,3.8,0.2,4.2c0.6,0.4,4,1.5,4,2.2
		c0,0.7-2.5,1.5-3.1,1.8c6.6,20.5-22,23.7-28.5,23.7c-2.4,6.7-11.4,7.6-13.7,7.5c-1.4,2-0.8,6.7-2.4,7.3c-1.6,0.6-6-1.2-7.5-1.2
		c-1.5,0-3.1,2.8-4.9,2.7c-1.8-0.1-4.3-1.7-6.3-1.6c-2,0.1-3.8,4.6-7.2,3.1c-3.3-1.5-2.6-5.6-5-6.3c-2.4-0.7-4.7,1.7-6.2,1.5
		c-1.5-0.2-6.5-7.1-8.8-7.3c-2.4-0.2-11.5,3.3-13.9,6c-2.4,2.7,4.4,7.7,3.8,9.1c-0.7,1.3-4.3,4.3-4.9,6.6c-0.6,2.3-4.4,4.1-3.8,9.1
		c0,1.6-8.2,2.4-9.2,4.6c-1,2.2-1,5.1-2.5,6.3c-1.3,1.1-6-0.7-7.4-0.1c-1.3,0.6-2.8,6.2-3,8.5c-0.2,2.3,0,11.1-0.9,12.4
		c-0.9,1.3-6.4-13.1-8.9-12.8c-2.5,0.2-9,3.8-9.7,4.7c-0.7,0.9-2.9,15.9-3.8,15.3c-0.9-0.7,1.2-14.1-1.5-16.1c-2.7-2.1-6.7,5-8,4.4
		c-1.3-0.6-0.1-3.8-2.4-6c-2.4-2.1-7.4-0.8-8.4,0.2c-1,1-7.2,12.8-8.8,12.6c-1.6-0.2,5.3-11,4.4-13.9c-0.9-2.9-3.1-4.4-5.3-4.2
		c-2.2,0.2-6.3,6.6-7.3,5.5c-1-1,1.7-5.9,0.7-7.3c-1-1.4-4.9-5.7-7.1-6c-2.2-0.3-10,7.2-12.2,5.5c-2.1-1.7,9.2-8.2,8.4-10.8
		c-0.8-2.7-2.7-9.1-5.8-8.9c-3,0.3-11.7,4.7-13.7,5.1c-2,0.4,6.7-9.1,7.1-11.1c0.4-2-0.7-4.4-2.4-4.9c-1.8-0.5-12.8,7.9-15.7,7.5
		c-2.9-0.4,16.7-12.2,18.8-15.3c2.1-3.1-1.8-3.8-2.7-6.9c-0.4-1.2,2.8-3.3,2.7-5.1c-0.2-1.8-3.4-2.8-4-5.1c-0.6-2.3,7.4-3.2,8.2-4.7
		c0.9-1.5-3.4-5.1-2.9-7c0.4-1.9,7.7,0.1,10.8-3.7c3.1-3.8,2.4-13,3.6-14.2c1.3-1.3,8.6,0.2,10.4-1.1c0.4,0.3,9.7-14.2,24.1-18.6
		C88.7,25.8,106.2,36.4,106.2,36.4z"/>
	<path fill="#E62285" d="M80.4,25.7c2.7,0.1,2.4-3.1,3.3-3.1c1,0,1.4,3.5,3.1,3c1.7-0.6,2.9-3.1,4.1-2.5c1.3,0.6,0.4,3.5,2.3,3.7
		c1.8,0.1,3.7-3.2,4.3-2.4c0.6,0.8-1.4,2.5,1.5,4.1c2.9,1.5,3.2,0.1,3.9,0.9c0.5,0.6-0.5,1.2,0.4,2.6c0.4,0.5,1.7,0.8,2.6,1.8
		c1.2,1.4,0.3,1.9,3.2,2.3c3,0.4,5.5-2.8,6.2-1.1c0.4,0.9-1.6,2.7-3.8,3.8c-2.1,1.1-1,2.1-0.7,3.2c0.3,1.1,2.4,0.5,3.1,1.6
		c0.5,0.8-0.6,4.3,0.4,5.7c1,1.4,3.2,2,3.6,3.5c0.4,1.5-2.4,0.2-2.9,1.3c-0.4,1,0.5,3.7,0.7,4c1.1,1.2,6.2,0.9,5.4,2.1
		c-0.8,1.2-5.2-0.1-5.9,0.7c-0.7,0.7-0.6,2.3,0.2,4.9c0.7,2.4,2.4,5.1,1.3,5.7c-1.2,0.6-2.5,0.8-3.8,1.5c-1.3,0.7-2.2,2-2.7,3.8
		c-0.7,3.1,1.2,6.2,0.9,6.6c-0.7,0.9-5-2.6-6.8-0.6c-1.8,2,0.7,3,0,5c-0.7,2-3.9-0.3-5.6,0c-1.7,0.3-0.5,3.8-2.2,4.4
		c-2.3,0.8-8.6,0.2-11.1,0.5c-0.7,0.1,0.1,5.5-0.9,5.4c-1-0.1-0.4-4.1-1-4.8c-0.5-0.7-2.7-1.9-3.9-0.7c-0.4,0.4-0.4,0.7-0.1,2.4
		c0.3,1.6-2.1,2.1-2.9,2.1c-0.9-0.1,1.3-3.8,0.3-4.6c-1-0.7-3.1,0.1-4.6-0.3c-1.5-0.4-2.7-3.3-4-3.8c-1.6-0.7-3.2,1.1-4.6,0.3
		c-0.9-0.5,0.2-4.2-0.6-4.7c-0.7-0.5-2.4,1.8-3.3,0.5c-1-1.3,1.6-3.9,0.7-4.2c-0.9-0.3-1.4-1.4-1.5-1.7c-0.4-2-3.5,1.2-4.5-0.1
		c-2-2.5,0.3-7-0.2-9.1c-0.5-2.1-4.3-1.8-4.6-3.5c-0.2-1.4,3.1-4.5,3.7-5.9c0.5-1.4,0.4-2.4,0.4-3.7c-0.1-1.3-3.6-1-2.9-2.4
		c0.7-1.4,1.4-2.1,1.9-3.2c0.7-1.5,0.8-2.9,1-3.6c0.7-3.4-5.4-3-3.7-6c0.7-1.1,3.6,3.6,5.5,1.9c0.3-0.3,1.6-2.7,2.5-3.6
		c0.8-0.9,2.8-2.5,3.3-3.1c1-1.3-3.8-2.4-3.7-3.2c0.1-0.9,6.7,0.1,8-0.9c1.3-1-1.7-5.2-0.3-6.6c1.4-1.4,2.6,3.2,5.3,2.5
		c1.8-1.5,3.2-0.6,4.6-0.9c1.3-0.3-0.2-4.1,1.5-4.3C78.6,22.6,77.6,25.7,80.4,25.7z"/>
	<path fill="#ADC910" d="M80.4,27.5c2.7,0.1,2.4-3.1,3.3-3.1c1,0,1.4,3.5,3.1,2.9c1.7-0.6,2.9-3.1,4.1-2.5c1.3,0.6,0.4,3.5,2.3,3.7
		c1.8,0.1,3.7-3.2,4.3-2.4c0.6,0.8-1.4,2.5,1.5,4.1c2.9,1.5,3.2,0.1,3.9,0.9c0.5,0.6-0.6,1.2,0.4,2.6c0.4,0.5,1.7,0.8,2.6,1.8
		c1.2,1.4,0.3,1.9,3.2,2.3c3,0.4,5.5-2.8,6.2-1.1c0.4,0.9-1.6,2.7-3.8,3.8c-2.1,1.1-1,2.1-0.7,3.2c0.3,1.1,2.4,0.5,3.1,1.6
		c0.5,0.8-0.6,4.3,0.4,5.7c1,1.4,3.2,2,3.6,3.5c0.4,1.5-2.4,0.2-2.9,1.3c-0.4,1,0.5,3.7,0.7,4c1.1,1.2,6.2,0.9,5.4,2.1
		c-0.8,1.2-5.2-0.1-5.9,0.7c-0.7,0.7-0.6,2.3,0.2,4.9c0.7,2.4,2.4,5.1,1.3,5.7c-1.2,0.6-2.5,0.8-3.8,1.5c-1.3,0.7-2.2,2-2.6,3.8
		c-0.8,3.1,1.2,6.2,0.9,6.6c-0.7,0.9-5-2.6-6.8-0.6c-1.8,2,0.7,3,0,5c-0.7,2-3.9-0.3-5.6,0c-1.7,0.3-0.5,3.8-2.2,4.4
		c-2.3,0.8-8.6,0.2-11.1,0.5c-0.7,0.1,0.1,5.5-0.9,5.4c-1-0.1-0.4-4.1-1-4.8c-0.5-0.7-2.7-1.9-3.9-0.7c-0.4,0.4-0.4,0.7-0.1,2.4
		c0.3,1.6-2.1,2.1-3,2.1c-0.9-0.1,1.3-3.8,0.3-4.6c-1-0.7-3.1,0.1-4.6-0.3c-1.5-0.4-2.7-3.3-4-3.8c-1.6-0.7-3.1,1.1-4.6,0.3
		c-0.9-0.5,0.2-4.2-0.6-4.7c-0.7-0.5-2.4,1.8-3.3,0.5c-1-1.3,1.6-3.9,0.7-4.2c-0.9-0.3-1.4-1.4-1.5-1.7c-0.4-2-3.5,1.2-4.5-0.1
		c-2-2.5,0.3-7-0.2-9.1c-0.5-2.1-4.3-1.8-4.6-3.5c-0.2-1.4,3.1-4.5,3.7-5.9c0.5-1.4,0.4-2.4,0.4-3.7c-0.1-1.3-3.6-1-2.9-2.4
		c0.7-1.4,1.4-2.1,1.9-3.2c0.7-1.5,0.8-2.9,1-3.6c0.7-3.4-5.4-3-3.7-6c0.7-1.1,3.6,3.6,5.5,1.9c0.3-0.3,1.6-2.7,2.5-3.6
		c0.8-0.9,2.8-2.5,3.3-3.1c1-1.3-3.8-2.4-3.7-3.2c0.1-0.9,6.7,0.1,8-0.9c1.3-1-1.7-5.2-0.3-6.6c1.4-1.4,2.6,3.2,5.3,2.5
		c1.8-1.5,3.2-0.6,4.6-0.9c1.3-0.3-0.2-4.1,1.5-4.3C78.6,24.3,77.6,27.4,80.4,27.5z"/>
	<circle fill="#E94A93" cx="100.7" cy="122.9" r="11.9"/>
	<path fill="#E94A93" d="M61.7,105c0,6.6-5.3,11.9-11.9,11.9c-6.6,0-11.9-5.4-11.9-11.9c0-6.6,5.3-11.9,11.9-11.9
		C56.4,93,61.7,98.4,61.7,105z"/>
	<circle fill="#E94A93" cx="60.6" cy="123.5" r="8.4"/>
	<circle fill="#E94A93" cx="26.6" cy="109.8" r="6.4"/>
	<path fill="#E94A93" d="M122.6,130.2c0,1.2-1,2.2-2.2,2.2c-1.2,0-2.2-1-2.2-2.2c0-1.2,1-2.2,2.2-2.2
		C121.6,128,122.6,129,122.6,130.2z"/>
	<ellipse fill="#E94A93" cx="42.5" cy="39.3" rx="7.5" ry="6.9"/>
	<circle fill="#ADC910" cx="99.1" cy="124.2" r="11.9"/>
	<path fill="#ADC910" d="M60.2,107.2c0,6.6-5.3,11.9-11.9,11.9c-6.6,0-11.9-5.3-11.9-11.9c0-6.6,5.3-11.9,11.9-11.9
		C54.8,95.2,60.2,100.6,60.2,107.2z"/>
	<path fill="#A5DAF1" d="M48.7,40.4c0,3.8-3.4,6.9-7.5,6.9c-4.2,0-7.5-3.1-7.5-6.9c0-3.8,3.4-6.9,7.5-6.9
		C45.3,33.5,48.7,36.6,48.7,40.4z"/>
	<circle fill="#ADC910" cx="59.5" cy="125.1" r="8.4"/>
	<path fill="#ADC910" d="M32.3,111.4c0,3.5-2.9,6.4-6.4,6.4c-3.5,0-6.4-2.9-6.4-6.4c0-3.5,2.9-6.4,6.4-6.4
		C29.4,105,32.3,107.8,32.3,111.4z"/>
	<path fill="#ADC910" d="M122.1,131.1c0,1.2-1,2.2-2.2,2.2c-1.2,0-2.2-1-2.2-2.2c0-1.2,1-2.2,2.2-2.2
		C121.1,128.8,122.1,129.8,122.1,131.1z"/>
	<g>
		<path fill="#ADC910" d="M132.5,68.1v3.8h3.9v-3.8c0-0.5,0.1-1,0.2-1.2c0.2-0.3,0.4-0.4,0.6-0.4c0.3,0,0.5,0.1,0.6,0.4
			c0.2,0.3,0.2,0.7,0.2,1.2v10.5c0,0.6-0.1,1-0.3,1.2c-0.2,0.3-0.4,0.4-0.6,0.4c-0.3,0-0.5-0.1-0.6-0.4c-0.2-0.3-0.2-0.7-0.2-1.2
			v-4.5h-3.9v4.5c0,0.6-0.1,1-0.2,1.2c-0.2,0.3-0.4,0.4-0.6,0.4c-0.3,0-0.5-0.1-0.6-0.4c-0.2-0.3-0.2-0.7-0.2-1.2V68.1
			c0-0.5,0.1-1,0.2-1.2c0.2-0.3,0.4-0.4,0.6-0.4c0.3,0,0.5,0.1,0.6,0.4C132.4,67.1,132.5,67.5,132.5,68.1z"/>
		<path fill="#ADC910" d="M145.7,78.4l-0.4-1.7h-3.6l-0.4,1.7c-0.2,0.7-0.3,1.1-0.4,1.3c-0.1,0.2-0.3,0.4-0.6,0.4
			c-0.2,0-0.4-0.1-0.6-0.4c-0.2-0.2-0.3-0.5-0.3-0.8c0-0.2,0-0.4,0.1-0.6c0-0.2,0.1-0.5,0.2-0.8L142,69c0.1-0.2,0.1-0.5,0.2-0.9
			c0.1-0.3,0.2-0.6,0.3-0.9c0.1-0.2,0.2-0.4,0.4-0.6c0.2-0.1,0.4-0.2,0.6-0.2c0.2,0,0.5,0.1,0.6,0.2c0.2,0.1,0.3,0.3,0.4,0.5
			c0.1,0.2,0.2,0.5,0.3,0.7c0.1,0.3,0.2,0.6,0.3,1l2.3,8.6c0.2,0.7,0.3,1.1,0.3,1.4c0,0.3-0.1,0.6-0.3,0.8c-0.2,0.3-0.4,0.4-0.6,0.4
			c-0.1,0-0.3,0-0.4-0.1c-0.1-0.1-0.2-0.2-0.3-0.3c-0.1-0.1-0.1-0.3-0.2-0.6C145.9,78.9,145.8,78.7,145.7,78.4z M142.2,74.8h2.6
			l-1.3-5.5L142.2,74.8z"/>
		<path fill="#ADC910" d="M152.4,74.8h-1.7v3.8c0,0.5-0.1,0.9-0.2,1.2c-0.2,0.3-0.4,0.4-0.6,0.4c-0.3,0-0.5-0.1-0.6-0.4
			c-0.2-0.3-0.2-0.7-0.2-1.2V68.3c0-0.6,0.1-1,0.3-1.3c0.2-0.3,0.5-0.4,0.9-0.4h2.3c0.7,0,1.2,0.1,1.6,0.2c0.4,0.2,0.7,0.4,0.9,0.8
			c0.3,0.4,0.5,0.8,0.6,1.3c0.1,0.5,0.2,1.1,0.2,1.7c0,1.4-0.3,2.4-0.8,3.1C154.4,74.4,153.5,74.8,152.4,74.8z M152,68.7h-1.2v4.1
			h1.2c0.4,0,0.8-0.1,1.1-0.2c0.3-0.1,0.5-0.3,0.7-0.7c0.1-0.3,0.2-0.7,0.2-1.2c0-0.6-0.1-1.1-0.3-1.4
			C153.3,68.9,152.8,68.7,152,68.7z"/>
		<path fill="#ADC910" d="M160.7,74.8h-1.6v3.8c0,0.5-0.1,0.9-0.3,1.2c-0.2,0.3-0.4,0.4-0.6,0.4c-0.3,0-0.5-0.1-0.6-0.4
			c-0.2-0.3-0.2-0.7-0.2-1.2V68.3c0-0.6,0.1-1,0.3-1.3c0.2-0.3,0.5-0.4,0.9-0.4h2.3c0.7,0,1.2,0.1,1.6,0.2c0.4,0.2,0.7,0.4,0.9,0.8
			c0.3,0.4,0.5,0.8,0.6,1.3c0.1,0.5,0.2,1.1,0.2,1.7c0,1.4-0.3,2.4-0.8,3.1C162.7,74.4,161.8,74.8,160.7,74.8z M160.3,68.7h-1.2v4.1
			h1.2c0.4,0,0.8-0.1,1.1-0.2c0.3-0.1,0.5-0.3,0.7-0.7c0.1-0.3,0.2-0.7,0.2-1.2c0-0.6-0.1-1.1-0.3-1.4
			C161.6,68.9,161.1,68.7,160.3,68.7z"/>
		<path fill="#ADC910" d="M167.6,78.5v-4.2l-2.2-5c-0.2-0.5-0.3-0.8-0.4-1.1c-0.1-0.3-0.1-0.5-0.1-0.7c0-0.3,0.1-0.6,0.2-0.8
			c0.2-0.2,0.4-0.3,0.6-0.3c0.2,0,0.4,0.1,0.6,0.3c0.1,0.2,0.3,0.6,0.6,1.2l1.6,4l1.7-4c0.1-0.2,0.2-0.5,0.3-0.6
			c0.1-0.2,0.1-0.3,0.2-0.5c0.1-0.1,0.2-0.3,0.3-0.3c0.1-0.1,0.2-0.1,0.4-0.1c0.2,0,0.4,0.1,0.6,0.3c0.2,0.2,0.2,0.5,0.2,0.8
			c0,0.2,0,0.5-0.1,0.7c-0.1,0.2-0.2,0.6-0.4,1l-2.2,5.1v4.2c0,0.6-0.1,1-0.2,1.2c-0.2,0.3-0.4,0.4-0.6,0.4c-0.3,0-0.5-0.1-0.6-0.4
			C167.6,79.5,167.6,79.1,167.6,78.5z"/>
	</g>
	<g>
		<path fill="#ADC910" d="M181.4,68.2V72h3.5v-3.8c0-0.5,0.1-1,0.2-1.2c0.1-0.3,0.3-0.4,0.6-0.4c0.2,0,0.4,0.1,0.6,0.4
			c0.2,0.3,0.2,0.7,0.2,1.2v10.5c0,0.6-0.1,1-0.2,1.2c-0.2,0.3-0.3,0.4-0.6,0.4c-0.2,0-0.4-0.1-0.6-0.4c-0.1-0.3-0.2-0.7-0.2-1.2
			v-4.5h-3.5v4.5c0,0.6-0.1,1-0.2,1.2c-0.1,0.3-0.3,0.4-0.6,0.4c-0.2,0-0.4-0.1-0.6-0.4c-0.1-0.3-0.2-0.7-0.2-1.2V68.2
			c0-0.5,0.1-1,0.2-1.2c0.1-0.3,0.3-0.4,0.6-0.4c0.2,0,0.4,0.1,0.6,0.4C181.4,67.3,181.4,67.7,181.4,68.2z"/>
		<path fill="#ADC910" d="M191.8,66.6c0.8,0,1.5,0.3,2.1,0.8c0.6,0.6,1,1.4,1.4,2.4c0.3,1,0.5,2.2,0.5,3.6c0,1-0.1,2-0.3,2.8
			c-0.2,0.8-0.4,1.6-0.8,2.2c-0.3,0.6-0.7,1.1-1.2,1.4c-0.5,0.3-1,0.5-1.7,0.5c-0.6,0-1.2-0.2-1.7-0.5c-0.5-0.3-0.9-0.8-1.2-1.4
			c-0.3-0.6-0.6-1.3-0.7-2.2c-0.2-0.9-0.3-1.8-0.3-2.8c0-1,0.1-2,0.3-2.8c0.2-0.9,0.4-1.6,0.8-2.2c0.3-0.6,0.7-1.1,1.2-1.4
			C190.7,66.7,191.2,66.6,191.8,66.6z M194.1,73.4c0-1-0.1-1.8-0.3-2.5c-0.2-0.7-0.5-1.3-0.8-1.6c-0.4-0.4-0.8-0.6-1.2-0.6
			c-0.3,0-0.6,0.1-0.9,0.3c-0.3,0.2-0.5,0.5-0.7,0.9c-0.2,0.4-0.4,0.9-0.5,1.5c-0.1,0.6-0.2,1.3-0.2,2c0,0.8,0.1,1.4,0.2,2.1
			c0.1,0.6,0.3,1.1,0.5,1.5c0.2,0.4,0.5,0.7,0.7,0.9c0.3,0.2,0.6,0.3,0.9,0.3c0.4,0,0.8-0.2,1.1-0.5c0.3-0.3,0.6-0.9,0.8-1.6
			C194,75.4,194.1,74.5,194.1,73.4z"/>
		<path fill="#ADC910" d="M197.2,74.6v-6.4c0-0.5,0.1-1,0.2-1.2c0.1-0.3,0.3-0.4,0.6-0.4c0.2,0,0.4,0.1,0.6,0.4
			c0.1,0.3,0.2,0.7,0.2,1.2v6.5c0,0.7,0.1,1.4,0.2,1.9c0.1,0.5,0.3,0.9,0.5,1.2c0.3,0.3,0.6,0.4,1.1,0.4c0.6,0,1.1-0.3,1.4-0.8
			c0.3-0.6,0.4-1.4,0.4-2.5v-6.6c0-0.5,0.1-1,0.2-1.2c0.1-0.3,0.3-0.4,0.6-0.4c0.2,0,0.4,0.1,0.6,0.4c0.2,0.3,0.2,0.7,0.2,1.2v6.4
			c0,1-0.1,1.9-0.2,2.6c-0.1,0.7-0.3,1.3-0.7,1.8c-0.3,0.4-0.6,0.8-1,1c-0.4,0.2-0.8,0.3-1.4,0.3c-0.6,0-1.1-0.1-1.6-0.3
			c-0.4-0.2-0.8-0.6-1.1-1c-0.3-0.5-0.5-1.1-0.6-1.8C197.2,76.5,197.2,75.6,197.2,74.6z"/>
		<path fill="#ADC910" d="M207.8,74.4h-0.6v4.3c0,0.6-0.1,1-0.2,1.2c-0.1,0.3-0.3,0.4-0.6,0.4c-0.3,0-0.5-0.1-0.6-0.4
			c-0.1-0.3-0.2-0.7-0.2-1.2V68.5c0-0.6,0.1-1,0.2-1.3c0.2-0.3,0.4-0.4,0.8-0.4h2.6c0.4,0,0.7,0,0.9,0.1c0.3,0.1,0.5,0.2,0.7,0.3
			c0.2,0.2,0.5,0.4,0.7,0.8c0.2,0.3,0.3,0.7,0.4,1.1c0.1,0.4,0.1,0.9,0.1,1.4c0,1-0.2,1.8-0.5,2.4c-0.3,0.6-0.8,1-1.5,1.3
			c0.3,0.3,0.6,0.6,0.8,1.1c0.3,0.5,0.5,1,0.7,1.6c0.2,0.6,0.4,1.1,0.5,1.5c0.1,0.4,0.2,0.8,0.2,0.9c0,0.2,0,0.3-0.1,0.5
			c-0.1,0.2-0.2,0.3-0.3,0.4c-0.1,0.1-0.2,0.1-0.4,0.1c-0.2,0-0.3-0.1-0.5-0.2c-0.1-0.1-0.2-0.3-0.3-0.5c-0.1-0.2-0.2-0.5-0.4-1
			l-0.6-1.8c-0.2-0.7-0.4-1.2-0.6-1.5c-0.2-0.3-0.4-0.6-0.6-0.7C208.3,74.5,208.1,74.4,207.8,74.4z M208.8,68.8h-1.5v3.7h1.5
			c0.4,0,0.7-0.1,1-0.2c0.3-0.1,0.5-0.3,0.6-0.6c0.1-0.3,0.2-0.6,0.2-1.1c0-0.4-0.1-0.7-0.2-1c-0.1-0.3-0.3-0.5-0.5-0.6
			C209.7,68.9,209.3,68.8,208.8,68.8z"/>
		<path fill="#ADC910" d="M219.8,76.1c0,0.8-0.1,1.5-0.4,2.2c-0.3,0.6-0.6,1.1-1.1,1.5c-0.5,0.4-1,0.5-1.7,0.5c-0.8,0-1.4-0.2-2-0.7
			c-0.4-0.4-0.7-0.8-0.9-1.4c-0.2-0.6-0.3-1.2-0.3-1.7c0-0.3,0.1-0.6,0.2-0.8c0.1-0.2,0.3-0.4,0.5-0.4c0.2,0,0.3,0.1,0.4,0.3
			c0.1,0.2,0.2,0.5,0.3,0.8c0.1,0.4,0.2,0.8,0.3,1.1c0.1,0.3,0.3,0.5,0.5,0.7c0.2,0.2,0.5,0.3,0.9,0.3c0.5,0,0.9-0.2,1.2-0.6
			c0.3-0.4,0.5-0.8,0.5-1.4c0-0.4-0.1-0.8-0.2-1.1c-0.2-0.3-0.4-0.5-0.6-0.6c-0.3-0.1-0.6-0.3-1-0.5c-0.6-0.2-1.1-0.5-1.4-0.8
			c-0.4-0.3-0.7-0.7-0.9-1.2c-0.2-0.5-0.3-1.2-0.3-1.9c0-0.7,0.1-1.4,0.4-2c0.2-0.6,0.6-1,1-1.3c0.5-0.3,1-0.5,1.6-0.5
			c0.5,0,0.9,0.1,1.3,0.3c0.4,0.2,0.7,0.5,0.9,0.8c0.2,0.3,0.4,0.7,0.5,1.1c0.1,0.4,0.2,0.7,0.2,1.1c0,0.3-0.1,0.6-0.2,0.9
			c-0.1,0.3-0.3,0.4-0.5,0.4c-0.2,0-0.3-0.1-0.4-0.2c-0.1-0.2-0.2-0.4-0.3-0.8c-0.1-0.5-0.3-0.9-0.5-1.2c-0.2-0.3-0.5-0.4-1-0.4
			c-0.4,0-0.8,0.2-1,0.5c-0.3,0.3-0.4,0.7-0.4,1.1c0,0.3,0,0.5,0.1,0.7c0.1,0.2,0.2,0.4,0.4,0.5c0.2,0.1,0.3,0.2,0.5,0.3
			c0.2,0.1,0.4,0.2,0.8,0.3c0.4,0.2,0.9,0.4,1.2,0.6c0.4,0.2,0.7,0.5,0.9,0.8c0.3,0.3,0.5,0.7,0.6,1.1
			C219.7,74.9,219.8,75.4,219.8,76.1z"/>
	</g>
	<g>
		<path fill="#ADC910" d="M136.4,60.1l-0.5-1.1h-3.9l-0.4,1.1c-0.2,0.4-0.3,0.7-0.5,0.9c-0.1,0.2-0.3,0.2-0.6,0.2
			c-0.2,0-0.5-0.1-0.6-0.2c-0.2-0.2-0.3-0.4-0.3-0.6c0-0.1,0-0.2,0.1-0.4c0-0.1,0.1-0.3,0.2-0.5l2.4-5.8c0.1-0.2,0.2-0.4,0.2-0.6
			c0.1-0.2,0.2-0.4,0.3-0.6c0.1-0.2,0.3-0.3,0.4-0.4c0.2-0.1,0.4-0.1,0.7-0.1c0.3,0,0.5,0,0.7,0.1c0.2,0.1,0.3,0.2,0.4,0.4
			c0.1,0.1,0.2,0.3,0.3,0.5c0.1,0.2,0.2,0.4,0.3,0.7l2.5,5.7c0.2,0.4,0.3,0.8,0.3,0.9c0,0.2-0.1,0.4-0.3,0.6
			c-0.2,0.2-0.4,0.3-0.7,0.3c-0.1,0-0.3,0-0.4-0.1c-0.1-0.1-0.2-0.1-0.3-0.2c-0.1-0.1-0.2-0.2-0.2-0.4
			C136.5,60.4,136.4,60.2,136.4,60.1z M132.6,57.6h2.8L134,54L132.6,57.6z"/>
		<path fill="#ADC910" d="M141.7,53.2v6.4h3.9c0.3,0,0.5,0.1,0.7,0.2c0.2,0.1,0.2,0.3,0.2,0.5c0,0.2-0.1,0.4-0.2,0.5
			c-0.2,0.1-0.4,0.2-0.7,0.2H141c-0.4,0-0.7-0.1-0.9-0.3c-0.2-0.2-0.3-0.5-0.3-0.8v-6.8c0-0.4,0.1-0.6,0.3-0.8
			c0.2-0.2,0.4-0.3,0.7-0.3c0.3,0,0.5,0.1,0.7,0.3C141.6,52.5,141.7,52.8,141.7,53.2z"/>
		<path fill="#ADC910" d="M152.3,53.7h-2.1v6.4c0,0.4-0.1,0.6-0.3,0.8c-0.2,0.2-0.4,0.3-0.7,0.3c-0.3,0-0.5-0.1-0.7-0.3
			c-0.2-0.2-0.3-0.5-0.3-0.8v-6.4h-2.1c-0.3,0-0.6-0.1-0.7-0.2c-0.2-0.1-0.2-0.3-0.2-0.5c0-0.2,0.1-0.4,0.3-0.5
			c0.2-0.1,0.4-0.2,0.7-0.2h6.1c0.3,0,0.6,0.1,0.7,0.2c0.2,0.1,0.2,0.3,0.2,0.5c0,0.2-0.1,0.4-0.2,0.5
			C152.9,53.6,152.7,53.7,152.3,53.7z"/>
		<path fill="#ADC910" d="M160.7,53.6h-4.3v2.2h4c0.3,0,0.5,0.1,0.7,0.2c0.1,0.1,0.2,0.3,0.2,0.5c0,0.2-0.1,0.4-0.2,0.5
			c-0.1,0.1-0.4,0.2-0.7,0.2h-4v2.5h4.5c0.3,0,0.5,0.1,0.7,0.2c0.2,0.1,0.2,0.3,0.2,0.5c0,0.2-0.1,0.4-0.2,0.5
			c-0.2,0.1-0.4,0.2-0.7,0.2h-5.2c-0.4,0-0.7-0.1-0.9-0.3c-0.2-0.2-0.3-0.5-0.3-0.8v-6.7c0-0.3,0-0.5,0.1-0.6
			c0.1-0.2,0.2-0.3,0.4-0.4c0.2-0.1,0.4-0.1,0.7-0.1h5.1c0.3,0,0.5,0.1,0.7,0.2c0.1,0.1,0.2,0.3,0.2,0.5c0,0.2-0.1,0.4-0.2,0.5
			C161.3,53.5,161,53.6,160.7,53.6z"/>
		<path fill="#ADC910" d="M165.9,57.3h-0.7v2.8c0,0.4-0.1,0.7-0.3,0.8c-0.2,0.2-0.4,0.3-0.7,0.3c-0.3,0-0.5-0.1-0.7-0.3
			c-0.2-0.2-0.3-0.5-0.3-0.8v-6.8c0-0.4,0.1-0.7,0.3-0.8c0.2-0.2,0.5-0.3,0.9-0.3h3.1c0.4,0,0.8,0,1.1,0c0.3,0,0.6,0.1,0.8,0.2
			c0.3,0.1,0.6,0.3,0.8,0.5c0.2,0.2,0.4,0.5,0.5,0.8c0.1,0.3,0.2,0.6,0.2,0.9c0,0.7-0.2,1.2-0.6,1.6c-0.4,0.4-1,0.7-1.8,0.8
			c0.3,0.2,0.7,0.4,1,0.7c0.3,0.3,0.6,0.7,0.8,1.1c0.2,0.4,0.4,0.7,0.6,1c0.1,0.3,0.2,0.5,0.2,0.6c0,0.1,0,0.2-0.1,0.3
			c-0.1,0.1-0.2,0.2-0.3,0.3c-0.1,0.1-0.3,0.1-0.5,0.1c-0.2,0-0.4,0-0.5-0.1c-0.1-0.1-0.3-0.2-0.4-0.4c-0.1-0.1-0.2-0.4-0.4-0.6
			l-0.8-1.2c-0.3-0.4-0.5-0.8-0.7-1c-0.2-0.2-0.4-0.4-0.7-0.5C166.5,57.3,166.2,57.3,165.9,57.3z M167,53.6h-1.8V56h1.7
			c0.5,0,0.9,0,1.2-0.1c0.3-0.1,0.6-0.2,0.7-0.4c0.2-0.2,0.3-0.4,0.3-0.7c0-0.2-0.1-0.5-0.2-0.7c-0.1-0.2-0.3-0.3-0.6-0.4
			C168.1,53.6,167.7,53.6,167,53.6z"/>
		<path fill="#ADC910" d="M175.4,53.2l3.7,5.2v-5.3c0-0.3,0.1-0.6,0.2-0.8c0.2-0.2,0.4-0.3,0.6-0.3c0.3,0,0.5,0.1,0.7,0.3
			c0.2,0.2,0.2,0.4,0.2,0.8v7c0,0.8-0.3,1.2-1,1.2c-0.2,0-0.3,0-0.5-0.1c-0.1,0-0.3-0.1-0.4-0.2c-0.1-0.1-0.2-0.2-0.3-0.4
			c-0.1-0.1-0.2-0.3-0.3-0.4l-3.6-5.2v5.2c0,0.3-0.1,0.6-0.3,0.8c-0.2,0.2-0.4,0.3-0.7,0.3c-0.3,0-0.5-0.1-0.7-0.3
			c-0.2-0.2-0.2-0.4-0.2-0.8v-6.8c0-0.3,0-0.5,0.1-0.7c0.1-0.2,0.2-0.3,0.4-0.4c0.2-0.1,0.4-0.2,0.6-0.2c0.2,0,0.3,0,0.4,0.1
			c0.1,0.1,0.2,0.1,0.3,0.2c0.1,0.1,0.2,0.2,0.3,0.3C175.1,52.8,175.3,53,175.4,53.2z"/>
		<path fill="#ADC910" d="M188.8,60.1l-0.5-1.1h-3.9l-0.5,1.1c-0.2,0.4-0.3,0.7-0.5,0.9c-0.1,0.2-0.3,0.2-0.6,0.2
			c-0.2,0-0.5-0.1-0.6-0.2c-0.2-0.2-0.3-0.4-0.3-0.6c0-0.1,0-0.2,0.1-0.4c0-0.1,0.1-0.3,0.2-0.5l2.4-5.8c0.1-0.2,0.2-0.4,0.3-0.6
			c0.1-0.2,0.2-0.4,0.3-0.6c0.1-0.2,0.3-0.3,0.4-0.4c0.2-0.1,0.4-0.1,0.7-0.1c0.3,0,0.5,0,0.7,0.1c0.2,0.1,0.3,0.2,0.4,0.4
			c0.1,0.1,0.2,0.3,0.3,0.5c0.1,0.2,0.2,0.4,0.3,0.7l2.5,5.7c0.2,0.4,0.3,0.8,0.3,0.9c0,0.2-0.1,0.4-0.3,0.6
			c-0.2,0.2-0.4,0.3-0.7,0.3c-0.2,0-0.3,0-0.4-0.1c-0.1-0.1-0.2-0.1-0.3-0.2c-0.1-0.1-0.1-0.2-0.2-0.4
			C189,60.4,188.9,60.2,188.8,60.1z M185,57.6h2.8l-1.4-3.7L185,57.6z"/>
		<path fill="#ADC910" d="M197.3,53.7h-2.1v6.4c0,0.4-0.1,0.6-0.3,0.8c-0.2,0.2-0.4,0.3-0.7,0.3c-0.3,0-0.5-0.1-0.7-0.3
			c-0.2-0.2-0.3-0.5-0.3-0.8v-6.4h-2.1c-0.3,0-0.6-0.1-0.7-0.2c-0.2-0.1-0.2-0.3-0.2-0.5c0-0.2,0.1-0.4,0.3-0.5
			c0.2-0.1,0.4-0.2,0.7-0.2h6.1c0.3,0,0.6,0.1,0.7,0.2c0.2,0.1,0.2,0.3,0.2,0.5c0,0.2-0.1,0.4-0.2,0.5
			C197.9,53.6,197.6,53.7,197.3,53.7z"/>
		<path fill="#ADC910" d="M199.5,60.1v-7c0-0.4,0.1-0.6,0.3-0.8c0.2-0.2,0.4-0.3,0.7-0.3c0.3,0,0.5,0.1,0.7,0.3
			c0.2,0.2,0.3,0.5,0.3,0.8v7c0,0.4-0.1,0.6-0.3,0.8c-0.2,0.2-0.4,0.3-0.7,0.3c-0.3,0-0.5-0.1-0.7-0.3
			C199.6,60.8,199.5,60.5,199.5,60.1z"/>
		<path fill="#ADC910" d="M205,53.3l2.1,5.9l2.2-6c0.1-0.3,0.2-0.5,0.3-0.7c0.1-0.1,0.1-0.2,0.3-0.3c0.1-0.1,0.3-0.1,0.5-0.1
			c0.2,0,0.3,0,0.5,0.1c0.1,0.1,0.2,0.2,0.3,0.3c0.1,0.1,0.1,0.3,0.1,0.4c0,0.1,0,0.2,0,0.3c0,0.1-0.1,0.2-0.1,0.3
			c0,0.1-0.1,0.2-0.1,0.3l-2.3,5.8c-0.1,0.2-0.2,0.4-0.2,0.6c-0.1,0.2-0.2,0.4-0.3,0.5c-0.1,0.1-0.3,0.3-0.4,0.4
			c-0.2,0.1-0.4,0.1-0.7,0.1c-0.3,0-0.5,0-0.7-0.1c-0.2-0.1-0.3-0.2-0.4-0.4c-0.1-0.2-0.2-0.3-0.3-0.5c-0.1-0.2-0.2-0.4-0.2-0.6
			l-2.3-5.7c0-0.1-0.1-0.2-0.1-0.3c0-0.1-0.1-0.2-0.1-0.3c0-0.1,0-0.2,0-0.3c0-0.2,0.1-0.4,0.3-0.6c0.2-0.2,0.4-0.3,0.7-0.3
			c0.3,0,0.6,0.1,0.7,0.3C204.7,52.5,204.8,52.8,205,53.3z"/>
		<path fill="#ADC910" d="M218.9,53.6h-4.3v2.2h4c0.3,0,0.5,0.1,0.7,0.2c0.1,0.1,0.2,0.3,0.2,0.5c0,0.2-0.1,0.4-0.2,0.5
			c-0.1,0.1-0.4,0.2-0.7,0.2h-4v2.5h4.5c0.3,0,0.5,0.1,0.7,0.2c0.2,0.1,0.2,0.3,0.2,0.5c0,0.2-0.1,0.4-0.2,0.5
			c-0.2,0.1-0.4,0.2-0.7,0.2h-5.2c-0.4,0-0.7-0.1-0.9-0.3c-0.2-0.2-0.3-0.5-0.3-0.8v-6.7c0-0.3,0-0.5,0.1-0.6
			c0.1-0.2,0.2-0.3,0.4-0.4c0.2-0.1,0.4-0.1,0.7-0.1h5.1c0.3,0,0.5,0.1,0.7,0.2c0.1,0.1,0.2,0.3,0.2,0.5c0,0.2-0.1,0.4-0.2,0.5
			C219.5,53.5,219.2,53.6,218.9,53.6z"/>
	</g>
	<g>
		<g>
			<path fill="#E53089" d="M132,68.6v3.8h3.9v-3.8c0-0.5,0.1-1,0.2-1.2c0.2-0.3,0.4-0.4,0.6-0.4c0.3,0,0.5,0.1,0.6,0.4
				c0.2,0.3,0.2,0.7,0.2,1.2v10.5c0,0.5-0.1,1-0.3,1.2c-0.2,0.3-0.4,0.4-0.6,0.4c-0.3,0-0.5-0.1-0.6-0.4c-0.2-0.3-0.2-0.7-0.2-1.2
				v-4.5H132v4.5c0,0.5-0.1,1-0.3,1.2c-0.2,0.3-0.4,0.4-0.6,0.4c-0.3,0-0.5-0.1-0.6-0.4c-0.2-0.3-0.2-0.7-0.2-1.2V68.6
				c0-0.5,0.1-1,0.2-1.2c0.2-0.3,0.4-0.4,0.6-0.4c0.3,0,0.5,0.1,0.6,0.4C131.9,67.6,132,68,132,68.6z"/>
			<path fill="#E53089" d="M145.2,79l-0.4-1.7h-3.6l-0.4,1.7c-0.2,0.7-0.3,1.1-0.4,1.3c-0.1,0.2-0.3,0.4-0.6,0.4
				c-0.2,0-0.4-0.1-0.6-0.4c-0.2-0.2-0.3-0.5-0.3-0.8c0-0.2,0-0.4,0.1-0.6c0-0.2,0.1-0.5,0.2-0.8l2.3-8.6c0.1-0.2,0.1-0.5,0.2-0.9
				c0.1-0.3,0.2-0.6,0.3-0.9c0.1-0.2,0.2-0.4,0.4-0.6c0.2-0.1,0.4-0.2,0.6-0.2c0.2,0,0.5,0.1,0.6,0.2c0.2,0.1,0.3,0.3,0.4,0.5
				c0.1,0.2,0.2,0.5,0.3,0.7c0.1,0.3,0.2,0.6,0.3,1l2.3,8.6c0.2,0.7,0.3,1.1,0.3,1.4c0,0.3-0.1,0.6-0.3,0.8
				c-0.2,0.3-0.4,0.4-0.6,0.4c-0.1,0-0.3,0-0.4-0.1c-0.1-0.1-0.2-0.2-0.3-0.3c-0.1-0.1-0.1-0.3-0.2-0.6
				C145.3,79.4,145.3,79.2,145.2,79z M141.7,75.3h2.6l-1.3-5.5L141.7,75.3z"/>
			<path fill="#E53089" d="M151.9,75.3h-1.6V79c0,0.5-0.1,0.9-0.3,1.2c-0.2,0.3-0.4,0.4-0.6,0.4c-0.3,0-0.5-0.1-0.6-0.4
				c-0.2-0.3-0.2-0.7-0.2-1.2V68.8c0-0.6,0.1-1,0.3-1.3c0.2-0.3,0.5-0.4,0.9-0.4h2.3c0.7,0,1.2,0.1,1.6,0.2c0.4,0.2,0.7,0.4,0.9,0.8
				c0.3,0.4,0.5,0.8,0.6,1.3c0.1,0.5,0.2,1.1,0.2,1.7c0,1.4-0.3,2.4-0.8,3.1C153.8,74.9,153,75.3,151.9,75.3z M151.5,69.2h-1.2v4.1
				h1.2c0.4,0,0.8-0.1,1.1-0.2c0.3-0.1,0.5-0.3,0.7-0.7c0.1-0.3,0.2-0.7,0.2-1.2c0-0.6-0.1-1.1-0.3-1.4
				C152.8,69.4,152.3,69.2,151.5,69.2z"/>
			<path fill="#E53089" d="M160.2,75.3h-1.7V79c0,0.5-0.1,0.9-0.2,1.2c-0.2,0.3-0.4,0.4-0.6,0.4c-0.3,0-0.5-0.1-0.6-0.4
				c-0.2-0.3-0.2-0.7-0.2-1.2V68.8c0-0.6,0.1-1,0.3-1.3c0.2-0.3,0.5-0.4,0.9-0.4h2.3c0.7,0,1.2,0.1,1.6,0.2c0.4,0.2,0.7,0.4,0.9,0.8
				c0.3,0.4,0.5,0.8,0.6,1.3c0.1,0.5,0.2,1.1,0.2,1.7c0,1.4-0.3,2.4-0.8,3.1C162.1,74.9,161.3,75.3,160.2,75.3z M159.8,69.2h-1.2
				v4.1h1.2c0.4,0,0.8-0.1,1.1-0.2c0.3-0.1,0.5-0.3,0.7-0.7c0.2-0.3,0.2-0.7,0.2-1.2c0-0.6-0.1-1.1-0.3-1.4
				C161.1,69.4,160.6,69.2,159.8,69.2z"/>
			<path fill="#E53089" d="M167,79.1v-4.2l-2.2-5c-0.2-0.5-0.3-0.8-0.4-1.1c-0.1-0.3-0.1-0.5-0.1-0.7c0-0.3,0.1-0.6,0.2-0.8
				c0.2-0.2,0.4-0.3,0.6-0.3c0.2,0,0.4,0.1,0.6,0.3c0.1,0.2,0.3,0.6,0.6,1.2l1.6,4l1.7-4c0.1-0.2,0.2-0.5,0.3-0.6
				c0.1-0.2,0.1-0.3,0.2-0.5c0.1-0.1,0.2-0.3,0.3-0.3c0.1-0.1,0.2-0.1,0.4-0.1c0.2,0,0.4,0.1,0.6,0.3c0.1,0.2,0.2,0.5,0.2,0.8
				c0,0.2,0,0.5-0.1,0.7c-0.1,0.2-0.2,0.6-0.4,1l-2.2,5.1v4.2c0,0.5-0.1,1-0.2,1.2c-0.2,0.3-0.4,0.4-0.6,0.4c-0.3,0-0.5-0.1-0.6-0.4
				C167.1,80,167,79.6,167,79.1z"/>
		</g>
	</g>
	<g>
		<g>
			<path fill="#E34A93" d="M180.9,68.7v3.8h3.5v-3.8c0-0.5,0.1-1,0.2-1.2c0.1-0.3,0.3-0.4,0.6-0.4c0.2,0,0.4,0.1,0.6,0.4
				c0.1,0.3,0.2,0.7,0.2,1.2v10.5c0,0.6-0.1,1-0.2,1.2c-0.2,0.3-0.3,0.4-0.6,0.4c-0.2,0-0.4-0.1-0.6-0.4c-0.1-0.3-0.2-0.7-0.2-1.2
				v-4.5h-3.5v4.5c0,0.6-0.1,1-0.2,1.2c-0.2,0.3-0.3,0.4-0.6,0.4c-0.2,0-0.4-0.1-0.6-0.4c-0.1-0.3-0.2-0.7-0.2-1.2V68.7
				c0-0.5,0.1-1,0.2-1.2c0.1-0.3,0.3-0.4,0.6-0.4s0.4,0.1,0.6,0.4C180.9,67.8,180.9,68.2,180.9,68.7z"/>
			<path fill="#E34A93" d="M191.3,67.1c0.8,0,1.5,0.3,2.1,0.8c0.6,0.6,1,1.4,1.3,2.4c0.3,1,0.5,2.2,0.5,3.6c0,1-0.1,2-0.3,2.8
				c-0.2,0.8-0.4,1.6-0.8,2.2c-0.3,0.6-0.7,1.1-1.2,1.4c-0.5,0.3-1,0.5-1.7,0.5c-0.6,0-1.2-0.2-1.7-0.5c-0.5-0.3-0.9-0.8-1.2-1.4
				c-0.3-0.6-0.6-1.3-0.7-2.2c-0.2-0.9-0.3-1.8-0.3-2.8c0-1,0.1-2,0.3-2.8c0.2-0.9,0.4-1.6,0.8-2.2c0.3-0.6,0.7-1.1,1.2-1.4
				C190.2,67.3,190.7,67.1,191.3,67.1z M193.6,73.9c0-1-0.1-1.8-0.3-2.5c-0.2-0.7-0.5-1.3-0.8-1.6c-0.4-0.4-0.8-0.6-1.2-0.6
				c-0.3,0-0.6,0.1-0.9,0.3c-0.3,0.2-0.5,0.5-0.7,0.9c-0.2,0.4-0.4,0.9-0.5,1.5c-0.1,0.6-0.2,1.3-0.2,2c0,0.8,0.1,1.4,0.2,2.1
				c0.1,0.6,0.3,1.1,0.5,1.5c0.2,0.4,0.5,0.7,0.7,0.9c0.3,0.2,0.6,0.3,0.9,0.3c0.4,0,0.8-0.2,1.1-0.5c0.3-0.3,0.6-0.9,0.8-1.6
				C193.5,75.9,193.6,75,193.6,73.9z"/>
			<path fill="#E34A93" d="M196.7,75.1v-6.4c0-0.5,0.1-1,0.2-1.2c0.1-0.3,0.3-0.4,0.6-0.4c0.2,0,0.4,0.1,0.6,0.4
				c0.1,0.3,0.2,0.7,0.2,1.2v6.5c0,0.7,0,1.4,0.2,1.9c0.1,0.5,0.3,0.9,0.5,1.2c0.3,0.3,0.6,0.4,1.1,0.4c0.6,0,1.1-0.3,1.4-0.8
				c0.3-0.6,0.4-1.4,0.4-2.5v-6.6c0-0.6,0.1-1,0.2-1.2c0.1-0.3,0.3-0.4,0.6-0.4c0.2,0,0.4,0.1,0.6,0.4c0.1,0.3,0.2,0.7,0.2,1.2v6.4
				c0,1-0.1,1.9-0.2,2.6c-0.1,0.7-0.3,1.3-0.7,1.8c-0.3,0.4-0.6,0.8-1,1c-0.4,0.2-0.8,0.3-1.4,0.3c-0.6,0-1.1-0.1-1.6-0.3
				c-0.4-0.2-0.8-0.6-1.1-1c-0.3-0.5-0.5-1.1-0.6-1.8C196.7,77,196.7,76.1,196.7,75.1z"/>
			<path fill="#E34A93" d="M207.3,74.9h-0.6v4.3c0,0.6-0.1,1-0.2,1.2c-0.1,0.3-0.3,0.4-0.6,0.4c-0.3,0-0.5-0.1-0.6-0.4
				c-0.1-0.3-0.2-0.7-0.2-1.2V69c0-0.6,0.1-1,0.2-1.3c0.2-0.3,0.4-0.4,0.8-0.4h2.6c0.4,0,0.7,0,0.9,0.1c0.3,0.1,0.5,0.2,0.7,0.3
				c0.2,0.2,0.5,0.4,0.7,0.8c0.2,0.3,0.3,0.7,0.4,1.1c0.1,0.4,0.1,0.9,0.1,1.4c0,1-0.2,1.8-0.5,2.4c-0.3,0.6-0.8,1-1.5,1.3
				c0.3,0.3,0.6,0.6,0.8,1.1c0.3,0.5,0.5,1,0.7,1.6c0.2,0.6,0.4,1.1,0.5,1.5c0.1,0.4,0.2,0.8,0.2,0.9c0,0.2,0,0.4-0.1,0.5
				c-0.1,0.2-0.2,0.3-0.3,0.4c-0.1,0.1-0.3,0.1-0.4,0.1c-0.2,0-0.3-0.1-0.5-0.2c-0.1-0.1-0.2-0.3-0.3-0.5c-0.1-0.2-0.2-0.5-0.4-1
				l-0.6-1.8c-0.2-0.7-0.4-1.2-0.6-1.5c-0.2-0.3-0.4-0.6-0.6-0.7C207.8,75,207.6,74.9,207.3,74.9z M208.2,69.3h-1.5V73h1.5
				c0.4,0,0.7-0.1,1-0.2c0.3-0.1,0.5-0.3,0.6-0.6c0.1-0.3,0.2-0.6,0.2-1.1c0-0.4-0.1-0.7-0.2-1c-0.1-0.3-0.3-0.5-0.5-0.6
				C209.2,69.4,208.8,69.3,208.2,69.3z"/>
			<path fill="#E34A93" d="M219.2,76.6c0,0.8-0.1,1.5-0.4,2.2c-0.2,0.6-0.6,1.1-1.1,1.5c-0.5,0.4-1,0.5-1.7,0.5
				c-0.8,0-1.4-0.2-1.9-0.7c-0.4-0.4-0.7-0.8-0.9-1.4c-0.2-0.6-0.3-1.2-0.3-1.7c0-0.3,0.1-0.6,0.2-0.8c0.1-0.2,0.3-0.3,0.5-0.3
				c0.2,0,0.3,0.1,0.4,0.3c0.1,0.2,0.2,0.5,0.3,0.8c0.1,0.4,0.2,0.8,0.3,1.1c0.1,0.3,0.3,0.5,0.5,0.7c0.2,0.2,0.5,0.3,0.8,0.3
				c0.5,0,0.9-0.2,1.2-0.6c0.3-0.4,0.5-0.8,0.5-1.4c0-0.4-0.1-0.8-0.2-1.1c-0.2-0.3-0.4-0.5-0.6-0.6c-0.3-0.1-0.6-0.3-1-0.5
				c-0.6-0.2-1.1-0.5-1.4-0.8c-0.4-0.3-0.7-0.7-0.9-1.2c-0.2-0.5-0.3-1.2-0.3-1.9c0-0.7,0.1-1.4,0.4-2c0.2-0.6,0.6-1,1-1.3
				c0.5-0.3,1-0.5,1.6-0.5c0.5,0,0.9,0.1,1.3,0.3c0.4,0.2,0.7,0.5,0.9,0.8c0.2,0.3,0.4,0.7,0.5,1.1c0.1,0.4,0.2,0.7,0.2,1.1
				c0,0.3-0.1,0.6-0.2,0.9c-0.1,0.3-0.3,0.4-0.5,0.4c-0.2,0-0.3-0.1-0.4-0.2c-0.1-0.2-0.2-0.4-0.3-0.8c-0.1-0.5-0.3-0.9-0.5-1.2
				c-0.2-0.3-0.5-0.4-1-0.4c-0.4,0-0.8,0.2-1,0.5c-0.3,0.3-0.4,0.7-0.4,1.1c0,0.3,0,0.5,0.1,0.7c0.1,0.2,0.2,0.4,0.4,0.5
				c0.2,0.1,0.3,0.2,0.5,0.3c0.2,0.1,0.4,0.2,0.8,0.3c0.4,0.2,0.9,0.4,1.2,0.6c0.4,0.2,0.7,0.5,0.9,0.8c0.3,0.3,0.5,0.7,0.6,1.1
				C219.2,75.4,219.2,76,219.2,76.6z"/>
		</g>
	</g>
	<g>
		<g>
			<path fill="#E34A93" d="M135.9,60.6l-0.5-1.1h-3.9l-0.5,1.1c-0.2,0.4-0.3,0.7-0.5,0.9c-0.1,0.2-0.3,0.2-0.6,0.2
				c-0.2,0-0.5-0.1-0.6-0.2c-0.2-0.2-0.3-0.4-0.3-0.6c0-0.1,0-0.2,0.1-0.4c0-0.1,0.1-0.3,0.2-0.5l2.4-5.8c0.1-0.2,0.2-0.4,0.3-0.6
				c0.1-0.2,0.2-0.4,0.3-0.6c0.1-0.2,0.3-0.3,0.4-0.4c0.2-0.1,0.4-0.1,0.7-0.1c0.3,0,0.5,0,0.7,0.1c0.2,0.1,0.3,0.2,0.4,0.4
				c0.1,0.1,0.2,0.3,0.3,0.5c0.1,0.2,0.2,0.4,0.3,0.7l2.5,5.7c0.2,0.4,0.3,0.8,0.3,0.9c0,0.2-0.1,0.4-0.3,0.6
				c-0.2,0.2-0.4,0.3-0.7,0.3c-0.1,0-0.3,0-0.4-0.1c-0.1-0.1-0.2-0.1-0.3-0.2c-0.1-0.1-0.2-0.2-0.2-0.4
				C136,60.9,135.9,60.7,135.9,60.6z M132,58.1h2.8l-1.4-3.7L132,58.1z"/>
			<path fill="#E34A93" d="M141.2,53.7v6.4h3.9c0.3,0,0.6,0.1,0.7,0.2c0.2,0.1,0.3,0.3,0.3,0.5c0,0.2-0.1,0.4-0.2,0.5
				c-0.2,0.1-0.4,0.2-0.7,0.2h-4.6c-0.4,0-0.7-0.1-0.9-0.3c-0.2-0.2-0.3-0.5-0.3-0.8v-6.8c0-0.4,0.1-0.6,0.3-0.8
				c0.2-0.2,0.4-0.3,0.7-0.3c0.3,0,0.5,0.1,0.7,0.3C141.1,53,141.2,53.3,141.2,53.7z"/>
			<path fill="#E34A93" d="M151.8,54.2h-2.1v6.4c0,0.4-0.1,0.6-0.3,0.8c-0.2,0.2-0.4,0.3-0.7,0.3c-0.3,0-0.5-0.1-0.7-0.3
				c-0.2-0.2-0.3-0.5-0.3-0.8v-6.4h-2.1c-0.3,0-0.6-0.1-0.7-0.2c-0.2-0.1-0.2-0.3-0.2-0.5c0-0.2,0.1-0.4,0.2-0.5
				c0.2-0.1,0.4-0.2,0.7-0.2h6.1c0.3,0,0.6,0.1,0.7,0.2c0.2,0.1,0.2,0.3,0.2,0.5c0,0.2-0.1,0.4-0.2,0.5
				C152.4,54.2,152.2,54.2,151.8,54.2z"/>
			<path fill="#E34A93" d="M160.2,54.1h-4.3v2.2h4c0.3,0,0.5,0.1,0.7,0.2c0.1,0.1,0.2,0.3,0.2,0.5c0,0.2-0.1,0.4-0.2,0.5
				c-0.1,0.1-0.4,0.2-0.7,0.2h-4v2.5h4.5c0.3,0,0.5,0.1,0.7,0.2c0.2,0.1,0.2,0.3,0.2,0.5c0,0.2-0.1,0.4-0.2,0.5
				c-0.2,0.1-0.4,0.2-0.7,0.2h-5.2c-0.4,0-0.7-0.1-0.9-0.3c-0.2-0.2-0.3-0.5-0.3-0.8v-6.7c0-0.3,0-0.5,0.1-0.6
				c0.1-0.2,0.2-0.3,0.4-0.4c0.2-0.1,0.4-0.1,0.7-0.1h5.1c0.3,0,0.5,0.1,0.7,0.2c0.1,0.1,0.2,0.3,0.2,0.5c0,0.2-0.1,0.4-0.2,0.5
				C160.7,54.1,160.5,54.1,160.2,54.1z"/>
			<path fill="#E34A93" d="M165.4,57.8h-0.7v2.8c0,0.4-0.1,0.6-0.3,0.8c-0.2,0.2-0.4,0.3-0.7,0.3c-0.3,0-0.5-0.1-0.7-0.3
				c-0.2-0.2-0.2-0.5-0.2-0.8v-6.8c0-0.4,0.1-0.7,0.3-0.8c0.2-0.2,0.5-0.3,0.9-0.3h3.1c0.4,0,0.8,0,1.1,0c0.3,0,0.6,0.1,0.8,0.2
				c0.3,0.1,0.6,0.3,0.8,0.5c0.2,0.2,0.4,0.5,0.5,0.8c0.1,0.3,0.2,0.6,0.2,0.9c0,0.7-0.2,1.2-0.6,1.6c-0.4,0.4-1,0.7-1.8,0.8
				c0.3,0.2,0.7,0.4,1,0.7c0.3,0.3,0.6,0.7,0.8,1.1c0.2,0.4,0.4,0.7,0.6,1c0.1,0.3,0.2,0.5,0.2,0.6c0,0.1,0,0.2-0.1,0.3
				c-0.1,0.1-0.2,0.2-0.3,0.3c-0.1,0.1-0.3,0.1-0.5,0.1c-0.2,0-0.4,0-0.5-0.1c-0.1-0.1-0.3-0.2-0.4-0.4c-0.1-0.1-0.2-0.4-0.4-0.6
				l-0.8-1.2c-0.3-0.4-0.5-0.8-0.7-1c-0.2-0.2-0.4-0.4-0.7-0.5C166,57.9,165.7,57.8,165.4,57.8z M166.5,54.1h-1.8v2.4h1.7
				c0.5,0,0.9,0,1.2-0.1c0.3-0.1,0.6-0.2,0.7-0.4c0.2-0.2,0.3-0.4,0.3-0.7c0-0.2-0.1-0.5-0.2-0.7c-0.1-0.2-0.3-0.3-0.6-0.4
				C167.6,54.1,167.1,54.1,166.5,54.1z"/>
			<path fill="#E34A93" d="M174.8,53.7l3.7,5.2v-5.3c0-0.3,0.1-0.6,0.2-0.8c0.2-0.2,0.4-0.3,0.6-0.3c0.3,0,0.5,0.1,0.6,0.3
				c0.2,0.2,0.2,0.4,0.2,0.8v7c0,0.8-0.3,1.2-1,1.2c-0.2,0-0.3,0-0.5-0.1c-0.1,0-0.3-0.1-0.4-0.2c-0.1-0.1-0.2-0.2-0.3-0.4
				c-0.1-0.1-0.2-0.3-0.3-0.4l-3.6-5.2v5.2c0,0.3-0.1,0.6-0.3,0.8c-0.2,0.2-0.4,0.3-0.7,0.3c-0.3,0-0.5-0.1-0.7-0.3
				c-0.2-0.2-0.2-0.4-0.2-0.8v-6.8c0-0.3,0-0.5,0.1-0.7c0.1-0.2,0.2-0.3,0.4-0.4c0.2-0.1,0.4-0.2,0.6-0.2c0.2,0,0.3,0,0.4,0.1
				c0.1,0.1,0.2,0.1,0.3,0.2c0.1,0.1,0.2,0.2,0.3,0.3C174.6,53.4,174.7,53.5,174.8,53.7z"/>
			<path fill="#E34A93" d="M188.3,60.6l-0.4-1.1H184l-0.5,1.1c-0.2,0.4-0.3,0.7-0.5,0.9c-0.1,0.2-0.3,0.2-0.6,0.2
				c-0.2,0-0.5-0.1-0.6-0.2c-0.2-0.2-0.3-0.4-0.3-0.6c0-0.1,0-0.2,0.1-0.4c0-0.1,0.1-0.3,0.2-0.5l2.4-5.8c0.1-0.2,0.2-0.4,0.2-0.6
				c0.1-0.2,0.2-0.4,0.3-0.6c0.1-0.2,0.3-0.3,0.4-0.4c0.2-0.1,0.4-0.1,0.7-0.1c0.3,0,0.5,0,0.7,0.1c0.2,0.1,0.3,0.2,0.4,0.4
				c0.1,0.1,0.2,0.3,0.3,0.5c0.1,0.2,0.2,0.4,0.3,0.7l2.5,5.7c0.2,0.4,0.3,0.8,0.3,0.9c0,0.2-0.1,0.4-0.3,0.6
				c-0.2,0.2-0.4,0.3-0.7,0.3c-0.2,0-0.3,0-0.4-0.1c-0.1-0.1-0.2-0.1-0.3-0.2c-0.1-0.1-0.1-0.2-0.2-0.4
				C188.4,60.9,188.4,60.7,188.3,60.6z M184.5,58.1h2.8l-1.4-3.7L184.5,58.1z"/>
			<path fill="#E34A93" d="M196.8,54.2h-2.1v6.4c0,0.4-0.1,0.6-0.3,0.8c-0.2,0.2-0.4,0.3-0.7,0.3c-0.3,0-0.5-0.1-0.7-0.3
				c-0.2-0.2-0.3-0.5-0.3-0.8v-6.4h-2.1c-0.3,0-0.6-0.1-0.7-0.2c-0.2-0.1-0.2-0.3-0.2-0.5c0-0.2,0.1-0.4,0.3-0.5
				c0.2-0.1,0.4-0.2,0.7-0.2h6.1c0.3,0,0.6,0.1,0.7,0.2c0.2,0.1,0.2,0.3,0.2,0.5c0,0.2-0.1,0.4-0.2,0.5
				C197.3,54.2,197.1,54.2,196.8,54.2z"/>
			<path fill="#E34A93" d="M199,60.7v-7c0-0.4,0.1-0.6,0.3-0.8c0.2-0.2,0.4-0.3,0.7-0.3c0.3,0,0.5,0.1,0.7,0.3
				c0.2,0.2,0.3,0.5,0.3,0.8v7c0,0.4-0.1,0.6-0.3,0.8c-0.2,0.2-0.4,0.3-0.7,0.3c-0.3,0-0.5-0.1-0.7-0.3C199.1,61.3,199,61,199,60.7z
				"/>
			<path fill="#E34A93" d="M204.4,53.8l2.2,5.9l2.2-6c0.1-0.3,0.2-0.5,0.3-0.7c0.1-0.1,0.1-0.2,0.3-0.3c0.1-0.1,0.3-0.1,0.5-0.1
				c0.2,0,0.3,0,0.5,0.1c0.1,0.1,0.3,0.2,0.3,0.3c0.1,0.1,0.1,0.3,0.1,0.4c0,0.1,0,0.2,0,0.3c0,0.1-0.1,0.2-0.1,0.3
				c0,0.1-0.1,0.2-0.1,0.3l-2.3,5.8c-0.1,0.2-0.2,0.4-0.2,0.6c-0.1,0.2-0.2,0.4-0.3,0.5c-0.1,0.2-0.3,0.3-0.4,0.4
				c-0.2,0.1-0.4,0.1-0.7,0.1c-0.3,0-0.5,0-0.7-0.1c-0.2-0.1-0.3-0.2-0.4-0.4c-0.1-0.2-0.2-0.3-0.3-0.5c-0.1-0.2-0.2-0.4-0.2-0.6
				l-2.3-5.7c0-0.1-0.1-0.2-0.1-0.3c0-0.1-0.1-0.2-0.1-0.3c0-0.1,0-0.2,0-0.3c0-0.2,0.1-0.4,0.3-0.6c0.2-0.2,0.4-0.3,0.7-0.3
				c0.3,0,0.6,0.1,0.7,0.3C204.2,53.1,204.3,53.4,204.4,53.8z"/>
			<path fill="#E34A93" d="M218.4,54.1h-4.3v2.2h4c0.3,0,0.5,0.1,0.7,0.2c0.1,0.1,0.2,0.3,0.2,0.5c0,0.2-0.1,0.4-0.2,0.5
				c-0.1,0.1-0.4,0.2-0.7,0.2h-4v2.5h4.5c0.3,0,0.5,0.1,0.7,0.2c0.2,0.1,0.2,0.3,0.2,0.5c0,0.2-0.1,0.4-0.2,0.5
				c-0.2,0.1-0.4,0.2-0.7,0.2h-5.2c-0.4,0-0.7-0.1-0.9-0.3c-0.2-0.2-0.3-0.5-0.3-0.8v-6.7c0-0.3,0-0.5,0.1-0.6
				c0.1-0.2,0.2-0.3,0.4-0.4c0.2-0.1,0.4-0.1,0.7-0.1h5.1c0.3,0,0.5,0.1,0.7,0.2c0.1,0.1,0.2,0.3,0.2,0.5c0,0.2-0.1,0.4-0.2,0.5
				C218.9,54.1,218.7,54.1,218.4,54.1z"/>
		</g>
	</g>
	<path fill="#E94A93" d="M55.5,43.9c0.7-2.4,3-8.6,6.4-9c3.4-0.3,16.9,25.5,14.2,26.8c-2.8,1.2-4.2-4.8-6.9-6.7
		c-2.7-2-10-3.7-10.8-1.5c-0.9,2.1-1,2.9-3.8,1.8C51.9,54.1,54.9,46.3,55.5,43.9z M61.9,49c0,0,4.2,1.9,4.9,0.2
		c0.7-1.7-0.2-4.2-1.9-5.5c-1.7-1.3-4.3-0.8-4.8-0.4C59.7,43.6,58.6,47.8,61.9,49z"/>
	<path fill="#E94A93" d="M101.3,60.4c0.5-2,2.4-7,5.2-7.3c2.8-0.3,11.2,20,8.7,21c-2.5,1-2.3-3.2-4.4-4.9c-2.2-1.6-6.4-2.7-7.2-1
		c-0.7,1.7-0.8,2.3-3.1,1.4C98.3,68.7,100.8,62.4,101.3,60.4z M106.6,64.6c1.5,0.2,2.8,0.7,3.2-0.2c0.4-1,0.6-3-0.7-4.1
		c-1.4-1.1-2.7-1.7-3.3-0.6C105.2,60.7,105.1,64.4,106.6,64.6z"/>
	<path fill="#E94A93" d="M80.6,42.8c2,0,3,2.7,3,2.7s0,4.2,0.3,5.6c0.3,1.4,1.7,1.9,2.9,2.4c1.2,0.6,4.9,0.4,5.2,0.2
		c0.3-0.2-0.3-4.8,0.3-5.4c0.7-0.7,3,1,3.4,2.1c0.4,1.1,2,16.5,1.1,16.8c-0.9,0.3-2,0.1-2.9-0.2c-0.9-0.3-1-7.5-2-7.7
		c-0.4-0.1-2.1-2.1-3-2.3c-0.9-0.2-2-0.4-3.3-0.3c-1.3,0.1-0.3,6.1-0.8,6.6c-0.4,0.6-4.2-0.2-4.8-0.9c-0.3-0.4-0.5-4.7-0.8-8.8
		c-0.2-3.2-0.6-6.4-0.8-7.4C78.3,43.9,78.6,42.8,80.6,42.8z"/>
	<path fill="#E94A93" d="M59.5,59.8c-0.9-0.6-0.4,8.7,0.3,11.9c0.7,3.2,12.2,16.5,17.4,17c5.2,0.4,8.4,0.6,12.4,0.1
		c4-0.4,13.9-10.9,13.9-11.4c0-0.4-8.3,1.8-11.7,2.1c-3.4,0.3-8.4,1-13.3,0C73.7,78.6,60.4,60.4,59.5,59.8z"/>
	<path fill="#E94A93" d="M53.9,17.1c-2.3-0.9-4-0.3-5.5-1c-1.5-0.7-1.2-3.2,0-4.3c1.2-1,3.8-0.3,5.5,0.4c1.6,0.7,10.5,9.7,7.5,9
		C59.8,20.8,56.8,18.3,53.9,17.1z"/>
	<path fill="#E94A93" d="M123.4,19c-1.3,1,0.6-3.8,2.2-5.5c1.6-1.6,2.8-2.5,4.9-2.1c2.1,0.4,2.7,2.7,2.1,3.2
		c-0.6,0.6-2.4,0.3-3.4,0.1C128.1,14.7,124.7,18,123.4,19z"/>
	<path fill="#E94A93" d="M0.2,106.7c0.7,0.6,3.1,0.4,4.7,0c1.6-0.4,6.6-3.8,7.4-4.7c0.7-0.9-3.7-0.3-6,0.7
		C3.9,103.8-0.5,106.1,0.2,106.7z"/>
	<path fill="#A5DAF1" d="M53.9,18.8c-2.3-0.9-4-0.3-5.5-1c-1.5-0.7-1.2-3.2,0-4.3c1.2-1,3.2-0.1,5.6,0.9c2.4,1,10.3,9.3,7.4,8.6
		C59.8,22.6,56.8,20.1,53.9,18.8z"/>
	<path fill="#A5DAF1" d="M122.6,20.8c-1.3,1,0.6-3.8,2.2-5.5c1.6-1.6,2.8-2.5,4.9-2.1c2.1,0.4,2.7,2.7,2.1,3.2
		c-0.6,0.6-2.4,0.3-3.4,0.1C127.3,16.5,124,19.7,122.6,20.8z"/>
	<path fill="#A5DAF1" d="M0.1,107.9c0.7,0.6,3.1,0.4,4.7,0c1.6-0.4,6.6-3.8,7.4-4.7c0.7-0.9-3.7-0.3-6,0.7
		C3.8,105-0.7,107.3,0.1,107.9z"/>
	<path fill="#E94A93" d="M113.9,15.7c0.4,0.4,4-4.6,4.7-5.6c0.7-1,1.9-4.1,2.4-5.6c0.4-1.5-3,3.1-4,4.9
		C116,11.2,113.5,15.3,113.9,15.7z"/>
	<path fill="#E94A93" d="M105.3,12.5c0.3,0.2,1.7-2.5,2-3c0.3-0.5,0.7-2.1,0.8-2.8c0.1-0.7-1.3,1.7-1.7,2.6
		C106,10.2,105,12.4,105.3,12.5z"/>
	<path fill="#E94A93" d="M83.9,5.1c0.2,0.1,1-2.2,1.2-2.7c0.2-0.5,0.2-1.8,0.2-2.3c0-0.6-0.8,1.5-1,2.3C84.1,3.2,83.6,5,83.9,5.1z"
		/>
	<path fill="#E94A93" d="M130.2,145.9c0.4-0.5-0.3-3.4-0.5-4c-0.2-0.7-1.9-3.2-2.2-2.6c-0.3,0.6-0.1,2.5,0.4,3.5
		C128.3,143.8,129.8,146.4,130.2,145.9z"/>
	<path fill="#E94A93" d="M48.5,166.4c0.5-0.1,1.8-2.2,2.1-2.7c0.3-0.5,0.7-2.8,0.2-2.5c-0.5,0.2-1.5,1.5-1.9,2.3
		C48.6,164.3,47.9,166.5,48.5,166.4z"/>
	<path fill="#E94A93" d="M30.1,143.3c0.4,0,1.6-1.4,1.9-1.8c0.3-0.4,0.9-2.1,0.5-2c-0.4,0.1-1.3,0.9-1.7,1.5
		C30.5,141.6,29.7,143.3,30.1,143.3z"/>
	<path fill="#E94A93" d="M10.7,83.3c0.3,0.2,2.1-0.4,2.5-0.6c0.4-0.2,1.9-1.4,1.5-1.5c-0.4-0.1-1.6,0.1-2.2,0.5
		C11.9,82,10.4,83.1,10.7,83.3z"/>
	<path fill="#ADC910" d="M113.3,17.1c0.4,0.4,4-4.6,4.7-5.6c0.7-1,1.9-4.1,2.4-5.6c0.4-1.5-2.9,3.1-4,4.9
		C115.4,12.5,112.9,16.6,113.3,17.1z"/>
	<path fill="#ADC910" d="M130.8,146.9c0.4-0.4-0.3-3.4-0.5-4c-0.2-0.7-1.9-3.2-2.2-2.6c-0.3,0.6-0.1,2.5,0.4,3.5
		C129,144.8,130.4,147.4,130.8,146.9z"/>
	<path fill="#ADC910" d="M48.3,167.3c0.5-0.1,1.8-2.2,2.1-2.7c0.3-0.5,0.7-2.8,0.2-2.5c-0.5,0.2-1.5,1.5-1.9,2.3
		C48.4,165.2,47.8,167.4,48.3,167.3z"/>
	<path fill="#ADC910" d="M29.3,143.9c0.4,0,1.6-1.4,1.9-1.8c0.3-0.4,0.9-2.1,0.5-2c-0.4,0.1-1.3,0.9-1.6,1.5
		C29.7,142.2,29,143.9,29.3,143.9z"/>
	<path fill="#ADC910" d="M9.8,83.4c0.3,0.2,2.1-0.4,2.5-0.6c0.4-0.2,1.9-1.4,1.5-1.5c-0.4-0.1-1.6,0.1-2.2,0.5
		C11,82.1,9.5,83.1,9.8,83.4z"/>
	<path fill="#ADC910" d="M83.6,5.2C83.8,5.3,84.8,3,85,2.5c0.2-0.5,0.3-1.7,0.4-2.3c0-0.6-0.9,1.5-1.1,2.3
		C83.9,3.3,83.3,5.1,83.6,5.2z"/>
	<path fill="#ADC910" d="M105,13.1c0.3,0.2,1.7-2.5,2-3c0.3-0.5,0.7-2.1,0.8-2.8c0.1-0.7-1.3,1.7-1.7,2.6
		C105.7,10.8,104.7,13,105,13.1z"/>
</g>
</svg>
