<?xml version="1.0" encoding="utf-8"?>
<!-- Generator: Adobe Illustrator 17.1.0, SVG Export Plug-In . SVG Version: 6.00 Build 0)  -->
<!DOCTYPE svg PUBLIC "-//W3C//DTD SVG 1.1//EN" "http://www.w3.org/Graphics/SVG/1.1/DTD/svg11.dtd">
<svg version="1.1" id="Ebene_1" xmlns="http://www.w3.org/2000/svg" xmlns:xlink="http://www.w3.org/1999/xlink" x="0px" y="0px"
	 viewBox="0 0 244.8 149.8" enable-background="new 0 0 244.8 149.8" xml:space="preserve">
<g id="Badge_1_">
	<polygon fill="#253E65" points="234.4,102 184.8,102 184.8,65 244.8,65 224.4,86.2 	"/>
	<path fill="#F9F4EE" d="M184.8,99.4l0,0.9h48.5l-0.6-0.9L184.8,99.4z M242.6,67.3l-57.7,0v1.3l56.5,0L242.6,67.3z"/>
	<polygon fill="#253E65" points="10.1,65 59.6,65 59.6,102 0,102 20.1,80.9 	"/>
	<path fill="#F9F4EE" d="M59.6,67.6v-0.9l-48.5,0l0.6,0.9H59.6z M2.2,99.7h57.4v-1.3H3.5L2.2,99.7z"/>
	<polygon fill="#F9F4EE" points="206.5,92.4 184.7,92.4 184.7,102 	"/>
	<polygon fill="#F9F4EE" points="37.9,92.4 59.6,92.4 59.6,102.1 	"/>
	<polygon fill="#2A4672" points="197,74.9 193.4,81.5 195.7,88.7 191,94.6 191.9,102.1 186.2,107 185.7,114.5 179.2,118.3 
		177.4,125.6 170.2,128.1 167.1,134.9 159.7,136.1 155.3,142.2 147.8,142 142.4,147.3 135,145.6 128.7,149.8 121.8,146.8 
		114.8,149.8 108.6,145.6 101.2,147.3 95.8,142 88.2,142.2 83.9,136.1 76.4,134.9 73.3,128.1 66.2,125.6 64.4,118.3 57.8,114.5 
		57.4,107 51.6,102.1 52.6,94.6 47.8,88.7 50.2,81.5 46.6,74.9 50.2,68.3 47.8,61.1 52.6,55.2 51.6,47.7 57.4,42.8 57.8,35.3 
		64.4,31.6 66.2,24.2 73.3,21.7 76.5,14.9 83.9,13.7 88.2,7.6 95.8,7.8 101.2,2.5 108.6,4.2 114.8,0 121.8,3 128.7,0 135,4.2 
		142.4,2.5 147.8,7.8 155.3,7.6 159.7,13.7 167.1,14.9 170.2,21.7 177.4,24.2 179.2,31.6 185.7,35.3 186.2,42.8 191.9,47.7 
		191,55.2 195.7,61.1 193.4,68.3 	"/>
	<g>
		<path fill="#F9F4EE" d="M121.8,140.9L121.8,140.9c-36.4,0-66-29.6-66-66c0-36.4,29.6-66,66-66c17.6,0,34.2,6.9,46.7,19.3
			c12.5,12.5,19.3,29,19.3,46.7C187.8,111.3,158.2,140.9,121.8,140.9z M121.8,13.8c-33.7,0-61.1,27.4-61.1,61.1
			c0,33.7,27.4,61.1,61.1,61.1c33.7,0,61.1-27.4,61.1-61.1c0-16.3-6.4-31.6-17.9-43.2C153.4,20.2,138.1,13.8,121.8,13.8z"/>
	</g>
	<rect x="37.8" y="55.4" fill="#2A4672" width="168.7" height="37"/>
	<rect x="37.8" y="57.7" fill="#F9F4EE" width="168.7" height="1.1"/>
	<rect x="37.8" y="88.8" fill="#F9F4EE" width="168.7" height="1.1"/>
	<g id="High__x2B__Responsible_2_">
		<text transform="matrix(1 0 0 1 50.4868 81.2911)" fill="#192D4E" font-family="'OpenSans-CondensedBold'" font-size="18.0872">HIGH &amp; RESPONSIBLE</text>
		<text transform="matrix(1 0 0 1 49.5845 80.5166)" fill="#F9F4EE" font-family="'OpenSans-CondensedBold'" font-size="18.0872">HIGH &amp; RESPONSIBLE</text>
	</g>
	<text transform="matrix(1 0 0 1 98.6611 111.0508)" fill="#F9F4EE" font-family="'Lobster'" font-size="17.8494">Award</text>
	<text transform="matrix(1 0 0 1 112.7539 124.1172)" fill="#F9F4EE" font-family="'OpenSans-CondensedBold'" font-size="10.4044">2014</text>
	<circle fill="none" cx="122.1" cy="74.9" r="47.3"/>
	<text transform="matrix(0.5229 -0.8524 0.8524 0.5229 80.6322 52.0086)"><tspan x="0" y="0" fill="#F9F4EE" font-family="'OpenSans-CondensedBold'" font-size="8.8272">R</tspan><tspan x="4.3" y="0" fill="#F9F4EE" font-family="'OpenSans-CondensedBold'" font-size="8.8272" rotate="5.3">A</tspan><tspan x="8.8" y="0.4" fill="#F9F4EE" font-family="'OpenSans-CondensedBold'" font-size="8.8272" rotate="11">U</tspan><tspan x="13.5" y="1.3" fill="#F9F4EE" font-family="'OpenSans-CondensedBold'" font-size="8.8272" rotate="16">S</tspan><tspan x="16.9" y="2.3" fill="#F9F4EE" font-family="'OpenSans-CondensedBold'" font-size="8.8272" rotate="20.5">C</tspan><tspan x="20.6" y="3.7" fill="#F9F4EE" font-family="'OpenSans-CondensedBold'" font-size="8.8272" rotate="25.8">H</tspan><tspan x="25" y="5.8" fill="#F9F4EE" font-family="'OpenSans-CondensedBold'" font-size="8.8272" rotate="30.3">-</tspan><tspan x="27.3" y="7.2" fill="#F9F4EE" font-family="'OpenSans-CondensedBold'" font-size="8.8272" rotate="33.3"> </tspan><tspan x="29.1" y="8.3" fill="#F9F4EE" font-family="'OpenSans-CondensedBold'" font-size="8.8272" rotate="37.5">U</tspan><tspan x="32.9" y="11.2" fill="#F9F4EE" font-family="'OpenSans-CondensedBold'" font-size="8.8272" rotate="43.7">N</tspan><tspan x="36.8" y="14.9" fill="#F9F4EE" font-family="'OpenSans-CondensedBold'" font-size="8.8272" rotate="49.8">D</tspan><tspan x="39.9" y="18.6" fill="#F9F4EE" font-family="'OpenSans-CondensedBold'" font-size="8.8272" rotate="54"> </tspan><tspan x="41.1" y="20.2" fill="#F9F4EE" font-family="'OpenSans-CondensedBold'" font-size="8.8272" rotate="57.8">R</tspan><tspan x="43.4" y="23.9" fill="#F9F4EE" font-family="'OpenSans-CondensedBold'" font-size="8.8272" rotate="61.9">I</tspan><tspan x="44.6" y="26.1" fill="#F9F4EE" font-family="'OpenSans-CondensedBold'" font-size="8.8272" rotate="65.5">S</tspan><tspan x="46" y="29.3" fill="#F9F4EE" font-family="'OpenSans-CondensedBold'" font-size="8.8272" rotate="69.2">I</tspan><tspan x="47" y="31.7" fill="#F9F4EE" font-family="'OpenSans-CondensedBold'" font-size="8.8272" rotate="73.4">K</tspan><tspan x="48.2" y="35.8" fill="#F9F4EE" font-family="'OpenSans-CondensedBold'" font-size="8.8272" rotate="79.1">O</tspan><tspan x="49.2" y="40.8" fill="#F9F4EE" font-family="'OpenSans-CondensedBold'" font-size="8.8272" rotate="84.9">B</tspan><tspan x="49.6" y="45.1" fill="#F9F4EE" font-family="'OpenSans-CondensedBold'" font-size="8.8272" rotate="90.3">A</tspan><tspan x="49.6" y="49.7" fill="#F9F4EE" font-family="'OpenSans-CondensedBold'" font-size="8.8272" rotate="95.1">L</tspan><tspan x="49.3" y="53.1" fill="#F9F4EE" font-family="'OpenSans-CondensedBold'" font-size="8.8272" rotate="99.9">A</tspan><tspan x="48.5" y="57.6" fill="#F9F4EE" font-family="'OpenSans-CondensedBold'" font-size="8.8272" rotate="105.9">N</tspan><tspan x="47" y="62.8" fill="#F9F4EE" font-family="'OpenSans-CondensedBold'" font-size="8.8272" rotate="111.5">C</tspan><tspan x="45.6" y="66.5" fill="#F9F4EE" font-family="'OpenSans-CondensedBold'" font-size="8.8272" rotate="116.1">E</tspan></text>
</g>
</svg>
