<?xml version="1.0" encoding="utf-8"?>
<!-- Generator: Adobe Illustrator 18.1.1, SVG Export Plug-In . SVG Version: 6.00 Build 0)  -->
<svg version="1.1" id="Ebene_1" xmlns="http://www.w3.org/2000/svg" xmlns:xlink="http://www.w3.org/1999/xlink" x="0px" y="0px"
	 viewBox="0 0 237.3 145.2" enable-background="new 0 0 237.3 145.2" xml:space="preserve">
<g>
	<g>
		<polygon fill="#253E65" points="227.2,98.9 179.2,98.9 179.2,63 237.3,63 217.5,83.5 		"/>
	</g>
	<g>
		<path fill="#FAF5EF" d="M179.2,96.4l0,0.9h47l-0.6-0.9L179.2,96.4z M235.1,65.3l-56,0v1.3l54.7,0L235.1,65.3z"/>
	</g>
	<g>
		<polygon fill="#253E65" points="9.8,63 57.8,63 57.8,98.9 0,98.9 19.5,78.4 		"/>
	</g>
	<g>
		<path fill="#FAF5EF" d="M57.8,65.5v-0.9l-47,0l0.6,0.9H57.8z M2.2,96.6h55.6v-1.3H3.4L2.2,96.6z"/>
	</g>
	<g>
		<polygon fill="#FAF5EF" points="200.1,89.5 179.1,89.5 179.1,98.8 		"/>
	</g>
	<g>
		<polygon fill="#FAF5EF" points="36.7,89.5 57.8,89.5 57.8,99 		"/>
	</g>
	<g>
		<polygon fill="#2A4672" points="191,72.6 187.5,79 189.7,86 185.1,91.7 186.1,99 180.5,103.7 180,111 173.7,114.6 171.9,121.7 
			165,124.1 162,130.8 154.8,131.9 150.6,137.9 143.2,137.6 138,142.8 130.9,141.2 124.8,145.2 118,142.3 111.3,145.2 105.2,141.2 
			98.1,142.8 92.9,137.6 85.5,137.9 81.3,131.9 74.1,130.8 71.1,124.1 64.2,121.7 62.4,114.6 56,111 55.6,103.7 50,99 51,91.7 
			46.4,86 48.6,79 45.1,72.6 48.6,66.2 46.4,59.2 51,53.5 50,46.3 55.6,41.5 56.1,34.2 62.4,30.6 64.2,23.5 71.1,21.1 74.1,14.4 
			81.3,13.3 85.5,7.3 92.9,7.6 98.1,2.5 105.2,4.1 111.3,0 118.1,2.9 124.8,0 130.9,4.1 138,2.5 143.2,7.6 150.6,7.3 154.8,13.3 
			162,14.4 165,21.1 171.9,23.5 173.7,30.6 180.1,34.2 180.5,41.5 186.1,46.3 185.1,53.5 189.7,59.2 187.5,66.2 		"/>
	</g>
	<g>
		<g>
			<path fill="#FAF5EF" d="M118,136.6L118,136.6c-35.3,0-64-28.7-64-64c0-35.3,28.7-64,64-64c17.1,0,33.2,6.7,45.2,18.7
				C175.4,39.5,182,55.5,182,72.6C182,107.9,153.3,136.6,118,136.6z M118.1,13.4c-32.6,0-59.2,26.6-59.2,59.2
				c0,32.6,26.6,59.2,59.2,59.2c32.6,0,59.2-26.6,59.2-59.2c0-15.8-6.2-30.7-17.3-41.9C148.7,19.6,133.9,13.4,118.1,13.4z"/>
		</g>
	</g>
	<g>
		<rect x="36.6" y="53.7" fill="#2A4672" width="163.5" height="35.8"/>
	</g>
	<g>
		<rect x="36.6" y="55.9" fill="#FAF5EF" width="163.5" height="1.1"/>
	</g>
	<g>
		<rect x="36.6" y="86.1" fill="#FAF5EF" width="163.5" height="1.1"/>
	</g>
	<g id="High__x2B__Responsible_2_">
		<g>
			<path fill="#142C4F" d="M57.8,78.8h-2.3v-5.5h-3.1v5.5H50V66.3h2.3v5h3.1v-5h2.3V78.8z"/>
			<path fill="#142C4F" d="M60.4,78.8V66.3h2.2v12.5H60.4z"/>
			<path fill="#142C4F" d="M69,71.9h3.8v6.4c-1.1,0.5-2.2,0.7-3.5,0.7c-1.5,0-2.6-0.6-3.4-1.7c-0.8-1.1-1.2-2.7-1.2-4.8
				c0-2,0.4-3.6,1.3-4.7s2.2-1.7,3.8-1.7c1,0,2,0.3,2.9,0.8l-0.7,1.9c-0.7-0.4-1.4-0.6-2-0.6c-0.9,0-1.6,0.4-2.1,1.2
				c-0.5,0.8-0.8,1.9-0.8,3.2c0,1.4,0.2,2.5,0.6,3.2c0.4,0.7,0.9,1.1,1.6,1.1c0.4,0,0.8,0,1.1-0.1v-2.9H69V71.9z"/>
			<path fill="#142C4F" d="M82.5,78.8h-2.3v-5.5h-3.1v5.5h-2.3V66.3h2.3v5h3.1v-5h2.3V78.8z"/>
			<path fill="#142C4F" d="M95.4,78.8l-0.6-0.9c-0.8,0.7-1.7,1-2.9,1c-1.1,0-1.9-0.3-2.6-0.9s-0.9-1.5-0.9-2.6
				c0-1.4,0.7-2.6,2.1-3.6c-0.4-0.7-0.7-1.2-0.9-1.6c-0.1-0.4-0.2-0.8-0.2-1.2c0-0.9,0.3-1.6,0.8-2.1c0.6-0.5,1.3-0.8,2.2-0.8
				c0.9,0,1.6,0.2,2.1,0.7s0.8,1.2,0.8,2.1c0,0.6-0.2,1.2-0.5,1.7c-0.3,0.5-0.8,1.1-1.6,1.6l1.7,2.5c0.2-0.4,0.3-0.7,0.5-1.2
				s0.2-0.9,0.3-1.3h2c-0.2,1.6-0.7,3-1.4,4.3l1.7,2.3H95.4z M90.7,75.2c0,0.5,0.1,0.9,0.4,1.2s0.6,0.5,1,0.5c0.6,0,1.1-0.2,1.5-0.6
				l-2.1-3C91,73.9,90.7,74.5,90.7,75.2z M93.2,69.1c0-0.4-0.1-0.6-0.2-0.8c-0.2-0.2-0.3-0.3-0.5-0.3c-0.3,0-0.5,0.1-0.6,0.3
				c-0.2,0.2-0.2,0.5-0.2,0.8c0,0.3,0.1,0.6,0.2,0.9c0.1,0.3,0.3,0.5,0.5,0.8c0.3-0.3,0.6-0.5,0.7-0.8S93.2,69.5,93.2,69.1z"/>
			<path fill="#142C4F" d="M105.9,73.9v4.9h-2.3V66.3h3c1.3,0,2.2,0.3,2.9,0.9c0.6,0.6,0.9,1.5,0.9,2.8c0,1.6-0.5,2.7-1.6,3.3
				l2.4,5.5h-2.5l-2-4.9H105.9z M105.9,71.9h0.6c0.5,0,0.9-0.2,1.2-0.5s0.4-0.8,0.4-1.4c0-0.6-0.1-1.1-0.4-1.4
				c-0.3-0.3-0.6-0.4-1.2-0.4h-0.6V71.9z"/>
			<path fill="#142C4F" d="M118,78.8h-5.6V66.3h5.6v2h-3.3v3h3.1v2h-3.1v3.5h3.3V78.8z"/>
			<path fill="#142C4F" d="M125.5,75.3c0,1.2-0.3,2.1-0.9,2.7S123.2,79,122,79c-1.1,0-2-0.2-2.8-0.6V76c0.9,0.6,1.8,0.9,2.6,0.9
				c0.4,0,0.8-0.1,1-0.4c0.2-0.2,0.3-0.6,0.3-1c0-0.4-0.1-0.8-0.4-1.1c-0.3-0.3-0.7-0.7-1.3-1.2c-0.5-0.4-0.9-0.7-1.2-1.1
				c-0.3-0.3-0.5-0.7-0.6-1.1s-0.2-0.9-0.2-1.5c0-1.1,0.3-1.9,0.9-2.6c0.6-0.6,1.4-0.9,2.4-0.9c1,0,1.9,0.3,2.8,0.8l-0.8,1.9
				c-0.3-0.2-0.6-0.3-0.9-0.4s-0.6-0.2-1-0.2c-0.4,0-0.7,0.1-0.9,0.4c-0.2,0.2-0.3,0.6-0.3,1c0,0.4,0.1,0.8,0.4,1.1
				c0.2,0.3,0.7,0.7,1.3,1.1c0.8,0.5,1.4,1.1,1.7,1.7S125.5,74.6,125.5,75.3z"/>
			<path fill="#142C4F" d="M133.8,70.1c0,1.3-0.3,2.4-1,3.1c-0.7,0.7-1.6,1.1-2.9,1.1h-0.6v4.5H127V66.3h3.2
				C132.6,66.3,133.8,67.6,133.8,70.1z M129.4,72.2h0.4c0.6,0,1-0.2,1.3-0.5s0.4-0.8,0.4-1.5c0-0.7-0.1-1.1-0.4-1.5
				c-0.3-0.3-0.7-0.5-1.2-0.5h-0.6V72.2z"/>
			<path fill="#142C4F" d="M144,72.5c0,2.1-0.4,3.7-1.2,4.8c-0.8,1.1-1.9,1.7-3.3,1.7c-1.5,0-2.6-0.6-3.3-1.7s-1.2-2.7-1.2-4.8
				c0-2.1,0.4-3.7,1.2-4.8c0.8-1.1,1.9-1.7,3.4-1.7c1.4,0,2.6,0.6,3.3,1.7C143.6,68.9,144,70.5,144,72.5z M137.4,72.5
				c0,1.4,0.2,2.5,0.5,3.3s0.9,1.1,1.6,1.1c1.4,0,2.1-1.5,2.1-4.4c0-2.9-0.7-4.4-2.1-4.4c-0.7,0-1.2,0.4-1.6,1.1
				C137.6,70,137.4,71.1,137.4,72.5z"/>
			<path fill="#142C4F" d="M154.6,78.8h-2.8l-3.9-9.1h-0.1c0.1,0.7,0.2,1.4,0.2,2.2v6.8h-2.2V66.3h2.9l3.8,9h0.1
				c-0.1-0.6-0.2-1.3-0.2-2.1v-6.8h2.1V78.8z"/>
			<path fill="#142C4F" d="M162.5,75.3c0,1.2-0.3,2.1-0.9,2.7s-1.4,0.9-2.6,0.9c-1.1,0-2-0.2-2.8-0.6V76c0.9,0.6,1.8,0.9,2.6,0.9
				c0.4,0,0.8-0.1,1-0.4c0.2-0.2,0.3-0.6,0.3-1c0-0.4-0.1-0.8-0.4-1.1c-0.3-0.3-0.7-0.7-1.3-1.2c-0.5-0.4-0.9-0.7-1.2-1.1
				c-0.3-0.3-0.5-0.7-0.6-1.1c-0.2-0.4-0.2-0.9-0.2-1.5c0-1.1,0.3-1.9,0.9-2.6c0.6-0.6,1.4-0.9,2.4-0.9c1,0,1.9,0.3,2.8,0.8
				l-0.8,1.9c-0.3-0.2-0.6-0.3-0.9-0.4s-0.6-0.2-1-0.2c-0.4,0-0.7,0.1-0.9,0.4c-0.2,0.2-0.3,0.6-0.3,1c0,0.4,0.1,0.8,0.4,1.1
				c0.2,0.3,0.7,0.7,1.3,1.1c0.8,0.5,1.4,1.1,1.7,1.7S162.5,74.6,162.5,75.3z"/>
			<path fill="#142C4F" d="M164.5,78.8V66.3h2.2v12.5H164.5z"/>
			<path fill="#142C4F" d="M169.3,66.3h3.2c1.3,0,2.2,0.3,2.8,0.8c0.6,0.5,0.9,1.3,0.9,2.4c0,0.7-0.2,1.3-0.5,1.8
				c-0.3,0.5-0.7,0.8-1.3,0.9v0.1c0.7,0.2,1.2,0.5,1.5,1c0.3,0.5,0.5,1.1,0.5,1.9c0,1.1-0.3,2-0.9,2.7c-0.6,0.6-1.4,1-2.5,1h-3.8
				V66.3z M171.5,71.3h1.1c0.5,0,0.8-0.1,1-0.4c0.2-0.3,0.3-0.7,0.3-1.2s-0.1-0.9-0.3-1.1c-0.2-0.2-0.6-0.3-1.1-0.3h-1V71.3z
				 M171.5,73.3v3.5h1.2c0.5,0,0.8-0.1,1.1-0.4c0.2-0.3,0.4-0.8,0.4-1.4c0-1.1-0.5-1.7-1.5-1.7H171.5z"/>
			<path fill="#142C4F" d="M178.2,78.8V66.3h2.3v10.5h3.2v2H178.2z"/>
			<path fill="#142C4F" d="M190.9,78.8h-5.6V66.3h5.6v2h-3.3v3h3.1v2h-3.1v3.5h3.3V78.8z"/>
		</g>
		<g>
			<path fill="#FAF5EF" d="M56.9,78h-2.3v-5.5h-3.1V78h-2.3V65.5h2.3v5h3.1v-5h2.3V78z"/>
			<path fill="#FAF5EF" d="M59.5,78V65.5h2.2V78H59.5z"/>
			<path fill="#FAF5EF" d="M68.1,71.1H72v6.4c-1.1,0.5-2.2,0.7-3.5,0.7c-1.5,0-2.6-0.6-3.4-1.7c-0.8-1.1-1.2-2.7-1.2-4.8
				c0-2,0.4-3.6,1.3-4.7s2.2-1.7,3.8-1.7c1,0,2,0.3,2.9,0.8L71.2,68c-0.7-0.4-1.4-0.6-2-0.6c-0.9,0-1.6,0.4-2.1,1.2
				c-0.5,0.8-0.8,1.9-0.8,3.2c0,1.4,0.2,2.5,0.6,3.2c0.4,0.7,0.9,1.1,1.6,1.1c0.4,0,0.8,0,1.1-0.1v-2.9h-1.5V71.1z"/>
			<path fill="#FAF5EF" d="M81.6,78h-2.3v-5.5h-3.1V78h-2.3V65.5h2.3v5h3.1v-5h2.3V78z"/>
			<path fill="#FAF5EF" d="M94.5,78l-0.6-0.9c-0.8,0.7-1.7,1-2.9,1c-1.1,0-1.9-0.3-2.6-0.9s-0.9-1.5-0.9-2.6c0-1.4,0.7-2.6,2.1-3.6
				c-0.4-0.7-0.7-1.2-0.9-1.6c-0.1-0.4-0.2-0.8-0.2-1.2c0-0.9,0.3-1.6,0.8-2.1c0.6-0.5,1.3-0.8,2.2-0.8c0.9,0,1.6,0.2,2.1,0.7
				s0.8,1.2,0.8,2.1c0,0.6-0.2,1.2-0.5,1.7c-0.3,0.5-0.8,1.1-1.6,1.6l1.7,2.5c0.2-0.4,0.3-0.7,0.5-1.2c0.1-0.4,0.2-0.9,0.3-1.3h2
				c-0.2,1.6-0.7,3-1.4,4.3l1.7,2.3H94.5z M89.9,74.5c0,0.5,0.1,0.9,0.4,1.2s0.6,0.5,1,0.5c0.6,0,1.1-0.2,1.5-0.6l-2.1-3
				C90.1,73.1,89.9,73.7,89.9,74.5z M92.3,68.3c0-0.4-0.1-0.6-0.2-0.8c-0.2-0.2-0.3-0.3-0.5-0.3c-0.3,0-0.5,0.1-0.6,0.3
				c-0.2,0.2-0.2,0.5-0.2,0.8c0,0.3,0.1,0.6,0.2,0.9c0.1,0.3,0.3,0.5,0.5,0.8c0.3-0.3,0.6-0.5,0.7-0.8S92.3,68.7,92.3,68.3z"/>
			<path fill="#FAF5EF" d="M105,73.2V78h-2.3V65.5h3c1.3,0,2.2,0.3,2.9,0.9c0.6,0.6,0.9,1.5,0.9,2.8c0,1.6-0.5,2.7-1.6,3.3l2.4,5.5
				h-2.5l-2-4.9H105z M105,71.2h0.6c0.5,0,0.9-0.2,1.2-0.5s0.4-0.8,0.4-1.4c0-0.6-0.1-1.1-0.4-1.4c-0.3-0.3-0.6-0.4-1.2-0.4H105
				V71.2z"/>
			<path fill="#FAF5EF" d="M117.1,78h-5.6V65.5h5.6v2h-3.3v3h3.1v2h-3.1V76h3.3V78z"/>
			<path fill="#FAF5EF" d="M124.6,74.6c0,1.2-0.3,2.1-0.9,2.7s-1.4,0.9-2.6,0.9c-1.1,0-2-0.2-2.8-0.6v-2.3c0.9,0.6,1.8,0.9,2.6,0.9
				c0.4,0,0.8-0.1,1-0.4c0.2-0.2,0.3-0.6,0.3-1c0-0.4-0.1-0.8-0.4-1.1c-0.3-0.3-0.7-0.7-1.3-1.2c-0.5-0.4-0.9-0.7-1.2-1.1
				c-0.3-0.3-0.5-0.7-0.6-1.1s-0.2-0.9-0.2-1.5c0-1.1,0.3-1.9,0.9-2.6c0.6-0.6,1.4-0.9,2.4-0.9c1,0,1.9,0.3,2.8,0.8l-0.8,1.9
				c-0.3-0.2-0.6-0.3-0.9-0.4s-0.6-0.2-1-0.2c-0.4,0-0.7,0.1-0.9,0.4c-0.2,0.2-0.3,0.6-0.3,1c0,0.4,0.1,0.8,0.4,1.1
				c0.2,0.3,0.7,0.7,1.3,1.1c0.8,0.5,1.4,1.1,1.7,1.7S124.6,73.9,124.6,74.6z"/>
			<path fill="#FAF5EF" d="M133,69.4c0,1.3-0.3,2.4-1,3.1c-0.7,0.7-1.6,1.1-2.9,1.1h-0.6V78h-2.3V65.5h3.2
				C131.8,65.5,133,66.8,133,69.4z M128.5,71.5h0.4c0.6,0,1-0.2,1.3-0.5s0.4-0.8,0.4-1.5c0-0.7-0.1-1.1-0.4-1.5
				c-0.3-0.3-0.7-0.5-1.2-0.5h-0.6V71.5z"/>
			<path fill="#FAF5EF" d="M143.2,71.8c0,2.1-0.4,3.7-1.2,4.8c-0.8,1.1-1.9,1.7-3.3,1.7c-1.5,0-2.6-0.6-3.3-1.7s-1.2-2.7-1.2-4.8
				c0-2.1,0.4-3.7,1.2-4.8c0.8-1.1,1.9-1.7,3.4-1.7c1.4,0,2.6,0.6,3.3,1.7C142.8,68.1,143.2,69.7,143.2,71.8z M136.5,71.8
				c0,1.4,0.2,2.5,0.5,3.3s0.9,1.1,1.6,1.1c1.4,0,2.1-1.5,2.1-4.4c0-2.9-0.7-4.4-2.1-4.4c-0.7,0-1.2,0.4-1.6,1.1
				C136.7,69.3,136.5,70.3,136.5,71.8z"/>
			<path fill="#FAF5EF" d="M153.7,78h-2.8L147,69h-0.1c0.1,0.7,0.2,1.4,0.2,2.2V78H145V65.5h2.9l3.8,9h0.1c-0.1-0.6-0.2-1.3-0.2-2.1
				v-6.8h2.1V78z"/>
			<path fill="#FAF5EF" d="M161.7,74.6c0,1.2-0.3,2.1-0.9,2.7s-1.4,0.9-2.6,0.9c-1.1,0-2-0.2-2.8-0.6v-2.3c0.9,0.6,1.8,0.9,2.6,0.9
				c0.4,0,0.8-0.1,1-0.4c0.2-0.2,0.3-0.6,0.3-1c0-0.4-0.1-0.8-0.4-1.1c-0.3-0.3-0.7-0.7-1.3-1.2c-0.5-0.4-0.9-0.7-1.2-1.1
				c-0.3-0.3-0.5-0.7-0.6-1.1c-0.2-0.4-0.2-0.9-0.2-1.5c0-1.1,0.3-1.9,0.9-2.6c0.6-0.6,1.4-0.9,2.4-0.9c1,0,1.9,0.3,2.8,0.8
				l-0.8,1.9c-0.3-0.2-0.6-0.3-0.9-0.4s-0.6-0.2-1-0.2c-0.4,0-0.7,0.1-0.9,0.4c-0.2,0.2-0.3,0.6-0.3,1c0,0.4,0.1,0.8,0.4,1.1
				c0.2,0.3,0.7,0.7,1.3,1.1c0.8,0.5,1.4,1.1,1.7,1.7S161.7,73.9,161.7,74.6z"/>
			<path fill="#FAF5EF" d="M163.6,78V65.5h2.2V78H163.6z"/>
			<path fill="#FAF5EF" d="M168.5,65.5h3.2c1.3,0,2.2,0.3,2.8,0.8c0.6,0.5,0.9,1.3,0.9,2.4c0,0.7-0.2,1.3-0.5,1.8
				c-0.3,0.5-0.7,0.8-1.3,0.9v0.1c0.7,0.2,1.2,0.5,1.5,1c0.3,0.5,0.5,1.1,0.5,1.9c0,1.1-0.3,2-0.9,2.7c-0.6,0.6-1.4,1-2.5,1h-3.8
				V65.5z M170.6,70.6h1.1c0.5,0,0.8-0.1,1-0.4c0.2-0.3,0.3-0.7,0.3-1.2s-0.1-0.9-0.3-1.1c-0.2-0.2-0.6-0.3-1.1-0.3h-1V70.6z
				 M170.6,72.5V76h1.2c0.5,0,0.8-0.1,1.1-0.4c0.2-0.3,0.4-0.8,0.4-1.4c0-1.1-0.5-1.7-1.5-1.7H170.6z"/>
			<path fill="#FAF5EF" d="M177.3,78V65.5h2.3V76h3.2v2H177.3z"/>
			<path fill="#FAF5EF" d="M190,78h-5.6V65.5h5.6v2h-3.3v3h3.1v2h-3.1V76h3.3V78z"/>
		</g>
	</g>
	<g>
		<path fill="#FAF5EF" d="M97.1,111.5c-0.1,0.6-0.2,1.1-0.2,1.6s0.1,0.8,0.2,1c-0.7,0-1.2-0.1-1.4-0.2c-0.6-0.3-0.9-0.8-0.9-1.6
			c0-1.2,0.5-2.9,1.5-5c0.3-0.7,0.7-1.3,1-2c-0.5,0-1,0.1-1.3,0.2c-0.3,0.1-0.6,0.3-0.7,0.6c0.1,0,0.1,0.1,0.2,0.2
			c0.1,0.1,0.1,0.3,0.1,0.4s-0.1,0.3-0.3,0.4c-0.2,0.1-0.4,0.2-0.6,0.2c-0.4,0-0.7-0.1-0.9-0.3c-0.2-0.2-0.3-0.4-0.3-0.7
			c0-0.6,0.3-1.1,1-1.5c0.7-0.4,1.5-0.6,2.5-0.6c0.2,0,0.5,0,0.9,0.1c0.9-1.5,1.9-2.7,3-3.7c1.1-1,2.1-1.4,3-1.4
			c0.6,0,1,0.1,1.4,0.2l-2.7,12.7h-2.5l1.3-6.3c-0.8-0.3-1.5-0.6-2.3-0.6C98.1,107.5,97.4,109.6,97.1,111.5z M99.5,104.5
			c0.8,0.2,1.5,0.4,2.1,0.6l1-4.7C101.6,100.9,100.6,102.3,99.5,104.5z"/>
		<path fill="#FAF5EF" d="M107.3,109.8c0,0.5,0.2,0.8,0.5,0.8c0.6,0,1.1-0.5,1.4-1.5l1.2-5.6h2.5l-1.2,5.9c-0.1,0.3-0.1,0.5-0.1,0.6
			c0,0.4,0.2,0.6,0.6,0.6c0.5,0,1-0.4,1.5-1.1c0.7-1,1.1-2.2,1.4-3.6c0.1-0.4,0.1-0.8,0.1-1.1c0,0.1-0.1,0.1-0.2,0.1l-0.2,0
			c-0.1,0-0.1,0-0.1,0c-0.2,0-0.4-0.1-0.5-0.3s-0.2-0.4-0.2-0.6c0-0.2,0.1-0.4,0.3-0.6s0.4-0.3,0.7-0.3c0.5,0,0.8,0.1,0.9,0.4
			c0.2,0.3,0.3,0.7,0.3,1.1s0,0.9-0.1,1.5c-0.1,0.6-0.2,1.1-0.4,1.7c-0.4,1.3-0.9,2.3-1.6,3c-0.8,0.9-1.8,1.4-2.9,1.4
			c-1.1,0-1.8-0.5-2-1.5c-0.6,1-1.5,1.5-2.5,1.5c-0.5,0-1-0.2-1.3-0.5c-0.4-0.3-0.5-0.9-0.5-1.6c0-0.3,0-0.7,0.1-1.1l1.2-5.6h2.5
			l-1.2,5.9C107.3,109.5,107.3,109.6,107.3,109.8z"/>
		<path fill="#FAF5EF" d="M126.2,109c-0.7,2.1-1.9,3.2-3.5,3.2c-1,0-1.6-0.5-1.7-1.6c-0.8,1.1-1.6,1.6-2.6,1.6s-1.7-0.5-2-1.5
			c-0.1-0.4-0.2-0.8-0.2-1.2c0-0.5,0-0.9,0.1-1.4c0.1-0.5,0.2-0.9,0.4-1.4c0.4-1,0.9-1.8,1.5-2.5c0.7-0.6,1.5-1,2.4-1
			c0.5,0,0.9,0.1,1.1,0.2s0.3,0.4,0.3,0.6v0.1l0.2-0.9h2.5l-1.2,5.9c-0.1,0.2-0.1,0.4-0.1,0.6c0,0.5,0.2,0.7,0.7,0.7
			c0.6,0,1.1-0.5,1.4-1.6H126.2z M121.8,105.1c0-0.1,0-0.2-0.1-0.4c-0.1-0.2-0.3-0.2-0.6-0.2s-0.6,0.2-0.9,0.5
			c-0.7,0.8-1.2,2-1.4,3.6c0,0.2,0,0.5,0,0.8c0,0.5,0.1,0.9,0.3,1.1c0.1,0.1,0.3,0.2,0.5,0.2c0.3,0,0.7-0.1,0.9-0.4
			c0.3-0.3,0.5-0.6,0.6-1.1L121.8,105.1z"/>
		<path fill="#FAF5EF" d="M124.8,112.1l1.8-8.7h2.5l-0.2,1.1c0.3-0.3,0.6-0.5,1-0.7c0.3-0.2,0.7-0.3,1.1-0.3c0.4,0,0.7,0.1,0.9,0.4
			c0.2,0.3,0.3,0.5,0.3,0.8c0,0.4-0.1,0.8-0.3,1c-0.2,0.3-0.5,0.4-0.8,0.4s-0.5-0.1-0.6-0.2c-0.1-0.1-0.2-0.3-0.2-0.4
			s-0.1-0.3-0.1-0.4c0-0.1-0.1-0.1-0.2-0.1c-0.2,0-0.4,0.1-0.6,0.2c-0.2,0.1-0.4,0.3-0.6,0.5l-1.4,6.6H124.8z"/>
		<path fill="#FAF5EF" d="M139.6,110.5c0.2,0,0.4,0,0.6-0.1c0,0.6-0.2,1-0.6,1.3c-0.4,0.3-0.8,0.5-1.3,0.5s-0.8-0.1-1.1-0.3
			c-0.4-0.3-0.7-0.7-0.8-1.2c-0.7,1-1.6,1.4-2.5,1.4s-1.7-0.5-2-1.5c-0.1-0.4-0.2-0.8-0.2-1.2c0-0.5,0-0.9,0.1-1.4
			c0.1-0.5,0.2-0.9,0.4-1.4c0.4-1,0.9-1.8,1.5-2.5c0.7-0.6,1.5-1,2.4-1c0.5,0,0.9,0.1,1.1,0.2c0.2,0.2,0.3,0.4,0.3,0.6v0.1l0.8-4
			l2.6-0.3l-2,9.3c-0.1,0.2-0.1,0.3-0.1,0.5C138.9,110.3,139.2,110.5,139.6,110.5z M134.3,109.3c0,0.8,0.3,1.3,0.9,1.3
			c0.2,0,0.5-0.1,0.8-0.3c0.3-0.2,0.5-0.5,0.6-0.9l0.9-4.2c-0.1-0.4-0.3-0.6-0.7-0.6s-0.7,0.2-1,0.5c-0.7,0.8-1.2,2-1.4,3.6
			C134.3,108.8,134.3,109,134.3,109.3z"/>
	</g>
	<g>
		<path fill="#FAF5EF" d="M79.1,44.9l1.8,1.3l-0.6,0.9l-4.6-3.3l0.8-1.1c0.3-0.5,0.7-0.7,1.1-0.8c0.4-0.1,0.8,0.1,1.3,0.4
			c0.6,0.4,0.9,0.9,0.8,1.5l2.7,0.6l-0.7,0.9l-2.3-0.6L79.1,44.9z M78.4,44.4l0.2-0.2c0.1-0.2,0.2-0.4,0.1-0.6
			c-0.1-0.2-0.2-0.3-0.4-0.5c-0.2-0.2-0.4-0.2-0.6-0.2c-0.2,0-0.3,0.1-0.5,0.3L77,43.4L78.4,44.4z"/>
		<path fill="#FAF5EF" d="M84.4,41.9l-1.3-0.7l-1,1.1l0.9,1.2l-0.7,0.8l-3.4-4.8l0.9-1.1l5.3,2.7L84.4,41.9z M82.2,40.7L81,40.1
			c-0.1,0-0.3-0.1-0.5-0.3c-0.3-0.2-0.5-0.3-0.6-0.3c0.1,0.2,0.3,0.4,0.5,0.6c0.2,0.2,0.5,0.7,1.1,1.5L82.2,40.7z"/>
		<path fill="#FAF5EF" d="M83.9,34.3l2.6,2.7c0.5,0.5,0.7,1,0.7,1.4c0,0.5-0.2,0.9-0.6,1.3c-0.4,0.4-0.8,0.6-1.3,0.5
			c-0.5,0-0.9-0.3-1.4-0.8l-2.6-2.6l0.8-0.7l2.6,2.7c0.5,0.5,0.9,0.6,1.3,0.3c0.2-0.2,0.2-0.3,0.2-0.6S86,38,85.8,37.7L83.1,35
			L83.9,34.3z"/>
		<path fill="#FAF5EF" d="M89.5,35c0.3,0.4,0.5,0.8,0.5,1.2c0,0.4-0.2,0.7-0.6,1.1c-0.4,0.3-0.8,0.5-1.2,0.6L87.5,37
			c0.5-0.1,0.9-0.2,1.2-0.4c0.2-0.1,0.2-0.3,0.2-0.4s0-0.3-0.2-0.5c-0.1-0.1-0.3-0.2-0.5-0.3c-0.2,0-0.5-0.1-0.8,0
			c-0.3,0-0.5,0-0.7,0s-0.4-0.1-0.6-0.2c-0.2-0.1-0.3-0.3-0.5-0.5c-0.3-0.4-0.5-0.8-0.4-1.2c0-0.4,0.2-0.7,0.6-1
			c0.3-0.3,0.7-0.4,1.2-0.5l0.3,0.9c-0.1,0-0.3,0.1-0.4,0.1c-0.1,0-0.3,0.1-0.4,0.2c-0.1,0.1-0.2,0.2-0.2,0.4c0,0.1,0.1,0.3,0.2,0.4
			c0.1,0.1,0.3,0.2,0.4,0.3c0.2,0,0.4,0,0.8,0c0.4,0,0.8,0,1.1,0.1S89.3,34.7,89.5,35z"/>
		<path fill="#FAF5EF" d="M89.8,30.7c-0.2,0.2-0.3,0.5-0.3,0.9c0.1,0.4,0.3,0.8,0.6,1.4c0.8,1.1,1.4,1.4,2,1
			c0.2-0.2,0.5-0.4,0.6-0.8l0.5,0.8c-0.1,0.3-0.4,0.6-0.7,0.8c-0.5,0.4-1.1,0.4-1.7,0.2c-0.6-0.2-1.1-0.7-1.7-1.5
			c-0.5-0.8-0.8-1.5-0.8-2.1c0-0.6,0.2-1.1,0.8-1.5c0.2-0.1,0.4-0.2,0.5-0.3c0.2-0.1,0.4-0.1,0.7-0.1l0.2,0.9c-0.1,0-0.3,0-0.4,0
			S89.9,30.7,89.8,30.7z"/>
		<path fill="#FAF5EF" d="M97,32l-0.9,0.5l-1.3-2.2l-1.2,0.7l1.3,2.2L94,33.8l-2.9-4.9l0.9-0.5l1.1,2l1.2-0.7l-1.1-2l0.9-0.5L97,32z
			"/>
		<path fill="#FAF5EF" d="M96.9,30.2l-0.4-0.8l1.8-0.9l0.4,0.8L96.9,30.2z"/>
		<path fill="#FAF5EF" d="M103.2,23.3l1.2,3.5c0.2,0.6,0.2,1.2,0.1,1.6c-0.2,0.4-0.5,0.8-1.1,0.9c-0.5,0.2-1,0.2-1.4-0.1
			c-0.4-0.2-0.7-0.7-0.9-1.3l-1.2-3.5l1-0.3l1.2,3.6c0.2,0.7,0.6,1,1,0.8c0.2-0.1,0.3-0.2,0.4-0.4s0-0.5-0.1-0.8l-1.2-3.6
			L103.2,23.3z"/>
		<path fill="#FAF5EF" d="M109.8,27.5l-1.3,0.3l-2.7-3.6l0,0c0.1,0.3,0.2,0.6,0.3,1l0.7,3l-1,0.2l-1.3-5.6l1.3-0.3l2.6,3.6l0,0
			c-0.1-0.3-0.2-0.6-0.3-0.9l-0.7-3l1-0.2L109.8,27.5z"/>
		<path fill="#FAF5EF" d="M113.9,24c0.1,0.9,0,1.7-0.3,2.2c-0.3,0.5-0.8,0.9-1.5,1l-1.4,0.2l-0.7-5.7l1.5-0.2
			c0.7-0.1,1.2,0.1,1.6,0.5C113.5,22.5,113.8,23.1,113.9,24z M112.8,24.2c-0.2-1.3-0.6-1.9-1.3-1.8l-0.4,0.1l0.5,3.8l0.3,0
			c0.4-0.1,0.6-0.2,0.8-0.6C112.9,25.3,112.9,24.8,112.8,24.2z"/>
		<path fill="#FAF5EF" d="M117.9,24.5l0,2.2l-1.1,0l0-5.7l1.4,0c0.6,0,1,0.1,1.3,0.4c0.3,0.3,0.4,0.7,0.4,1.3c0,0.7-0.2,1.2-0.7,1.5
			l1.1,2.5l-1.1,0l-0.9-2.2H117.9z M118,23.6l0.3,0c0.2,0,0.4-0.1,0.5-0.2c0.1-0.1,0.2-0.4,0.2-0.6c0-0.3-0.1-0.5-0.2-0.6
			c-0.1-0.1-0.3-0.2-0.5-0.2l-0.3,0L118,23.6z"/>
		<path fill="#FAF5EF" d="M121,26.8l0.4-5.7l1,0.1l-0.4,5.7L121,26.8z"/>
		<path fill="#FAF5EF" d="M125.9,25.7c-0.1,0.5-0.3,0.9-0.6,1.2c-0.3,0.2-0.7,0.3-1.2,0.3c-0.5-0.1-0.9-0.2-1.2-0.4l0.1-1
			c0.4,0.3,0.8,0.5,1.1,0.6c0.2,0,0.4,0,0.5-0.1s0.2-0.2,0.2-0.4c0-0.2,0-0.4-0.1-0.5c-0.1-0.2-0.3-0.4-0.5-0.6
			c-0.2-0.2-0.4-0.4-0.5-0.6c-0.1-0.2-0.2-0.4-0.2-0.6c0-0.2,0-0.4,0-0.7c0.1-0.5,0.2-0.9,0.6-1.1c0.3-0.2,0.7-0.3,1.1-0.3
			c0.4,0.1,0.8,0.2,1.2,0.5l-0.5,0.8c-0.1-0.1-0.2-0.2-0.4-0.2c-0.1-0.1-0.3-0.1-0.4-0.1c-0.2,0-0.3,0-0.4,0.1
			c-0.1,0.1-0.2,0.2-0.2,0.4c0,0.2,0,0.4,0.1,0.5c0.1,0.2,0.3,0.3,0.5,0.6c0.3,0.3,0.6,0.6,0.7,0.9
			C125.9,25.1,125.9,25.4,125.9,25.7z"/>
		<path fill="#FAF5EF" d="M126.5,27.5l1.1-5.6l1,0.2l-1.1,5.6L126.5,27.5z"/>
		<path fill="#FAF5EF" d="M132,28.8l-1.1-0.3l-0.3-2.6l-0.5,0.3l-0.5,1.9l-1-0.3l1.4-5.5l1,0.3l-0.7,2.7l0.6-0.7l1.4-1.7l1.1,0.3
			l-1.9,2.1L132,28.8z"/>
		<path fill="#FAF5EF" d="M136.9,27.5c-0.3,0.9-0.7,1.5-1.2,1.9c-0.5,0.4-1.1,0.4-1.7,0.2c-0.6-0.2-1-0.6-1.2-1.2
			c-0.2-0.6-0.1-1.3,0.2-2.2c0.3-0.9,0.7-1.5,1.2-1.9c0.5-0.4,1.1-0.4,1.7-0.2c0.6,0.2,1,0.6,1.2,1.2S137.2,26.6,136.9,27.5z
			 M134.1,26.5c-0.2,0.6-0.3,1.1-0.3,1.5c0,0.4,0.2,0.6,0.5,0.7c0.6,0.2,1.1-0.3,1.6-1.6c0.5-1.3,0.4-2-0.2-2.2
			c-0.3-0.1-0.6,0-0.9,0.2C134.6,25.4,134.3,25.8,134.1,26.5z"/>
		<path fill="#FAF5EF" d="M139,25.3l1.3,0.6c0.5,0.3,0.9,0.5,1,0.9c0.1,0.3,0.1,0.7-0.1,1.2c-0.1,0.3-0.3,0.5-0.5,0.7
			c-0.2,0.1-0.5,0.2-0.7,0.1l0,0c0.3,0.2,0.4,0.4,0.4,0.7c0,0.3,0,0.6-0.2,0.9c-0.2,0.5-0.5,0.8-0.9,0.9s-0.8,0.1-1.2-0.1l-1.6-0.7
			L139,25.3z M138.6,28.6l-0.7,1.4l0.5,0.2c0.2,0.1,0.4,0.1,0.5,0c0.2-0.1,0.3-0.2,0.4-0.5c0.2-0.5,0.1-0.8-0.3-1L138.6,28.6z
			 M138.9,27.8l0.4,0.2c0.2,0.1,0.4,0.1,0.5,0c0.1-0.1,0.3-0.2,0.4-0.4c0.1-0.2,0.1-0.4,0.1-0.5s-0.2-0.3-0.4-0.3l-0.4-0.2
			L138.9,27.8z"/>
		<path fill="#FAF5EF" d="M142.5,33.5l0.4-1.4l-1.3-0.8l-1,1.1l-0.9-0.5l4.1-4.2l1.2,0.7l-1.7,5.7L142.5,33.5z M143.2,31.2l0.4-1.3
			c0-0.1,0.1-0.3,0.2-0.6s0.2-0.5,0.2-0.6c-0.1,0.2-0.3,0.4-0.5,0.6c-0.2,0.2-0.6,0.7-1.3,1.4L143.2,31.2z"/>
		<path fill="#FAF5EF" d="M143.7,34.3l3.3-4.7l0.9,0.6l-2.7,3.9l1.2,0.8l-0.5,0.8L143.7,34.3z"/>
		<path fill="#FAF5EF" d="M148.3,37.8l0.7-1.3l-1.2-0.9l-1.2,0.9l-0.8-0.7l4.7-3.5l1.1,0.9l-2.5,5.3L148.3,37.8z M149.4,35.7
			l0.6-1.2c0-0.1,0.1-0.3,0.3-0.5c0.2-0.3,0.3-0.5,0.3-0.6c-0.2,0.2-0.4,0.3-0.6,0.5c-0.2,0.2-0.7,0.6-1.5,1.2L149.4,35.7z"/>
		<path fill="#FAF5EF" d="M152.3,41.6l-0.9-0.9l1.7-4.2l0,0c-0.2,0.3-0.4,0.5-0.6,0.8l-2.2,2.2l-0.7-0.7l4-4l0.9,0.9l-1.7,4.1l0,0
			c0.2-0.2,0.4-0.5,0.6-0.7l2.2-2.2l0.7,0.7L152.3,41.6z"/>
		<path fill="#FAF5EF" d="M157.8,40.6c-0.2-0.2-0.5-0.3-0.9-0.2s-0.8,0.3-1.3,0.8c-1,0.8-1.3,1.5-0.9,2.1c0.2,0.2,0.5,0.4,0.8,0.5
			l-0.7,0.6c-0.3-0.1-0.6-0.3-0.9-0.6c-0.4-0.5-0.5-1-0.4-1.6c0.2-0.6,0.6-1.2,1.3-1.8c0.7-0.6,1.4-0.9,2-1c0.6-0.1,1.1,0.2,1.5,0.6
			c0.1,0.2,0.2,0.3,0.3,0.5c0.1,0.2,0.1,0.4,0.2,0.7l-0.9,0.3c0-0.1,0-0.3-0.1-0.4C157.9,40.8,157.9,40.7,157.8,40.6z"/>
		<path fill="#FAF5EF" d="M156.6,47.1l-1.5-2.1l4.6-3.3l1.5,2.1l-0.7,0.5l-0.9-1.2l-1.1,0.8l0.8,1.1l-0.8,0.5l-0.8-1.1l-1.3,0.9
			l0.9,1.2L156.6,47.1z"/>
	</g>
</g>
</svg>
